%TF.GenerationSoftware,KiCad,Pcbnew,(6.0.4)*%
%TF.CreationDate,2022-05-12T23:34:31+02:00*%
%TF.ProjectId,projekt_1,70726f6a-656b-4745-9f31-2e6b69636164,rev?*%
%TF.SameCoordinates,Original*%
%TF.FileFunction,Copper,L2,Bot*%
%TF.FilePolarity,Positive*%
%FSLAX46Y46*%
G04 Gerber Fmt 4.6, Leading zero omitted, Abs format (unit mm)*
G04 Created by KiCad (PCBNEW (6.0.4)) date 2022-05-12 23:34:31*
%MOMM*%
%LPD*%
G01*
G04 APERTURE LIST*
%TA.AperFunction,ComponentPad*%
%ADD10C,3.000000*%
%TD*%
%TA.AperFunction,ComponentPad*%
%ADD11R,1.905000X2.000000*%
%TD*%
%TA.AperFunction,ComponentPad*%
%ADD12O,1.905000X2.000000*%
%TD*%
%TA.AperFunction,ComponentPad*%
%ADD13R,1.800000X1.800000*%
%TD*%
%TA.AperFunction,ComponentPad*%
%ADD14C,1.800000*%
%TD*%
%TA.AperFunction,ComponentPad*%
%ADD15R,3.000000X3.000000*%
%TD*%
%TA.AperFunction,ComponentPad*%
%ADD16C,1.500000*%
%TD*%
%TA.AperFunction,ComponentPad*%
%ADD17R,2.000000X2.000000*%
%TD*%
%TA.AperFunction,ComponentPad*%
%ADD18O,2.000000X2.000000*%
%TD*%
%TA.AperFunction,ComponentPad*%
%ADD19C,2.400000*%
%TD*%
%TA.AperFunction,ComponentPad*%
%ADD20O,2.400000X2.400000*%
%TD*%
%TA.AperFunction,ComponentPad*%
%ADD21R,2.000000X2.300000*%
%TD*%
%TA.AperFunction,ComponentPad*%
%ADD22C,2.300000*%
%TD*%
%TA.AperFunction,ViaPad*%
%ADD23C,0.800000*%
%TD*%
%TA.AperFunction,ViaPad*%
%ADD24C,1.000000*%
%TD*%
%TA.AperFunction,Conductor*%
%ADD25C,1.000000*%
%TD*%
%TA.AperFunction,Conductor*%
%ADD26C,0.500000*%
%TD*%
%TA.AperFunction,Conductor*%
%ADD27C,2.000000*%
%TD*%
G04 APERTURE END LIST*
D10*
%TO.P,F2,1*%
%TO.N,Net-(F1-Pad2)*%
X72260000Y-49733200D03*
%TO.P,F2,2*%
%TO.N,Net-(F2-Pad2)*%
X49660000Y-49733200D03*
%TD*%
D11*
%TO.P,Q2,1,A1*%
%TO.N,Net-(C3-Pad2)*%
X36042600Y-72263200D03*
D12*
%TO.P,Q2,2,A2*%
%TO.N,/L*%
X38582600Y-72263200D03*
%TO.P,Q2,3,G*%
%TO.N,Net-(Q2-Pad3)*%
X41122600Y-72263200D03*
%TD*%
D13*
%TO.P,D2,1,K*%
%TO.N,GND*%
X119126000Y-81280000D03*
D14*
%TO.P,D2,2,A*%
%TO.N,Net-(D2-Pad2)*%
X119126000Y-83820000D03*
%TD*%
D13*
%TO.P,D3,1,K*%
%TO.N,/Drain*%
X119126000Y-93980000D03*
D14*
%TO.P,D3,2,A*%
%TO.N,Net-(D3-Pad2)*%
X119126000Y-91440000D03*
%TD*%
D13*
%TO.P,D4,1,K*%
%TO.N,GND*%
X119126000Y-76195000D03*
D14*
%TO.P,D4,2,A*%
%TO.N,Net-(D4-Pad2)*%
X119126000Y-78735000D03*
%TD*%
D15*
%TO.P,J1,1,Pin_1*%
%TO.N,+5V*%
X116814600Y-58420000D03*
D10*
%TO.P,J1,2,Pin_2*%
%TO.N,/OneWire*%
X116814600Y-63500000D03*
%TO.P,J1,3,Pin_3*%
%TO.N,GND*%
X116814600Y-68580000D03*
%TD*%
D16*
%TO.P,FL1,1,N1_1*%
%TO.N,/N*%
X63510000Y-21913200D03*
%TO.P,FL1,2,N1_2*%
%TO.N,/L*%
X63510000Y-36913200D03*
%TO.P,FL1,3,N2_1*%
%TO.N,Net-(FL1-Pad3)*%
X84510000Y-36913200D03*
%TO.P,FL1,4,N2_2*%
%TO.N,Net-(FL1-Pad4)*%
X84510000Y-21913200D03*
%TD*%
D13*
%TO.P,D1,1,K*%
%TO.N,GND*%
X119126000Y-86355000D03*
D14*
%TO.P,D1,2,A*%
%TO.N,Net-(D1-Pad2)*%
X119126000Y-88895000D03*
%TD*%
D17*
%TO.P,C2xclass3,1*%
%TO.N,/L*%
X29050600Y-59043700D03*
D18*
%TO.P,C2xclass3,2*%
%TO.N,Earth_Protective*%
X44050600Y-59043700D03*
%TD*%
D15*
%TO.P,J3,1,Pin_1*%
%TO.N,Net-(C3-Pad2)*%
X37058600Y-95453200D03*
D10*
%TO.P,J3,2,Pin_2*%
%TO.N,/N*%
X42138600Y-95453200D03*
%TO.P,J3,3,Pin_3*%
%TO.N,Earth_Protective*%
X47218600Y-95453200D03*
%TD*%
D17*
%TO.P,C2xclass2,1*%
%TO.N,Earth_Protective*%
X43796600Y-51954700D03*
D18*
%TO.P,C2xclass2,2*%
%TO.N,/N*%
X28796600Y-51954700D03*
%TD*%
D15*
%TO.P,J6,1,Pin_1*%
%TO.N,/N*%
X45948600Y-23495200D03*
D10*
%TO.P,J6,2,Pin_2*%
%TO.N,Net-(F2-Pad2)*%
X45948600Y-28575200D03*
%TO.P,J6,3,Pin_3*%
%TO.N,Earth_Protective*%
X45948600Y-33655200D03*
%TD*%
D19*
%TO.P,F1,1*%
%TO.N,/L*%
X60706000Y-90170000D03*
D20*
%TO.P,F1,2*%
%TO.N,Net-(F1-Pad2)*%
X60706000Y-59690000D03*
%TD*%
D14*
%TO.P,RV1,1*%
%TO.N,/N*%
X37506600Y-44261200D03*
%TO.P,RV1,2*%
%TO.N,/L*%
X30006600Y-42861200D03*
%TD*%
D21*
%TO.P,PS1,1,AC/L*%
%TO.N,Net-(FL1-Pad3)*%
X104100000Y-20997500D03*
D22*
%TO.P,PS1,2,AC/N*%
%TO.N,Net-(FL1-Pad4)*%
X99100000Y-20997500D03*
%TO.P,PS1,3,-Vout*%
%TO.N,GND*%
X109300000Y-50397500D03*
%TO.P,PS1,4,+Vout*%
%TO.N,+5V*%
X93900000Y-50397500D03*
%TD*%
D17*
%TO.P,C2xclass1,1*%
%TO.N,/N*%
X55637500Y-21913200D03*
D18*
%TO.P,C2xclass1,2*%
%TO.N,/L*%
X55637500Y-36913200D03*
%TD*%
D23*
%TO.N,GND*%
X113258600Y-100457200D03*
X72364600Y-100457200D03*
X83540600Y-91059200D03*
X110210600Y-102997200D03*
X112242600Y-78359200D03*
X64490600Y-95885200D03*
X93954600Y-39751200D03*
X62712600Y-100203200D03*
X97002600Y-100457200D03*
X101574600Y-45847200D03*
X117068600Y-49911200D03*
X115290600Y-40259200D03*
X92684600Y-100965200D03*
X68554600Y-102997200D03*
X114274600Y-73279200D03*
X74930000Y-102489200D03*
X77444600Y-91313200D03*
X85826600Y-69977200D03*
X79476600Y-73279200D03*
X100304600Y-54483200D03*
X96494600Y-67437200D03*
X66776600Y-100965200D03*
X79222600Y-63373200D03*
X117322600Y-96901200D03*
X103098600Y-100711200D03*
X82270600Y-85725200D03*
X96748600Y-82423200D03*
X108940600Y-96393200D03*
X110718600Y-62357200D03*
X85826600Y-59563200D03*
%TO.N,/Drain*%
X87122000Y-92710000D03*
D24*
X61696600Y-85090000D03*
D23*
%TO.N,/OneWire*%
X109220000Y-85852000D03*
%TO.N,Net-(R5-Pad1)*%
X83820000Y-80772000D03*
D24*
X58928000Y-86868000D03*
%TD*%
D25*
%TO.N,/Drain*%
X61696600Y-85217200D02*
X62458600Y-84455200D01*
X80772000Y-79248000D02*
X85090000Y-79248000D01*
X87122000Y-92710000D02*
X96494600Y-92710000D01*
X75564800Y-84455200D02*
X80772000Y-79248000D01*
X96494600Y-92710000D02*
X97764600Y-93980000D01*
D26*
X61696600Y-85217200D02*
X61696600Y-85090000D01*
D25*
X97764600Y-93980000D02*
X119126000Y-93980000D01*
X62458600Y-84455200D02*
X75564800Y-84455200D01*
X87122000Y-81280000D02*
X87122000Y-92710000D01*
X85090000Y-79248000D02*
X87122000Y-81280000D01*
D27*
%TO.N,/N*%
X26898600Y-75311200D02*
X42138600Y-90551200D01*
X37566600Y-26035200D02*
X40106600Y-23495200D01*
X40106600Y-23495200D02*
X45948600Y-23495200D01*
X25617100Y-55134200D02*
X25617100Y-62345700D01*
X42138600Y-90551200D02*
X42138600Y-95453200D01*
X26898600Y-63627200D02*
X26898600Y-75311200D01*
X37506600Y-44261200D02*
X37566600Y-44201200D01*
X37566600Y-44201200D02*
X37566600Y-26035200D01*
X28796600Y-51954700D02*
X25617100Y-55134200D01*
X25617100Y-62345700D02*
X26898600Y-63627200D01*
D26*
%TO.N,/OneWire*%
X109220000Y-68580000D02*
X114300000Y-63500000D01*
X114300000Y-63500000D02*
X116814600Y-63500000D01*
X109220000Y-85852000D02*
X109220000Y-68580000D01*
D27*
%TO.N,Earth_Protective*%
X43916600Y-51834700D02*
X43796600Y-51954700D01*
X44050600Y-59043700D02*
X51536600Y-66529700D01*
X44050600Y-59043700D02*
X43916600Y-58909700D01*
X51536600Y-66529700D02*
X51536600Y-91135200D01*
X45948600Y-33655200D02*
X45948600Y-37719200D01*
X51536600Y-91135200D02*
X47218600Y-95453200D01*
X43916600Y-39751200D02*
X43916600Y-51834700D01*
X43916600Y-58909700D02*
X43916600Y-52074700D01*
X45948600Y-37719200D02*
X43916600Y-39751200D01*
X43916600Y-52074700D02*
X43796600Y-51954700D01*
D25*
%TO.N,Net-(R5-Pad1)*%
X58928000Y-86868000D02*
X75539800Y-86868000D01*
X81635800Y-80772000D02*
X83820000Y-80772000D01*
X75539800Y-86868000D02*
X81635800Y-80772000D01*
D27*
%TO.N,Net-(F2-Pad2)*%
X49758600Y-49634600D02*
X49660000Y-49733200D01*
X45948600Y-28575200D02*
X49758600Y-32385200D01*
X49758600Y-32385200D02*
X49758600Y-49634600D01*
%TD*%
%TA.AperFunction,Conductor*%
%TO.N,GND*%
G36*
X85027733Y-80614305D02*
G01*
X85043286Y-80627521D01*
X86076595Y-81660829D01*
X86110620Y-81723141D01*
X86113500Y-81749924D01*
X86113500Y-92650127D01*
X86112810Y-92663297D01*
X86108645Y-92702925D01*
X86113218Y-92753173D01*
X86113500Y-92757207D01*
X86113500Y-92759769D01*
X86113800Y-92762827D01*
X86113800Y-92762831D01*
X86117895Y-92804596D01*
X86117977Y-92805471D01*
X86126570Y-92899888D01*
X86127573Y-92903297D01*
X86127920Y-92906833D01*
X86129700Y-92912727D01*
X86155334Y-92997630D01*
X86155561Y-92998390D01*
X86182410Y-93089619D01*
X86184058Y-93092772D01*
X86185084Y-93096169D01*
X86187971Y-93101599D01*
X86187972Y-93101601D01*
X86229669Y-93180022D01*
X86230016Y-93180681D01*
X86274040Y-93264890D01*
X86276265Y-93267658D01*
X86277934Y-93270796D01*
X86281831Y-93275574D01*
X86337941Y-93344372D01*
X86338494Y-93345056D01*
X86394102Y-93414218D01*
X86394108Y-93414224D01*
X86397968Y-93419025D01*
X86400689Y-93421308D01*
X86402935Y-93424062D01*
X86407682Y-93427989D01*
X86407684Y-93427991D01*
X86435949Y-93451373D01*
X86476136Y-93484619D01*
X86476671Y-93485065D01*
X86549474Y-93546154D01*
X86552589Y-93547866D01*
X86555325Y-93550130D01*
X86562605Y-93554066D01*
X86638865Y-93595300D01*
X86639603Y-93595702D01*
X86722787Y-93641433D01*
X86726170Y-93642506D01*
X86729299Y-93644198D01*
X86820002Y-93672275D01*
X86820842Y-93672538D01*
X86905435Y-93699373D01*
X86905439Y-93699374D01*
X86911306Y-93701235D01*
X86914837Y-93701631D01*
X86918232Y-93702682D01*
X87012707Y-93712611D01*
X87013421Y-93712689D01*
X87065227Y-93718500D01*
X87067800Y-93718500D01*
X87071776Y-93718820D01*
X87108796Y-93722711D01*
X87108798Y-93722711D01*
X87114925Y-93723355D01*
X87162570Y-93719019D01*
X87173990Y-93718500D01*
X88900000Y-93718500D01*
X88900000Y-104012700D01*
X59929982Y-104012700D01*
X59861861Y-103992698D01*
X59815368Y-103939042D01*
X59805264Y-103868768D01*
X59813394Y-103838918D01*
X63959346Y-93722796D01*
X66040000Y-88646000D01*
X66040000Y-88002500D01*
X66060002Y-87934379D01*
X66113658Y-87887886D01*
X66166000Y-87876500D01*
X75477957Y-87876500D01*
X75491564Y-87877237D01*
X75523062Y-87880659D01*
X75523067Y-87880659D01*
X75529188Y-87881324D01*
X75555438Y-87879027D01*
X75579188Y-87876950D01*
X75584014Y-87876621D01*
X75586486Y-87876500D01*
X75589569Y-87876500D01*
X75601538Y-87875326D01*
X75632306Y-87872310D01*
X75633619Y-87872188D01*
X75677884Y-87868315D01*
X75726213Y-87864087D01*
X75731332Y-87862600D01*
X75736633Y-87862080D01*
X75825634Y-87835209D01*
X75826767Y-87834874D01*
X75910214Y-87810630D01*
X75910218Y-87810628D01*
X75916136Y-87808909D01*
X75920868Y-87806456D01*
X75925969Y-87804916D01*
X75936281Y-87799433D01*
X76008060Y-87761269D01*
X76009226Y-87760657D01*
X76086253Y-87720729D01*
X76091726Y-87717892D01*
X76095889Y-87714569D01*
X76100596Y-87712066D01*
X76172718Y-87653245D01*
X76173574Y-87652554D01*
X76212773Y-87621262D01*
X76215277Y-87618758D01*
X76215995Y-87618116D01*
X76220328Y-87614415D01*
X76253862Y-87587065D01*
X76283088Y-87551737D01*
X76291077Y-87542958D01*
X82016629Y-81817405D01*
X82078941Y-81783379D01*
X82105724Y-81780500D01*
X83869769Y-81780500D01*
X83872825Y-81780200D01*
X83872832Y-81780200D01*
X83931340Y-81774463D01*
X84016833Y-81766080D01*
X84022734Y-81764298D01*
X84022736Y-81764298D01*
X84096053Y-81742162D01*
X84206169Y-81708916D01*
X84380796Y-81616066D01*
X84467062Y-81545709D01*
X84529287Y-81494960D01*
X84529290Y-81494957D01*
X84534062Y-81491065D01*
X84537991Y-81486316D01*
X84656201Y-81343425D01*
X84656203Y-81343421D01*
X84660130Y-81338675D01*
X84754198Y-81164701D01*
X84812682Y-80975768D01*
X84820126Y-80904940D01*
X84832711Y-80785204D01*
X84832711Y-80785202D01*
X84833355Y-80779075D01*
X84828710Y-80728036D01*
X84842455Y-80658383D01*
X84891676Y-80607218D01*
X84960745Y-80590787D01*
X85027733Y-80614305D01*
G37*
%TD.AperFunction*%
%TA.AperFunction,Conductor*%
G36*
X88900000Y-91701500D02*
G01*
X88256500Y-91701500D01*
X88188379Y-91681498D01*
X88141886Y-91627842D01*
X88130500Y-91575500D01*
X88130500Y-81341843D01*
X88131237Y-81328236D01*
X88134659Y-81296738D01*
X88134659Y-81296733D01*
X88135324Y-81290612D01*
X88130950Y-81240612D01*
X88130621Y-81235786D01*
X88130500Y-81233314D01*
X88130500Y-81230231D01*
X88129326Y-81218262D01*
X88126310Y-81187494D01*
X88126188Y-81186181D01*
X88118623Y-81099718D01*
X88118087Y-81093587D01*
X88116600Y-81088468D01*
X88116080Y-81083167D01*
X88089209Y-80994166D01*
X88088874Y-80993033D01*
X88064630Y-80909586D01*
X88064628Y-80909582D01*
X88062909Y-80903664D01*
X88060456Y-80898932D01*
X88058916Y-80893831D01*
X88015269Y-80811740D01*
X88014657Y-80810574D01*
X87974729Y-80733547D01*
X87971892Y-80728074D01*
X87968569Y-80723911D01*
X87966066Y-80719204D01*
X87907245Y-80647082D01*
X87906554Y-80646226D01*
X87875262Y-80607027D01*
X87872758Y-80604523D01*
X87872116Y-80603805D01*
X87868415Y-80599472D01*
X87841065Y-80565938D01*
X87805737Y-80536712D01*
X87796958Y-80528723D01*
X85846855Y-78578621D01*
X85837753Y-78568478D01*
X85817897Y-78543782D01*
X85814032Y-78538975D01*
X85775578Y-78506708D01*
X85771931Y-78503528D01*
X85770119Y-78501885D01*
X85767925Y-78499691D01*
X85734651Y-78472358D01*
X85733853Y-78471696D01*
X85662526Y-78411846D01*
X85657856Y-78409278D01*
X85653739Y-78405897D01*
X85571914Y-78362023D01*
X85570755Y-78361394D01*
X85494619Y-78319538D01*
X85494611Y-78319535D01*
X85489213Y-78316567D01*
X85484131Y-78314955D01*
X85479437Y-78312438D01*
X85390469Y-78285238D01*
X85389441Y-78284918D01*
X85300694Y-78256765D01*
X85295398Y-78256171D01*
X85290302Y-78254613D01*
X85197743Y-78245210D01*
X85196607Y-78245089D01*
X85162992Y-78241319D01*
X85150270Y-78239892D01*
X85150266Y-78239892D01*
X85146773Y-78239500D01*
X85143246Y-78239500D01*
X85142261Y-78239445D01*
X85136581Y-78238998D01*
X85107175Y-78236011D01*
X85099663Y-78235248D01*
X85099661Y-78235248D01*
X85093538Y-78234626D01*
X85051259Y-78238623D01*
X85047891Y-78238941D01*
X85036033Y-78239500D01*
X80833843Y-78239500D01*
X80820236Y-78238763D01*
X80788738Y-78235341D01*
X80788733Y-78235341D01*
X80782612Y-78234676D01*
X80756362Y-78236973D01*
X80732612Y-78239050D01*
X80727786Y-78239379D01*
X80725314Y-78239500D01*
X80722231Y-78239500D01*
X80710262Y-78240674D01*
X80679494Y-78243690D01*
X80678181Y-78243812D01*
X80633916Y-78247685D01*
X80585587Y-78251913D01*
X80580468Y-78253400D01*
X80575167Y-78253920D01*
X80486166Y-78280791D01*
X80485033Y-78281126D01*
X80401586Y-78305370D01*
X80401582Y-78305372D01*
X80395664Y-78307091D01*
X80390932Y-78309544D01*
X80385831Y-78311084D01*
X80380388Y-78313978D01*
X80303740Y-78354731D01*
X80302574Y-78355343D01*
X80225547Y-78395271D01*
X80220074Y-78398108D01*
X80215911Y-78401431D01*
X80211204Y-78403934D01*
X80139082Y-78462755D01*
X80138226Y-78463446D01*
X80099027Y-78494738D01*
X80096523Y-78497242D01*
X80095805Y-78497884D01*
X80091472Y-78501585D01*
X80057938Y-78528935D01*
X80054011Y-78533682D01*
X80054009Y-78533684D01*
X80028713Y-78564262D01*
X80020723Y-78573042D01*
X77599470Y-80994296D01*
X75183971Y-83409795D01*
X75121659Y-83443821D01*
X75094876Y-83446700D01*
X66166000Y-83446700D01*
X66097879Y-83426698D01*
X66051386Y-83373042D01*
X66040000Y-83320700D01*
X66040000Y-56006000D01*
X66060002Y-55937879D01*
X66113658Y-55891386D01*
X66166000Y-55880000D01*
X88900000Y-55880000D01*
X88900000Y-91701500D01*
G37*
%TD.AperFunction*%
%TD*%
%TA.AperFunction,Conductor*%
%TO.N,GND*%
G36*
X121862121Y-35580002D02*
G01*
X121908614Y-35633658D01*
X121920000Y-35686000D01*
X121920000Y-103886700D01*
X121899998Y-103954821D01*
X121846342Y-104001314D01*
X121794000Y-104012700D01*
X88900000Y-104012700D01*
X88900000Y-101605903D01*
X117270743Y-101605903D01*
X117308268Y-101890934D01*
X117384129Y-102168236D01*
X117496923Y-102432676D01*
X117644561Y-102679361D01*
X117824313Y-102903728D01*
X118032851Y-103101623D01*
X118266317Y-103269386D01*
X118270112Y-103271395D01*
X118270113Y-103271396D01*
X118291869Y-103282915D01*
X118520392Y-103403912D01*
X118790373Y-103502711D01*
X119071264Y-103563955D01*
X119099841Y-103566204D01*
X119294282Y-103581507D01*
X119294291Y-103581507D01*
X119296739Y-103581700D01*
X119452271Y-103581700D01*
X119454407Y-103581554D01*
X119454418Y-103581554D01*
X119662548Y-103567365D01*
X119662554Y-103567364D01*
X119666825Y-103567073D01*
X119671020Y-103566204D01*
X119671022Y-103566204D01*
X119807583Y-103537924D01*
X119948342Y-103508774D01*
X120219343Y-103412807D01*
X120474812Y-103280950D01*
X120478313Y-103278489D01*
X120478317Y-103278487D01*
X120592417Y-103198296D01*
X120710023Y-103115641D01*
X120920622Y-102919940D01*
X121102713Y-102697468D01*
X121252927Y-102452342D01*
X121368483Y-102189098D01*
X121447244Y-101912606D01*
X121487751Y-101627984D01*
X121487845Y-101610151D01*
X121489235Y-101344783D01*
X121489235Y-101344776D01*
X121489257Y-101340497D01*
X121451732Y-101055466D01*
X121375871Y-100778164D01*
X121263077Y-100513724D01*
X121115439Y-100267039D01*
X120935687Y-100042672D01*
X120727149Y-99844777D01*
X120493683Y-99677014D01*
X120471843Y-99665450D01*
X120448654Y-99653172D01*
X120239608Y-99542488D01*
X119969627Y-99443689D01*
X119688736Y-99382445D01*
X119657685Y-99380001D01*
X119465718Y-99364893D01*
X119465709Y-99364893D01*
X119463261Y-99364700D01*
X119307729Y-99364700D01*
X119305593Y-99364846D01*
X119305582Y-99364846D01*
X119097452Y-99379035D01*
X119097446Y-99379036D01*
X119093175Y-99379327D01*
X119088980Y-99380196D01*
X119088978Y-99380196D01*
X118952416Y-99408477D01*
X118811658Y-99437626D01*
X118540657Y-99533593D01*
X118285188Y-99665450D01*
X118281687Y-99667911D01*
X118281683Y-99667913D01*
X118271594Y-99675004D01*
X118049977Y-99830759D01*
X117839378Y-100026460D01*
X117657287Y-100248932D01*
X117507073Y-100494058D01*
X117391517Y-100757302D01*
X117312756Y-101033794D01*
X117272249Y-101318416D01*
X117272227Y-101322705D01*
X117272226Y-101322712D01*
X117270765Y-101601617D01*
X117270743Y-101605903D01*
X88900000Y-101605903D01*
X88900000Y-93718500D01*
X96024674Y-93718500D01*
X96092795Y-93738502D01*
X96113769Y-93755404D01*
X97007749Y-94649383D01*
X97016851Y-94659527D01*
X97040568Y-94689025D01*
X97079056Y-94721320D01*
X97082675Y-94724478D01*
X97084490Y-94726124D01*
X97086675Y-94728309D01*
X97089055Y-94730264D01*
X97089065Y-94730273D01*
X97119836Y-94755549D01*
X97120851Y-94756391D01*
X97192074Y-94816154D01*
X97196748Y-94818723D01*
X97200861Y-94822102D01*
X97206298Y-94825017D01*
X97206299Y-94825018D01*
X97282647Y-94865955D01*
X97283777Y-94866568D01*
X97365387Y-94911433D01*
X97370469Y-94913045D01*
X97375163Y-94915562D01*
X97464131Y-94942762D01*
X97465159Y-94943082D01*
X97553906Y-94971235D01*
X97559202Y-94971829D01*
X97564298Y-94973387D01*
X97656857Y-94982790D01*
X97657993Y-94982911D01*
X97691608Y-94986681D01*
X97704330Y-94988108D01*
X97704334Y-94988108D01*
X97707827Y-94988500D01*
X97711354Y-94988500D01*
X97712339Y-94988555D01*
X97718019Y-94989002D01*
X97747425Y-94991989D01*
X97754937Y-94992752D01*
X97754939Y-94992752D01*
X97761062Y-94993374D01*
X97806708Y-94989059D01*
X97818567Y-94988500D01*
X117636246Y-94988500D01*
X117704367Y-95008502D01*
X117750860Y-95062158D01*
X117754228Y-95070270D01*
X117775385Y-95126705D01*
X117862739Y-95243261D01*
X117979295Y-95330615D01*
X118115684Y-95381745D01*
X118177866Y-95388500D01*
X120074134Y-95388500D01*
X120136316Y-95381745D01*
X120272705Y-95330615D01*
X120389261Y-95243261D01*
X120476615Y-95126705D01*
X120527745Y-94990316D01*
X120534500Y-94928134D01*
X120534500Y-93031866D01*
X120527745Y-92969684D01*
X120476615Y-92833295D01*
X120389261Y-92716739D01*
X120272705Y-92629385D01*
X120264296Y-92626233D01*
X120264295Y-92626232D01*
X120205804Y-92604305D01*
X120149039Y-92561664D01*
X120124339Y-92495103D01*
X120139546Y-92425754D01*
X120161093Y-92397073D01*
X120198636Y-92359660D01*
X120198640Y-92359655D01*
X120202303Y-92356005D01*
X120337458Y-92167917D01*
X120384641Y-92072450D01*
X120437784Y-91964922D01*
X120437785Y-91964920D01*
X120440078Y-91960280D01*
X120507408Y-91738671D01*
X120537640Y-91509041D01*
X120539327Y-91440000D01*
X120533032Y-91363434D01*
X120520773Y-91214318D01*
X120520772Y-91214312D01*
X120520349Y-91209167D01*
X120463925Y-90984533D01*
X120461866Y-90979797D01*
X120373630Y-90776868D01*
X120373628Y-90776865D01*
X120371570Y-90772131D01*
X120245764Y-90577665D01*
X120089887Y-90406358D01*
X120085836Y-90403159D01*
X120085832Y-90403155D01*
X119909750Y-90264095D01*
X119868687Y-90206178D01*
X119865455Y-90135255D01*
X119901080Y-90073844D01*
X119914671Y-90062637D01*
X120038243Y-89974494D01*
X120202303Y-89811005D01*
X120337458Y-89622917D01*
X120384641Y-89527450D01*
X120437784Y-89419922D01*
X120437785Y-89419920D01*
X120440078Y-89415280D01*
X120507408Y-89193671D01*
X120537640Y-88964041D01*
X120539327Y-88895000D01*
X120533032Y-88818434D01*
X120520773Y-88669318D01*
X120520772Y-88669312D01*
X120520349Y-88664167D01*
X120463925Y-88439533D01*
X120461866Y-88434797D01*
X120373630Y-88231868D01*
X120373628Y-88231865D01*
X120371570Y-88227131D01*
X120245764Y-88032665D01*
X120155486Y-87933450D01*
X120124434Y-87869605D01*
X120132829Y-87799106D01*
X120178005Y-87744338D01*
X120204449Y-87730669D01*
X120264054Y-87708324D01*
X120279649Y-87699786D01*
X120381724Y-87623285D01*
X120394285Y-87610724D01*
X120470786Y-87508649D01*
X120479324Y-87493054D01*
X120524478Y-87372606D01*
X120528105Y-87357351D01*
X120533631Y-87306486D01*
X120534000Y-87299672D01*
X120534000Y-86627115D01*
X120529525Y-86611876D01*
X120528135Y-86610671D01*
X120520452Y-86609000D01*
X117736116Y-86609000D01*
X117720877Y-86613475D01*
X117719672Y-86614865D01*
X117718001Y-86622548D01*
X117718001Y-87299669D01*
X117718371Y-87306490D01*
X117723895Y-87357352D01*
X117727521Y-87372604D01*
X117772676Y-87493054D01*
X117781214Y-87508649D01*
X117857715Y-87610724D01*
X117870276Y-87623285D01*
X117972351Y-87699786D01*
X117987946Y-87708324D01*
X118047540Y-87730665D01*
X118104304Y-87773307D01*
X118129004Y-87839868D01*
X118113796Y-87909217D01*
X118094404Y-87935698D01*
X118027639Y-88005564D01*
X118024725Y-88009836D01*
X118024724Y-88009837D01*
X118009152Y-88032665D01*
X117897119Y-88196899D01*
X117799602Y-88406981D01*
X117737707Y-88630169D01*
X117713095Y-88860469D01*
X117713392Y-88865622D01*
X117713392Y-88865625D01*
X117719067Y-88964041D01*
X117726427Y-89091697D01*
X117727564Y-89096743D01*
X117727565Y-89096749D01*
X117759741Y-89239523D01*
X117777346Y-89317642D01*
X117779288Y-89322424D01*
X117779289Y-89322428D01*
X117862540Y-89527450D01*
X117864484Y-89532237D01*
X117985501Y-89729719D01*
X118137147Y-89904784D01*
X118315349Y-90052730D01*
X118327253Y-90059686D01*
X118375975Y-90111324D01*
X118389046Y-90181107D01*
X118362314Y-90246879D01*
X118339334Y-90269233D01*
X118187655Y-90383117D01*
X118027639Y-90550564D01*
X118024725Y-90554836D01*
X118024724Y-90554837D01*
X118009152Y-90577665D01*
X117897119Y-90741899D01*
X117799602Y-90951981D01*
X117737707Y-91175169D01*
X117713095Y-91405469D01*
X117713392Y-91410622D01*
X117713392Y-91410625D01*
X117719067Y-91509041D01*
X117726427Y-91636697D01*
X117727564Y-91641743D01*
X117727565Y-91641749D01*
X117751303Y-91747079D01*
X117777346Y-91862642D01*
X117779288Y-91867424D01*
X117779289Y-91867428D01*
X117820415Y-91968709D01*
X117864484Y-92077237D01*
X117985501Y-92274719D01*
X117988882Y-92278622D01*
X118097304Y-92403788D01*
X118126786Y-92468373D01*
X118116671Y-92538646D01*
X118070170Y-92592294D01*
X118046296Y-92604267D01*
X117990515Y-92625179D01*
X117979295Y-92629385D01*
X117862739Y-92716739D01*
X117775385Y-92833295D01*
X117772233Y-92841703D01*
X117754228Y-92889730D01*
X117711586Y-92946495D01*
X117645024Y-92971194D01*
X117636246Y-92971500D01*
X98234526Y-92971500D01*
X98166405Y-92951498D01*
X98145431Y-92934596D01*
X97251451Y-92040617D01*
X97242349Y-92030473D01*
X97222497Y-92005782D01*
X97218632Y-92000975D01*
X97180178Y-91968708D01*
X97176531Y-91965528D01*
X97174719Y-91963885D01*
X97172525Y-91961691D01*
X97139251Y-91934358D01*
X97138453Y-91933696D01*
X97067126Y-91873846D01*
X97062456Y-91871278D01*
X97058339Y-91867897D01*
X96976514Y-91824023D01*
X96975355Y-91823394D01*
X96899219Y-91781538D01*
X96899211Y-91781535D01*
X96893813Y-91778567D01*
X96888731Y-91776955D01*
X96884037Y-91774438D01*
X96795069Y-91747238D01*
X96794041Y-91746918D01*
X96705294Y-91718765D01*
X96699998Y-91718171D01*
X96694902Y-91716613D01*
X96602343Y-91707210D01*
X96601207Y-91707089D01*
X96567592Y-91703319D01*
X96554870Y-91701892D01*
X96554866Y-91701892D01*
X96551373Y-91701500D01*
X96547846Y-91701500D01*
X96546861Y-91701445D01*
X96541181Y-91700998D01*
X96511775Y-91698011D01*
X96504263Y-91697248D01*
X96504261Y-91697248D01*
X96498138Y-91696626D01*
X96455859Y-91700623D01*
X96452491Y-91700941D01*
X96440633Y-91701500D01*
X88900000Y-91701500D01*
X88900000Y-85852000D01*
X108306496Y-85852000D01*
X108326458Y-86041928D01*
X108385473Y-86223556D01*
X108480960Y-86388944D01*
X108608747Y-86530866D01*
X108763248Y-86643118D01*
X108769276Y-86645802D01*
X108769278Y-86645803D01*
X108931681Y-86718109D01*
X108937712Y-86720794D01*
X109031113Y-86740647D01*
X109118056Y-86759128D01*
X109118061Y-86759128D01*
X109124513Y-86760500D01*
X109315487Y-86760500D01*
X109321939Y-86759128D01*
X109321944Y-86759128D01*
X109408887Y-86740647D01*
X109502288Y-86720794D01*
X109508319Y-86718109D01*
X109670722Y-86645803D01*
X109670724Y-86645802D01*
X109676752Y-86643118D01*
X109831253Y-86530866D01*
X109959040Y-86388944D01*
X110054527Y-86223556D01*
X110113542Y-86041928D01*
X110133504Y-85852000D01*
X110113542Y-85662072D01*
X110054527Y-85480444D01*
X109995381Y-85378000D01*
X109978500Y-85315001D01*
X109978500Y-83785469D01*
X117713095Y-83785469D01*
X117713392Y-83790622D01*
X117713392Y-83790625D01*
X117719067Y-83889041D01*
X117726427Y-84016697D01*
X117727564Y-84021743D01*
X117727565Y-84021749D01*
X117759741Y-84164523D01*
X117777346Y-84242642D01*
X117779288Y-84247424D01*
X117779289Y-84247428D01*
X117862540Y-84452450D01*
X117864484Y-84457237D01*
X117985501Y-84654719D01*
X117988882Y-84658622D01*
X118094384Y-84780417D01*
X118123866Y-84845002D01*
X118113751Y-84915274D01*
X118067250Y-84968923D01*
X118043376Y-84980896D01*
X117987946Y-85001676D01*
X117972351Y-85010214D01*
X117870276Y-85086715D01*
X117857715Y-85099276D01*
X117781214Y-85201351D01*
X117772676Y-85216946D01*
X117727522Y-85337394D01*
X117723895Y-85352649D01*
X117718369Y-85403514D01*
X117718000Y-85410328D01*
X117718000Y-86082885D01*
X117722475Y-86098124D01*
X117723865Y-86099329D01*
X117731548Y-86101000D01*
X120515884Y-86101000D01*
X120531123Y-86096525D01*
X120532328Y-86095135D01*
X120533999Y-86087452D01*
X120533999Y-85410331D01*
X120533629Y-85403510D01*
X120528105Y-85352648D01*
X120524479Y-85337396D01*
X120479324Y-85216946D01*
X120470786Y-85201351D01*
X120394285Y-85099276D01*
X120381724Y-85086715D01*
X120279649Y-85010214D01*
X120264056Y-85001677D01*
X120209059Y-84981059D01*
X120152295Y-84938417D01*
X120127596Y-84871855D01*
X120142804Y-84802506D01*
X120164350Y-84773826D01*
X120198642Y-84739653D01*
X120202303Y-84736005D01*
X120337458Y-84547917D01*
X120384641Y-84452450D01*
X120437784Y-84344922D01*
X120437785Y-84344920D01*
X120440078Y-84340280D01*
X120507408Y-84118671D01*
X120537640Y-83889041D01*
X120539327Y-83820000D01*
X120533032Y-83743434D01*
X120520773Y-83594318D01*
X120520772Y-83594312D01*
X120520349Y-83589167D01*
X120463925Y-83364533D01*
X120461866Y-83359797D01*
X120373630Y-83156868D01*
X120373628Y-83156865D01*
X120371570Y-83152131D01*
X120245764Y-82957665D01*
X120155486Y-82858450D01*
X120124434Y-82794605D01*
X120132829Y-82724106D01*
X120178005Y-82669338D01*
X120204449Y-82655669D01*
X120264054Y-82633324D01*
X120279649Y-82624786D01*
X120381724Y-82548285D01*
X120394285Y-82535724D01*
X120470786Y-82433649D01*
X120479324Y-82418054D01*
X120524478Y-82297606D01*
X120528105Y-82282351D01*
X120533631Y-82231486D01*
X120534000Y-82224672D01*
X120534000Y-81552115D01*
X120529525Y-81536876D01*
X120528135Y-81535671D01*
X120520452Y-81534000D01*
X117736116Y-81534000D01*
X117720877Y-81538475D01*
X117719672Y-81539865D01*
X117718001Y-81547548D01*
X117718001Y-82224669D01*
X117718371Y-82231490D01*
X117723895Y-82282352D01*
X117727521Y-82297604D01*
X117772676Y-82418054D01*
X117781214Y-82433649D01*
X117857715Y-82535724D01*
X117870276Y-82548285D01*
X117972351Y-82624786D01*
X117987946Y-82633324D01*
X118047540Y-82655665D01*
X118104304Y-82698307D01*
X118129004Y-82764868D01*
X118113796Y-82834217D01*
X118094404Y-82860698D01*
X118027639Y-82930564D01*
X118024725Y-82934836D01*
X118024724Y-82934837D01*
X118009152Y-82957665D01*
X117897119Y-83121899D01*
X117799602Y-83331981D01*
X117737707Y-83555169D01*
X117713095Y-83785469D01*
X109978500Y-83785469D01*
X109978500Y-78700469D01*
X117713095Y-78700469D01*
X117713392Y-78705622D01*
X117713392Y-78705625D01*
X117719067Y-78804041D01*
X117726427Y-78931697D01*
X117727564Y-78936743D01*
X117727565Y-78936749D01*
X117759741Y-79079523D01*
X117777346Y-79157642D01*
X117779288Y-79162424D01*
X117779289Y-79162428D01*
X117862540Y-79367450D01*
X117864484Y-79372237D01*
X117985501Y-79569719D01*
X117988882Y-79573622D01*
X118100923Y-79702966D01*
X118130405Y-79767551D01*
X118120290Y-79837824D01*
X118073789Y-79891472D01*
X118049914Y-79903445D01*
X117987948Y-79926675D01*
X117972351Y-79935214D01*
X117870276Y-80011715D01*
X117857715Y-80024276D01*
X117781214Y-80126351D01*
X117772676Y-80141946D01*
X117727522Y-80262394D01*
X117723895Y-80277649D01*
X117718369Y-80328514D01*
X117718000Y-80335328D01*
X117718000Y-81007885D01*
X117722475Y-81023124D01*
X117723865Y-81024329D01*
X117731548Y-81026000D01*
X120515884Y-81026000D01*
X120531123Y-81021525D01*
X120532328Y-81020135D01*
X120533999Y-81012452D01*
X120533999Y-80335331D01*
X120533629Y-80328510D01*
X120528105Y-80277648D01*
X120524479Y-80262396D01*
X120479324Y-80141946D01*
X120470786Y-80126351D01*
X120394285Y-80024276D01*
X120381724Y-80011715D01*
X120279649Y-79935214D01*
X120264052Y-79926675D01*
X120201769Y-79903326D01*
X120145004Y-79860685D01*
X120120304Y-79794123D01*
X120135511Y-79724774D01*
X120157058Y-79696094D01*
X120198636Y-79654660D01*
X120198640Y-79654655D01*
X120202303Y-79651005D01*
X120337458Y-79462917D01*
X120384641Y-79367450D01*
X120437784Y-79259922D01*
X120437785Y-79259920D01*
X120440078Y-79255280D01*
X120507408Y-79033671D01*
X120537640Y-78804041D01*
X120539327Y-78735000D01*
X120533032Y-78658434D01*
X120520773Y-78509318D01*
X120520772Y-78509312D01*
X120520349Y-78504167D01*
X120463925Y-78279533D01*
X120461866Y-78274797D01*
X120373630Y-78071868D01*
X120373628Y-78071865D01*
X120371570Y-78067131D01*
X120245764Y-77872665D01*
X120155486Y-77773450D01*
X120124434Y-77709605D01*
X120132829Y-77639106D01*
X120178005Y-77584338D01*
X120204449Y-77570669D01*
X120264054Y-77548324D01*
X120279649Y-77539786D01*
X120381724Y-77463285D01*
X120394285Y-77450724D01*
X120470786Y-77348649D01*
X120479324Y-77333054D01*
X120524478Y-77212606D01*
X120528105Y-77197351D01*
X120533631Y-77146486D01*
X120534000Y-77139672D01*
X120534000Y-76467115D01*
X120529525Y-76451876D01*
X120528135Y-76450671D01*
X120520452Y-76449000D01*
X117736116Y-76449000D01*
X117720877Y-76453475D01*
X117719672Y-76454865D01*
X117718001Y-76462548D01*
X117718001Y-77139669D01*
X117718371Y-77146490D01*
X117723895Y-77197352D01*
X117727521Y-77212604D01*
X117772676Y-77333054D01*
X117781214Y-77348649D01*
X117857715Y-77450724D01*
X117870276Y-77463285D01*
X117972351Y-77539786D01*
X117987946Y-77548324D01*
X118047540Y-77570665D01*
X118104304Y-77613307D01*
X118129004Y-77679868D01*
X118113796Y-77749217D01*
X118094404Y-77775698D01*
X118027639Y-77845564D01*
X118024725Y-77849836D01*
X118024724Y-77849837D01*
X118009152Y-77872665D01*
X117897119Y-78036899D01*
X117799602Y-78246981D01*
X117737707Y-78470169D01*
X117713095Y-78700469D01*
X109978500Y-78700469D01*
X109978500Y-75922885D01*
X117718000Y-75922885D01*
X117722475Y-75938124D01*
X117723865Y-75939329D01*
X117731548Y-75941000D01*
X118853885Y-75941000D01*
X118869124Y-75936525D01*
X118870329Y-75935135D01*
X118872000Y-75927452D01*
X118872000Y-75922885D01*
X119380000Y-75922885D01*
X119384475Y-75938124D01*
X119385865Y-75939329D01*
X119393548Y-75941000D01*
X120515884Y-75941000D01*
X120531123Y-75936525D01*
X120532328Y-75935135D01*
X120533999Y-75927452D01*
X120533999Y-75250331D01*
X120533629Y-75243510D01*
X120528105Y-75192648D01*
X120524479Y-75177396D01*
X120479324Y-75056946D01*
X120470786Y-75041351D01*
X120394285Y-74939276D01*
X120381724Y-74926715D01*
X120279649Y-74850214D01*
X120264054Y-74841676D01*
X120143606Y-74796522D01*
X120128351Y-74792895D01*
X120077486Y-74787369D01*
X120070672Y-74787000D01*
X119398115Y-74787000D01*
X119382876Y-74791475D01*
X119381671Y-74792865D01*
X119380000Y-74800548D01*
X119380000Y-75922885D01*
X118872000Y-75922885D01*
X118872000Y-74805116D01*
X118867525Y-74789877D01*
X118866135Y-74788672D01*
X118858452Y-74787001D01*
X118181331Y-74787001D01*
X118174510Y-74787371D01*
X118123648Y-74792895D01*
X118108396Y-74796521D01*
X117987946Y-74841676D01*
X117972351Y-74850214D01*
X117870276Y-74926715D01*
X117857715Y-74939276D01*
X117781214Y-75041351D01*
X117772676Y-75056946D01*
X117727522Y-75177394D01*
X117723895Y-75192649D01*
X117718369Y-75243514D01*
X117718000Y-75250328D01*
X117718000Y-75922885D01*
X109978500Y-75922885D01*
X109978500Y-70169654D01*
X115590218Y-70169654D01*
X115597273Y-70179627D01*
X115628279Y-70205551D01*
X115635198Y-70210579D01*
X115859872Y-70351515D01*
X115867407Y-70355556D01*
X116109120Y-70464694D01*
X116117151Y-70467680D01*
X116371432Y-70543002D01*
X116379784Y-70544869D01*
X116641940Y-70584984D01*
X116650474Y-70585700D01*
X116915645Y-70589867D01*
X116924196Y-70589418D01*
X117187483Y-70557557D01*
X117195884Y-70555955D01*
X117452424Y-70488653D01*
X117460526Y-70485926D01*
X117705549Y-70384434D01*
X117713217Y-70380628D01*
X117942198Y-70246822D01*
X117949279Y-70242009D01*
X118029255Y-70179301D01*
X118037725Y-70167442D01*
X118031208Y-70155818D01*
X116827412Y-68952022D01*
X116813468Y-68944408D01*
X116811635Y-68944539D01*
X116805020Y-68948790D01*
X115597510Y-70156300D01*
X115590218Y-70169654D01*
X109978500Y-70169654D01*
X109978500Y-68946371D01*
X109998502Y-68878250D01*
X110015405Y-68857276D01*
X110309477Y-68563204D01*
X114802265Y-68563204D01*
X114817532Y-68827969D01*
X114818605Y-68836470D01*
X114869665Y-69096722D01*
X114871876Y-69104974D01*
X114957784Y-69355894D01*
X114961099Y-69363779D01*
X115080264Y-69600713D01*
X115084620Y-69608079D01*
X115213947Y-69796250D01*
X115224201Y-69804594D01*
X115237942Y-69797448D01*
X116442578Y-68592812D01*
X116448956Y-68581132D01*
X117179008Y-68581132D01*
X117179139Y-68582965D01*
X117183390Y-68589580D01*
X118390330Y-69796520D01*
X118402539Y-69803187D01*
X118414039Y-69794497D01*
X118511431Y-69661913D01*
X118516018Y-69654685D01*
X118642562Y-69421621D01*
X118646130Y-69413827D01*
X118739871Y-69165750D01*
X118742348Y-69157544D01*
X118801554Y-68899038D01*
X118802894Y-68890577D01*
X118826631Y-68624616D01*
X118826877Y-68619677D01*
X118827266Y-68582485D01*
X118827123Y-68577519D01*
X118808962Y-68311123D01*
X118807801Y-68302649D01*
X118754019Y-68042944D01*
X118751720Y-68034709D01*
X118663188Y-67784705D01*
X118659791Y-67776854D01*
X118538150Y-67541178D01*
X118533722Y-67533866D01*
X118414631Y-67364417D01*
X118404109Y-67356037D01*
X118390721Y-67363089D01*
X117186622Y-68567188D01*
X117179008Y-68581132D01*
X116448956Y-68581132D01*
X116450192Y-68578868D01*
X116450061Y-68577035D01*
X116445810Y-68570420D01*
X115238414Y-67363024D01*
X115226404Y-67356466D01*
X115214664Y-67365434D01*
X115106535Y-67515911D01*
X115102018Y-67523196D01*
X114977925Y-67757567D01*
X114974439Y-67765395D01*
X114883300Y-68014446D01*
X114880911Y-68022670D01*
X114824412Y-68281795D01*
X114823163Y-68290250D01*
X114802354Y-68554653D01*
X114802265Y-68563204D01*
X110309477Y-68563204D01*
X111880181Y-66992500D01*
X115591184Y-66992500D01*
X115597580Y-67003770D01*
X116801788Y-68207978D01*
X116815732Y-68215592D01*
X116817565Y-68215461D01*
X116824180Y-68211210D01*
X118031204Y-67004186D01*
X118038395Y-66991017D01*
X118031073Y-66980780D01*
X117983833Y-66942115D01*
X117976861Y-66937160D01*
X117750722Y-66798582D01*
X117743152Y-66794624D01*
X117500304Y-66688022D01*
X117492244Y-66685120D01*
X117237192Y-66612467D01*
X117228814Y-66610685D01*
X116966256Y-66573318D01*
X116957711Y-66572691D01*
X116692508Y-66571302D01*
X116683974Y-66571839D01*
X116421033Y-66606456D01*
X116412635Y-66608149D01*
X116156838Y-66678127D01*
X116148743Y-66680946D01*
X115904799Y-66784997D01*
X115897177Y-66788881D01*
X115669613Y-66925075D01*
X115662581Y-66929962D01*
X115599653Y-66980377D01*
X115591184Y-66992500D01*
X111880181Y-66992500D01*
X114577276Y-64295405D01*
X114639588Y-64261379D01*
X114666371Y-64258500D01*
X114870159Y-64258500D01*
X114938280Y-64278502D01*
X114982723Y-64327885D01*
X115081760Y-64524799D01*
X115084186Y-64528328D01*
X115084189Y-64528334D01*
X115234443Y-64746953D01*
X115236874Y-64750490D01*
X115421182Y-64953043D01*
X115631275Y-65128707D01*
X115634916Y-65130991D01*
X115859624Y-65271951D01*
X115859628Y-65271953D01*
X115863264Y-65274234D01*
X115931144Y-65304883D01*
X116108945Y-65385164D01*
X116108949Y-65385166D01*
X116112857Y-65386930D01*
X116116977Y-65388150D01*
X116116976Y-65388150D01*
X116371323Y-65463491D01*
X116371327Y-65463492D01*
X116375436Y-65464709D01*
X116379670Y-65465357D01*
X116379675Y-65465358D01*
X116641898Y-65505483D01*
X116641900Y-65505483D01*
X116646140Y-65506132D01*
X116785512Y-65508322D01*
X116915671Y-65510367D01*
X116915677Y-65510367D01*
X116919962Y-65510434D01*
X117191835Y-65477534D01*
X117456727Y-65408041D01*
X117460687Y-65406401D01*
X117460692Y-65406399D01*
X117583232Y-65355641D01*
X117709736Y-65303241D01*
X117946182Y-65165073D01*
X118161689Y-64996094D01*
X118203409Y-64953043D01*
X118349286Y-64802509D01*
X118352269Y-64799431D01*
X118354802Y-64795983D01*
X118354806Y-64795978D01*
X118511857Y-64582178D01*
X118514395Y-64578723D01*
X118541754Y-64528334D01*
X118643018Y-64341830D01*
X118643019Y-64341828D01*
X118645068Y-64338054D01*
X118741869Y-64081877D01*
X118803007Y-63814933D01*
X118827351Y-63542161D01*
X118827793Y-63500000D01*
X118809167Y-63226778D01*
X118753632Y-62958612D01*
X118662217Y-62700465D01*
X118536613Y-62457112D01*
X118526640Y-62442921D01*
X118381608Y-62236562D01*
X118379145Y-62233057D01*
X118192725Y-62032445D01*
X118189410Y-62029731D01*
X118189406Y-62029728D01*
X117984123Y-61861706D01*
X117980805Y-61858990D01*
X117747304Y-61715901D01*
X117743368Y-61714173D01*
X117500473Y-61607549D01*
X117500469Y-61607548D01*
X117496545Y-61605825D01*
X117233166Y-61530800D01*
X117228924Y-61530196D01*
X117228918Y-61530195D01*
X117028434Y-61501662D01*
X116962043Y-61492213D01*
X116818189Y-61491460D01*
X116692477Y-61490802D01*
X116692471Y-61490802D01*
X116688191Y-61490780D01*
X116683947Y-61491339D01*
X116683943Y-61491339D01*
X116564902Y-61507011D01*
X116416678Y-61526525D01*
X116412538Y-61527658D01*
X116412536Y-61527658D01*
X116339608Y-61547609D01*
X116152528Y-61598788D01*
X116148580Y-61600472D01*
X115904582Y-61704546D01*
X115904578Y-61704548D01*
X115900630Y-61706232D01*
X115880725Y-61718145D01*
X115669325Y-61844664D01*
X115669321Y-61844667D01*
X115665643Y-61846868D01*
X115451918Y-62018094D01*
X115263408Y-62216742D01*
X115103602Y-62439136D01*
X115101598Y-62442921D01*
X114979006Y-62674459D01*
X114929453Y-62725302D01*
X114867651Y-62741500D01*
X114367070Y-62741500D01*
X114348120Y-62740067D01*
X114333885Y-62737901D01*
X114333881Y-62737901D01*
X114326651Y-62736801D01*
X114319359Y-62737394D01*
X114319356Y-62737394D01*
X114273982Y-62741085D01*
X114263767Y-62741500D01*
X114255707Y-62741500D01*
X114252073Y-62741924D01*
X114252067Y-62741924D01*
X114239042Y-62743443D01*
X114227480Y-62744791D01*
X114223132Y-62745221D01*
X114150364Y-62751140D01*
X114143403Y-62753395D01*
X114137463Y-62754582D01*
X114131588Y-62755971D01*
X114124319Y-62756818D01*
X114055670Y-62781736D01*
X114051542Y-62783153D01*
X113989064Y-62803393D01*
X113989062Y-62803394D01*
X113982101Y-62805649D01*
X113975846Y-62809445D01*
X113970372Y-62811951D01*
X113964942Y-62814670D01*
X113958063Y-62817167D01*
X113951943Y-62821180D01*
X113951942Y-62821180D01*
X113897024Y-62857186D01*
X113893320Y-62859523D01*
X113830893Y-62897405D01*
X113822516Y-62904803D01*
X113822492Y-62904776D01*
X113819500Y-62907429D01*
X113816267Y-62910132D01*
X113810148Y-62914144D01*
X113805116Y-62919456D01*
X113756872Y-62970383D01*
X113754494Y-62972825D01*
X108731089Y-67996230D01*
X108716677Y-68008616D01*
X108705082Y-68017149D01*
X108705077Y-68017154D01*
X108699182Y-68021492D01*
X108694443Y-68027070D01*
X108694440Y-68027073D01*
X108664965Y-68061768D01*
X108658035Y-68069284D01*
X108652340Y-68074979D01*
X108650060Y-68077861D01*
X108634719Y-68097251D01*
X108631928Y-68100655D01*
X108589409Y-68150703D01*
X108584667Y-68156285D01*
X108581339Y-68162801D01*
X108577972Y-68167850D01*
X108574805Y-68172979D01*
X108570266Y-68178716D01*
X108539345Y-68244875D01*
X108537442Y-68248769D01*
X108504231Y-68313808D01*
X108502492Y-68320916D01*
X108500393Y-68326559D01*
X108498476Y-68332322D01*
X108495378Y-68338950D01*
X108493888Y-68346112D01*
X108493888Y-68346113D01*
X108480514Y-68410412D01*
X108479544Y-68414696D01*
X108462192Y-68485610D01*
X108461500Y-68496764D01*
X108461464Y-68496762D01*
X108461225Y-68500755D01*
X108460851Y-68504947D01*
X108459360Y-68512115D01*
X108459558Y-68519432D01*
X108461454Y-68589521D01*
X108461500Y-68592928D01*
X108461500Y-85315001D01*
X108444619Y-85378000D01*
X108385473Y-85480444D01*
X108326458Y-85662072D01*
X108306496Y-85852000D01*
X88900000Y-85852000D01*
X88900000Y-59968134D01*
X114806100Y-59968134D01*
X114812855Y-60030316D01*
X114863985Y-60166705D01*
X114951339Y-60283261D01*
X115067895Y-60370615D01*
X115204284Y-60421745D01*
X115266466Y-60428500D01*
X118362734Y-60428500D01*
X118424916Y-60421745D01*
X118561305Y-60370615D01*
X118677861Y-60283261D01*
X118765215Y-60166705D01*
X118816345Y-60030316D01*
X118823100Y-59968134D01*
X118823100Y-56871866D01*
X118816345Y-56809684D01*
X118765215Y-56673295D01*
X118677861Y-56556739D01*
X118561305Y-56469385D01*
X118424916Y-56418255D01*
X118362734Y-56411500D01*
X115266466Y-56411500D01*
X115204284Y-56418255D01*
X115067895Y-56469385D01*
X114951339Y-56556739D01*
X114863985Y-56673295D01*
X114812855Y-56809684D01*
X114806100Y-56871866D01*
X114806100Y-59968134D01*
X88900000Y-59968134D01*
X88900000Y-50397500D01*
X92236372Y-50397500D01*
X92256854Y-50657749D01*
X92258008Y-50662556D01*
X92258009Y-50662562D01*
X92296424Y-50822569D01*
X92317796Y-50911589D01*
X92417697Y-51152771D01*
X92554097Y-51375356D01*
X92723637Y-51573863D01*
X92922144Y-51743403D01*
X93144729Y-51879803D01*
X93149299Y-51881696D01*
X93149303Y-51881698D01*
X93380189Y-51977334D01*
X93385911Y-51979704D01*
X93474931Y-52001076D01*
X93634938Y-52039491D01*
X93634944Y-52039492D01*
X93639751Y-52040646D01*
X93900000Y-52061128D01*
X94160249Y-52040646D01*
X94165056Y-52039492D01*
X94165062Y-52039491D01*
X94325069Y-52001076D01*
X94414089Y-51979704D01*
X94419811Y-51977334D01*
X94650697Y-51881698D01*
X94650701Y-51881696D01*
X94655271Y-51879803D01*
X94877856Y-51743403D01*
X94882187Y-51739704D01*
X108323151Y-51739704D01*
X108327720Y-51746235D01*
X108540736Y-51876771D01*
X108549530Y-51881252D01*
X108781492Y-51977334D01*
X108790877Y-51980383D01*
X109035017Y-52038996D01*
X109044764Y-52040539D01*
X109295070Y-52060239D01*
X109304930Y-52060239D01*
X109555236Y-52040539D01*
X109564983Y-52038996D01*
X109809123Y-51980383D01*
X109818508Y-51977334D01*
X110050470Y-51881252D01*
X110059264Y-51876771D01*
X110270875Y-51747096D01*
X110276922Y-51737830D01*
X110270915Y-51727625D01*
X109312812Y-50769522D01*
X109298868Y-50761908D01*
X109297035Y-50762039D01*
X109290420Y-50766290D01*
X108330544Y-51726166D01*
X108323151Y-51739704D01*
X94882187Y-51739704D01*
X95076363Y-51573863D01*
X95245903Y-51375356D01*
X95382303Y-51152771D01*
X95482204Y-50911589D01*
X95503576Y-50822569D01*
X95541991Y-50662562D01*
X95541992Y-50662556D01*
X95543146Y-50657749D01*
X95563240Y-50402430D01*
X107637261Y-50402430D01*
X107656961Y-50652736D01*
X107658504Y-50662483D01*
X107717117Y-50906623D01*
X107720166Y-50916008D01*
X107816248Y-51147970D01*
X107820729Y-51156764D01*
X107950404Y-51368375D01*
X107959670Y-51374422D01*
X107969875Y-51368415D01*
X108927978Y-50410312D01*
X108934356Y-50398632D01*
X109664408Y-50398632D01*
X109664539Y-50400465D01*
X109668790Y-50407080D01*
X110628666Y-51366956D01*
X110642204Y-51374349D01*
X110648735Y-51369780D01*
X110779271Y-51156764D01*
X110783752Y-51147970D01*
X110879834Y-50916008D01*
X110882883Y-50906623D01*
X110941496Y-50662483D01*
X110943039Y-50652736D01*
X110962739Y-50402430D01*
X110962739Y-50392570D01*
X110943039Y-50142264D01*
X110941496Y-50132517D01*
X110882883Y-49888377D01*
X110879834Y-49878992D01*
X110783752Y-49647030D01*
X110779271Y-49638236D01*
X110649596Y-49426625D01*
X110640330Y-49420578D01*
X110630125Y-49426585D01*
X109672022Y-50384688D01*
X109664408Y-50398632D01*
X108934356Y-50398632D01*
X108935592Y-50396368D01*
X108935461Y-50394535D01*
X108931210Y-50387920D01*
X107971334Y-49428044D01*
X107957796Y-49420651D01*
X107951265Y-49425220D01*
X107820729Y-49638236D01*
X107816248Y-49647030D01*
X107720166Y-49878992D01*
X107717117Y-49888377D01*
X107658504Y-50132517D01*
X107656961Y-50142264D01*
X107637261Y-50392570D01*
X107637261Y-50402430D01*
X95563240Y-50402430D01*
X95563628Y-50397500D01*
X95543146Y-50137251D01*
X95541992Y-50132444D01*
X95541991Y-50132438D01*
X95483359Y-49888223D01*
X95482204Y-49883411D01*
X95382303Y-49642229D01*
X95245903Y-49419644D01*
X95076363Y-49221137D01*
X94884381Y-49057170D01*
X108323078Y-49057170D01*
X108329085Y-49067375D01*
X109287188Y-50025478D01*
X109301132Y-50033092D01*
X109302965Y-50032961D01*
X109309580Y-50028710D01*
X110269456Y-49068834D01*
X110276849Y-49055296D01*
X110272280Y-49048765D01*
X110059264Y-48918229D01*
X110050470Y-48913748D01*
X109818508Y-48817666D01*
X109809123Y-48814617D01*
X109564983Y-48756004D01*
X109555236Y-48754461D01*
X109304930Y-48734761D01*
X109295070Y-48734761D01*
X109044764Y-48754461D01*
X109035017Y-48756004D01*
X108790877Y-48814617D01*
X108781492Y-48817666D01*
X108549530Y-48913748D01*
X108540736Y-48918229D01*
X108329125Y-49047904D01*
X108323078Y-49057170D01*
X94884381Y-49057170D01*
X94877856Y-49051597D01*
X94655271Y-48915197D01*
X94650701Y-48913304D01*
X94650697Y-48913302D01*
X94418662Y-48817190D01*
X94418660Y-48817189D01*
X94414089Y-48815296D01*
X94325069Y-48793924D01*
X94165062Y-48755509D01*
X94165056Y-48755508D01*
X94160249Y-48754354D01*
X93900000Y-48733872D01*
X93639751Y-48754354D01*
X93634944Y-48755508D01*
X93634938Y-48755509D01*
X93474931Y-48793924D01*
X93385911Y-48815296D01*
X93381340Y-48817189D01*
X93381338Y-48817190D01*
X93149303Y-48913302D01*
X93149299Y-48913304D01*
X93144729Y-48915197D01*
X92922144Y-49051597D01*
X92723637Y-49221137D01*
X92554097Y-49419644D01*
X92417697Y-49642229D01*
X92317796Y-49883411D01*
X92316641Y-49888223D01*
X92258009Y-50132438D01*
X92258008Y-50132444D01*
X92256854Y-50137251D01*
X92236372Y-50397500D01*
X88900000Y-50397500D01*
X88900000Y-35686000D01*
X88920002Y-35617879D01*
X88973658Y-35571386D01*
X89026000Y-35560000D01*
X121794000Y-35560000D01*
X121862121Y-35580002D01*
G37*
%TD.AperFunction*%
%TD*%
M02*
