%TF.GenerationSoftware,KiCad,Pcbnew,(6.0.4)*%
%TF.CreationDate,2022-05-12T23:34:31+02:00*%
%TF.ProjectId,projekt_1,70726f6a-656b-4745-9f31-2e6b69636164,rev?*%
%TF.SameCoordinates,Original*%
%TF.FileFunction,Paste,Top*%
%TF.FilePolarity,Positive*%
%FSLAX46Y46*%
G04 Gerber Fmt 4.6, Leading zero omitted, Abs format (unit mm)*
G04 Created by KiCad (PCBNEW (6.0.4)) date 2022-05-12 23:34:31*
%MOMM*%
%LPD*%
G01*
G04 APERTURE LIST*
G04 Aperture macros list*
%AMRoundRect*
0 Rectangle with rounded corners*
0 $1 Rounding radius*
0 $2 $3 $4 $5 $6 $7 $8 $9 X,Y pos of 4 corners*
0 Add a 4 corners polygon primitive as box body*
4,1,4,$2,$3,$4,$5,$6,$7,$8,$9,$2,$3,0*
0 Add four circle primitives for the rounded corners*
1,1,$1+$1,$2,$3*
1,1,$1+$1,$4,$5*
1,1,$1+$1,$6,$7*
1,1,$1+$1,$8,$9*
0 Add four rect primitives between the rounded corners*
20,1,$1+$1,$2,$3,$4,$5,0*
20,1,$1+$1,$4,$5,$6,$7,0*
20,1,$1+$1,$6,$7,$8,$9,0*
20,1,$1+$1,$8,$9,$2,$3,0*%
G04 Aperture macros list end*
%ADD10R,3.150000X1.000000*%
%ADD11RoundRect,0.150000X0.150000X-0.587500X0.150000X0.587500X-0.150000X0.587500X-0.150000X-0.587500X0*%
%ADD12RoundRect,0.250000X-0.400000X-0.625000X0.400000X-0.625000X0.400000X0.625000X-0.400000X0.625000X0*%
%ADD13R,1.600000X3.100000*%
%ADD14RoundRect,0.250000X0.400000X0.625000X-0.400000X0.625000X-0.400000X-0.625000X0.400000X-0.625000X0*%
%ADD15RoundRect,0.250000X-0.537500X-1.450000X0.537500X-1.450000X0.537500X1.450000X-0.537500X1.450000X0*%
%ADD16RoundRect,0.250000X0.362500X1.425000X-0.362500X1.425000X-0.362500X-1.425000X0.362500X-1.425000X0*%
%ADD17RoundRect,0.250000X-0.362500X-1.425000X0.362500X-1.425000X0.362500X1.425000X-0.362500X1.425000X0*%
%ADD18RoundRect,0.250000X-0.625000X0.400000X-0.625000X-0.400000X0.625000X-0.400000X0.625000X0.400000X0*%
%ADD19RoundRect,0.250000X-0.650000X0.412500X-0.650000X-0.412500X0.650000X-0.412500X0.650000X0.412500X0*%
%ADD20RoundRect,0.250000X-1.425000X0.362500X-1.425000X-0.362500X1.425000X-0.362500X1.425000X0.362500X0*%
G04 APERTURE END LIST*
D10*
%TO.C,J4*%
X67487800Y-62433200D03*
X67487800Y-64973200D03*
X67487800Y-67513200D03*
X67487800Y-70053200D03*
X67487800Y-72593200D03*
X67487800Y-75133200D03*
X67487800Y-77673200D03*
X67487800Y-80213200D03*
X67487800Y-82753200D03*
X67487800Y-85293200D03*
X67487800Y-87833200D03*
X67487800Y-90373200D03*
X67487800Y-92913200D03*
X67487800Y-95453200D03*
X67487800Y-97993200D03*
X72537800Y-62433200D03*
X72537800Y-64973200D03*
X72537800Y-67513200D03*
X72537800Y-70053200D03*
X72537800Y-72593200D03*
X72537800Y-75133200D03*
X72537800Y-77673200D03*
X72537800Y-80213200D03*
X72537800Y-82753200D03*
X72537800Y-85293200D03*
X72537800Y-87833200D03*
X72537800Y-90373200D03*
X72537800Y-92913200D03*
X72537800Y-95453200D03*
X72537800Y-97993200D03*
%TD*%
D11*
%TO.C,Q1*%
X86172000Y-96695500D03*
X88072000Y-96695500D03*
X87122000Y-94820500D03*
%TD*%
D12*
%TO.C,R2*%
X111708600Y-88138000D03*
X114808600Y-88138000D03*
%TD*%
D13*
%TO.C,U2*%
X50292000Y-89027000D03*
X52832000Y-89027000D03*
X55372000Y-89027000D03*
X55372000Y-80137000D03*
X52832000Y-80137000D03*
X50292000Y-80137000D03*
%TD*%
D10*
%TO.C,J5*%
X100558600Y-97993200D03*
X100558600Y-95453200D03*
X105608600Y-62433200D03*
X100558600Y-92913200D03*
X105608600Y-64973200D03*
X100558600Y-90373200D03*
X100558600Y-87833200D03*
X100558600Y-85293200D03*
X105608600Y-67513200D03*
X100558600Y-82753200D03*
X100558600Y-80213200D03*
X105608600Y-70053200D03*
X100558600Y-77673200D03*
X105608600Y-72593200D03*
X100558600Y-75133200D03*
X100558600Y-72593200D03*
X105608600Y-75133200D03*
X100558600Y-70053200D03*
X100558600Y-67513200D03*
X100558600Y-64973200D03*
X105608600Y-77673200D03*
X100558600Y-62433200D03*
X105608600Y-80213200D03*
X105608600Y-82753200D03*
X105608600Y-85293200D03*
X105608600Y-87833200D03*
X105608600Y-90373200D03*
X105608600Y-92913200D03*
X105608600Y-95453200D03*
X105608600Y-97993200D03*
%TD*%
D12*
%TO.C,R10*%
X111708600Y-92964000D03*
X114808600Y-92964000D03*
%TD*%
%TO.C,R11*%
X111708600Y-85344000D03*
X114808600Y-85344000D03*
%TD*%
D14*
%TO.C,R4*%
X94488600Y-97993200D03*
X91388600Y-97993200D03*
%TD*%
D15*
%TO.C,C3*%
X33397100Y-84785200D03*
X37672100Y-84785200D03*
%TD*%
D16*
%TO.C,R6*%
X46117100Y-84709200D03*
X40192100Y-84709200D03*
%TD*%
D12*
%TO.C,R9*%
X91642600Y-87833200D03*
X94742600Y-87833200D03*
%TD*%
D17*
%TO.C,R8*%
X24952100Y-84709200D03*
X30877100Y-84709200D03*
%TD*%
D18*
%TO.C,R5*%
X91186000Y-82270000D03*
X91186000Y-85370000D03*
%TD*%
D19*
%TO.C,C1*%
X81254600Y-98970700D03*
X81254600Y-102095700D03*
%TD*%
D20*
%TO.C,R7*%
X50266600Y-70570700D03*
X50266600Y-76495700D03*
%TD*%
D19*
%TO.C,C4*%
X77698600Y-98970700D03*
X77698600Y-102095700D03*
%TD*%
D12*
%TO.C,R1*%
X111734000Y-90424000D03*
X114834000Y-90424000D03*
%TD*%
D14*
%TO.C,R3*%
X94488600Y-95453200D03*
X91388600Y-95453200D03*
%TD*%
M02*
