%TF.GenerationSoftware,KiCad,Pcbnew,(6.0.4)*%
%TF.CreationDate,2022-05-12T23:34:31+02:00*%
%TF.ProjectId,projekt_1,70726f6a-656b-4745-9f31-2e6b69636164,rev?*%
%TF.SameCoordinates,Original*%
%TF.FileFunction,Legend,Top*%
%TF.FilePolarity,Positive*%
%FSLAX46Y46*%
G04 Gerber Fmt 4.6, Leading zero omitted, Abs format (unit mm)*
G04 Created by KiCad (PCBNEW (6.0.4)) date 2022-05-12 23:34:31*
%MOMM*%
%LPD*%
G01*
G04 APERTURE LIST*
G04 Aperture macros list*
%AMRoundRect*
0 Rectangle with rounded corners*
0 $1 Rounding radius*
0 $2 $3 $4 $5 $6 $7 $8 $9 X,Y pos of 4 corners*
0 Add a 4 corners polygon primitive as box body*
4,1,4,$2,$3,$4,$5,$6,$7,$8,$9,$2,$3,0*
0 Add four circle primitives for the rounded corners*
1,1,$1+$1,$2,$3*
1,1,$1+$1,$4,$5*
1,1,$1+$1,$6,$7*
1,1,$1+$1,$8,$9*
0 Add four rect primitives between the rounded corners*
20,1,$1+$1,$2,$3,$4,$5,0*
20,1,$1+$1,$4,$5,$6,$7,0*
20,1,$1+$1,$6,$7,$8,$9,0*
20,1,$1+$1,$8,$9,$2,$3,0*%
G04 Aperture macros list end*
%ADD10C,0.150000*%
%ADD11C,0.254000*%
%ADD12C,0.120000*%
%ADD13C,0.100000*%
%ADD14C,0.200000*%
%ADD15C,3.000000*%
%ADD16R,3.150000X1.000000*%
%ADD17R,1.905000X2.000000*%
%ADD18O,1.905000X2.000000*%
%ADD19C,3.200000*%
%ADD20R,1.800000X1.800000*%
%ADD21C,1.800000*%
%ADD22RoundRect,0.150000X0.150000X-0.587500X0.150000X0.587500X-0.150000X0.587500X-0.150000X-0.587500X0*%
%ADD23RoundRect,0.250000X-0.400000X-0.625000X0.400000X-0.625000X0.400000X0.625000X-0.400000X0.625000X0*%
%ADD24R,3.000000X3.000000*%
%ADD25C,1.500000*%
%ADD26R,1.600000X3.100000*%
%ADD27RoundRect,0.250000X0.400000X0.625000X-0.400000X0.625000X-0.400000X-0.625000X0.400000X-0.625000X0*%
%ADD28RoundRect,0.250000X-0.537500X-1.450000X0.537500X-1.450000X0.537500X1.450000X-0.537500X1.450000X0*%
%ADD29RoundRect,0.250000X0.362500X1.425000X-0.362500X1.425000X-0.362500X-1.425000X0.362500X-1.425000X0*%
%ADD30RoundRect,0.250000X-0.362500X-1.425000X0.362500X-1.425000X0.362500X1.425000X-0.362500X1.425000X0*%
%ADD31RoundRect,0.250000X-0.625000X0.400000X-0.625000X-0.400000X0.625000X-0.400000X0.625000X0.400000X0*%
%ADD32R,2.000000X2.000000*%
%ADD33O,2.000000X2.000000*%
%ADD34RoundRect,0.250000X-0.650000X0.412500X-0.650000X-0.412500X0.650000X-0.412500X0.650000X0.412500X0*%
%ADD35RoundRect,0.250000X-1.425000X0.362500X-1.425000X-0.362500X1.425000X-0.362500X1.425000X0.362500X0*%
%ADD36C,2.400000*%
%ADD37O,2.400000X2.400000*%
%ADD38R,2.000000X2.300000*%
%ADD39C,2.300000*%
G04 APERTURE END LIST*
D10*
X31709742Y-15924361D02*
X31852600Y-15971980D01*
X32090695Y-15971980D01*
X32185933Y-15924361D01*
X32233552Y-15876742D01*
X32281171Y-15781504D01*
X32281171Y-15686266D01*
X32233552Y-15591028D01*
X32185933Y-15543409D01*
X32090695Y-15495790D01*
X31900219Y-15448171D01*
X31804980Y-15400552D01*
X31757361Y-15352933D01*
X31709742Y-15257695D01*
X31709742Y-15162457D01*
X31757361Y-15067219D01*
X31804980Y-15019600D01*
X31900219Y-14971980D01*
X32138314Y-14971980D01*
X32281171Y-15019600D01*
X32709742Y-15971980D02*
X32709742Y-14971980D01*
X33043076Y-15686266D01*
X33376409Y-14971980D01*
X33376409Y-15971980D01*
X33804980Y-15686266D02*
X34281171Y-15686266D01*
X33709742Y-15971980D02*
X34043076Y-14971980D01*
X34376409Y-15971980D01*
X35281171Y-15971980D02*
X34947838Y-15495790D01*
X34709742Y-15971980D02*
X34709742Y-14971980D01*
X35090695Y-14971980D01*
X35185933Y-15019600D01*
X35233552Y-15067219D01*
X35281171Y-15162457D01*
X35281171Y-15305314D01*
X35233552Y-15400552D01*
X35185933Y-15448171D01*
X35090695Y-15495790D01*
X34709742Y-15495790D01*
X35566885Y-14971980D02*
X36138314Y-14971980D01*
X35852600Y-15971980D02*
X35852600Y-14971980D01*
X37043076Y-15876742D02*
X36995457Y-15924361D01*
X36852600Y-15971980D01*
X36757361Y-15971980D01*
X36614504Y-15924361D01*
X36519266Y-15829123D01*
X36471647Y-15733885D01*
X36424028Y-15543409D01*
X36424028Y-15400552D01*
X36471647Y-15210076D01*
X36519266Y-15114838D01*
X36614504Y-15019600D01*
X36757361Y-14971980D01*
X36852600Y-14971980D01*
X36995457Y-15019600D01*
X37043076Y-15067219D01*
X37376409Y-14971980D02*
X38043076Y-14971980D01*
X37376409Y-15971980D01*
X38043076Y-15971980D01*
X38376409Y-15686266D02*
X38852600Y-15686266D01*
X38281171Y-15971980D02*
X38614504Y-14971980D01*
X38947838Y-15971980D01*
X39566885Y-14971980D02*
X39566885Y-15686266D01*
X39519266Y-15829123D01*
X39424028Y-15924361D01*
X39281171Y-15971980D01*
X39185933Y-15971980D01*
X40043076Y-15971980D02*
X40043076Y-14971980D01*
X40614504Y-15971980D01*
X40614504Y-14971980D01*
X41090695Y-15971980D02*
X41090695Y-14971980D01*
X41566885Y-15971980D02*
X41566885Y-14971980D01*
X42138314Y-15971980D02*
X41709742Y-15400552D01*
X42138314Y-14971980D02*
X41566885Y-15543409D01*
X43233552Y-15305314D02*
X43471647Y-15971980D01*
X43709742Y-15305314D01*
X44471647Y-15924361D02*
X44376409Y-15971980D01*
X44185933Y-15971980D01*
X44090695Y-15924361D01*
X44043076Y-15829123D01*
X44043076Y-15448171D01*
X44090695Y-15352933D01*
X44185933Y-15305314D01*
X44376409Y-15305314D01*
X44471647Y-15352933D01*
X44519266Y-15448171D01*
X44519266Y-15543409D01*
X44043076Y-15638647D01*
X44947838Y-15971980D02*
X44947838Y-15305314D01*
X44947838Y-15495790D02*
X44995457Y-15400552D01*
X45043076Y-15352933D01*
X45138314Y-15305314D01*
X45233552Y-15305314D01*
X45566885Y-15876742D02*
X45614504Y-15924361D01*
X45566885Y-15971980D01*
X45519266Y-15924361D01*
X45566885Y-15876742D01*
X45566885Y-15971980D01*
X46566885Y-15971980D02*
X45995457Y-15971980D01*
X46281171Y-15971980D02*
X46281171Y-14971980D01*
X46185933Y-15114838D01*
X46090695Y-15210076D01*
X45995457Y-15257695D01*
X46995457Y-15876742D02*
X47043076Y-15924361D01*
X46995457Y-15971980D01*
X46947838Y-15924361D01*
X46995457Y-15876742D01*
X46995457Y-15971980D01*
X47662123Y-14971980D02*
X47757361Y-14971980D01*
X47852600Y-15019600D01*
X47900219Y-15067219D01*
X47947838Y-15162457D01*
X47995457Y-15352933D01*
X47995457Y-15591028D01*
X47947838Y-15781504D01*
X47900219Y-15876742D01*
X47852600Y-15924361D01*
X47757361Y-15971980D01*
X47662123Y-15971980D01*
X47566885Y-15924361D01*
X47519266Y-15876742D01*
X47471647Y-15781504D01*
X47424028Y-15591028D01*
X47424028Y-15352933D01*
X47471647Y-15162457D01*
X47519266Y-15067219D01*
X47566885Y-15019600D01*
X47662123Y-14971980D01*
%TO.C,F2*%
X60093266Y-49839771D02*
X59759933Y-49839771D01*
X59759933Y-50363580D02*
X59759933Y-49363580D01*
X60236123Y-49363580D01*
X60569457Y-49458819D02*
X60617076Y-49411200D01*
X60712314Y-49363580D01*
X60950409Y-49363580D01*
X61045647Y-49411200D01*
X61093266Y-49458819D01*
X61140885Y-49554057D01*
X61140885Y-49649295D01*
X61093266Y-49792152D01*
X60521838Y-50363580D01*
X61140885Y-50363580D01*
%TO.C,J4*%
X74342666Y-59396380D02*
X74342666Y-60110666D01*
X74295047Y-60253523D01*
X74199809Y-60348761D01*
X74056952Y-60396380D01*
X73961714Y-60396380D01*
X75247428Y-59729714D02*
X75247428Y-60396380D01*
X75009333Y-59348761D02*
X74771238Y-60063047D01*
X75390285Y-60063047D01*
%TO.C,Q2*%
X38487361Y-68540819D02*
X38392123Y-68493200D01*
X38296885Y-68397961D01*
X38154028Y-68255104D01*
X38058790Y-68207485D01*
X37963552Y-68207485D01*
X38011171Y-68445580D02*
X37915933Y-68397961D01*
X37820695Y-68302723D01*
X37773076Y-68112247D01*
X37773076Y-67778914D01*
X37820695Y-67588438D01*
X37915933Y-67493200D01*
X38011171Y-67445580D01*
X38201647Y-67445580D01*
X38296885Y-67493200D01*
X38392123Y-67588438D01*
X38439742Y-67778914D01*
X38439742Y-68112247D01*
X38392123Y-68302723D01*
X38296885Y-68397961D01*
X38201647Y-68445580D01*
X38011171Y-68445580D01*
X38820695Y-67540819D02*
X38868314Y-67493200D01*
X38963552Y-67445580D01*
X39201647Y-67445580D01*
X39296885Y-67493200D01*
X39344504Y-67540819D01*
X39392123Y-67636057D01*
X39392123Y-67731295D01*
X39344504Y-67874152D01*
X38773076Y-68445580D01*
X39392123Y-68445580D01*
%TO.C,D2*%
X122538380Y-83288095D02*
X121538380Y-83288095D01*
X121538380Y-83050000D01*
X121586000Y-82907142D01*
X121681238Y-82811904D01*
X121776476Y-82764285D01*
X121966952Y-82716666D01*
X122109809Y-82716666D01*
X122300285Y-82764285D01*
X122395523Y-82811904D01*
X122490761Y-82907142D01*
X122538380Y-83050000D01*
X122538380Y-83288095D01*
X121633619Y-82335714D02*
X121586000Y-82288095D01*
X121538380Y-82192857D01*
X121538380Y-81954761D01*
X121586000Y-81859523D01*
X121633619Y-81811904D01*
X121728857Y-81764285D01*
X121824095Y-81764285D01*
X121966952Y-81811904D01*
X122538380Y-82383333D01*
X122538380Y-81764285D01*
%TO.C,D3*%
X122600980Y-93321295D02*
X121600980Y-93321295D01*
X121600980Y-93083200D01*
X121648600Y-92940342D01*
X121743838Y-92845104D01*
X121839076Y-92797485D01*
X122029552Y-92749866D01*
X122172409Y-92749866D01*
X122362885Y-92797485D01*
X122458123Y-92845104D01*
X122553361Y-92940342D01*
X122600980Y-93083200D01*
X122600980Y-93321295D01*
X121600980Y-92416533D02*
X121600980Y-91797485D01*
X121981933Y-92130819D01*
X121981933Y-91987961D01*
X122029552Y-91892723D01*
X122077171Y-91845104D01*
X122172409Y-91797485D01*
X122410504Y-91797485D01*
X122505742Y-91845104D01*
X122553361Y-91892723D01*
X122600980Y-91987961D01*
X122600980Y-92273676D01*
X122553361Y-92368914D01*
X122505742Y-92416533D01*
%TO.C,Q1*%
X85269619Y-95853238D02*
X85222000Y-95948476D01*
X85126761Y-96043714D01*
X84983904Y-96186571D01*
X84936285Y-96281809D01*
X84936285Y-96377047D01*
X85174380Y-96329428D02*
X85126761Y-96424666D01*
X85031523Y-96519904D01*
X84841047Y-96567523D01*
X84507714Y-96567523D01*
X84317238Y-96519904D01*
X84222000Y-96424666D01*
X84174380Y-96329428D01*
X84174380Y-96138952D01*
X84222000Y-96043714D01*
X84317238Y-95948476D01*
X84507714Y-95900857D01*
X84841047Y-95900857D01*
X85031523Y-95948476D01*
X85126761Y-96043714D01*
X85174380Y-96138952D01*
X85174380Y-96329428D01*
X85174380Y-94948476D02*
X85174380Y-95519904D01*
X85174380Y-95234190D02*
X84174380Y-95234190D01*
X84317238Y-95329428D01*
X84412476Y-95424666D01*
X84460095Y-95519904D01*
%TO.C,R2*%
X113091933Y-88463580D02*
X112758600Y-87987390D01*
X112520504Y-88463580D02*
X112520504Y-87463580D01*
X112901457Y-87463580D01*
X112996695Y-87511200D01*
X113044314Y-87558819D01*
X113091933Y-87654057D01*
X113091933Y-87796914D01*
X113044314Y-87892152D01*
X112996695Y-87939771D01*
X112901457Y-87987390D01*
X112520504Y-87987390D01*
X113472885Y-87558819D02*
X113520504Y-87511200D01*
X113615742Y-87463580D01*
X113853838Y-87463580D01*
X113949076Y-87511200D01*
X113996695Y-87558819D01*
X114044314Y-87654057D01*
X114044314Y-87749295D01*
X113996695Y-87892152D01*
X113425266Y-88463580D01*
X114044314Y-88463580D01*
%TO.C,D4*%
X122538380Y-78203095D02*
X121538380Y-78203095D01*
X121538380Y-77965000D01*
X121586000Y-77822142D01*
X121681238Y-77726904D01*
X121776476Y-77679285D01*
X121966952Y-77631666D01*
X122109809Y-77631666D01*
X122300285Y-77679285D01*
X122395523Y-77726904D01*
X122490761Y-77822142D01*
X122538380Y-77965000D01*
X122538380Y-78203095D01*
X121871714Y-76774523D02*
X122538380Y-76774523D01*
X121490761Y-77012619D02*
X122205047Y-77250714D01*
X122205047Y-76631666D01*
%TO.C,J1*%
X111186980Y-63803333D02*
X111901266Y-63803333D01*
X112044123Y-63850952D01*
X112139361Y-63946190D01*
X112186980Y-64089047D01*
X112186980Y-64184285D01*
X112186980Y-62803333D02*
X112186980Y-63374761D01*
X112186980Y-63089047D02*
X111186980Y-63089047D01*
X111329838Y-63184285D01*
X111425076Y-63279523D01*
X111472695Y-63374761D01*
D11*
%TO.C,FL1*%
X72722619Y-29322485D02*
X72299285Y-29322485D01*
X72299285Y-29987723D02*
X72299285Y-28717723D01*
X72904047Y-28717723D01*
X73992619Y-29987723D02*
X73387857Y-29987723D01*
X73387857Y-28717723D01*
X75081190Y-29987723D02*
X74355476Y-29987723D01*
X74718333Y-29987723D02*
X74718333Y-28717723D01*
X74597380Y-28899152D01*
X74476428Y-29020104D01*
X74355476Y-29080580D01*
D10*
%TO.C,U2*%
X52004980Y-85343904D02*
X52814504Y-85343904D01*
X52909742Y-85296285D01*
X52957361Y-85248666D01*
X53004980Y-85153428D01*
X53004980Y-84962952D01*
X52957361Y-84867714D01*
X52909742Y-84820095D01*
X52814504Y-84772476D01*
X52004980Y-84772476D01*
X52100219Y-84343904D02*
X52052600Y-84296285D01*
X52004980Y-84201047D01*
X52004980Y-83962952D01*
X52052600Y-83867714D01*
X52100219Y-83820095D01*
X52195457Y-83772476D01*
X52290695Y-83772476D01*
X52433552Y-83820095D01*
X53004980Y-84391523D01*
X53004980Y-83772476D01*
%TO.C,D1*%
X122538380Y-88363095D02*
X121538380Y-88363095D01*
X121538380Y-88125000D01*
X121586000Y-87982142D01*
X121681238Y-87886904D01*
X121776476Y-87839285D01*
X121966952Y-87791666D01*
X122109809Y-87791666D01*
X122300285Y-87839285D01*
X122395523Y-87886904D01*
X122490761Y-87982142D01*
X122538380Y-88125000D01*
X122538380Y-88363095D01*
X122538380Y-86839285D02*
X122538380Y-87410714D01*
X122538380Y-87125000D02*
X121538380Y-87125000D01*
X121681238Y-87220238D01*
X121776476Y-87315476D01*
X121824095Y-87410714D01*
%TO.C,J5*%
X107616666Y-59142380D02*
X107616666Y-59856666D01*
X107569047Y-59999523D01*
X107473809Y-60094761D01*
X107330952Y-60142380D01*
X107235714Y-60142380D01*
X108569047Y-59142380D02*
X108092857Y-59142380D01*
X108045238Y-59618571D01*
X108092857Y-59570952D01*
X108188095Y-59523333D01*
X108426190Y-59523333D01*
X108521428Y-59570952D01*
X108569047Y-59618571D01*
X108616666Y-59713809D01*
X108616666Y-59951904D01*
X108569047Y-60047142D01*
X108521428Y-60094761D01*
X108426190Y-60142380D01*
X108188095Y-60142380D01*
X108092857Y-60094761D01*
X108045238Y-60047142D01*
%TO.C,R10*%
X112872885Y-93543580D02*
X112672885Y-93067390D01*
X112530028Y-93543580D02*
X112530028Y-92543580D01*
X112758600Y-92543580D01*
X112815742Y-92591200D01*
X112844314Y-92638819D01*
X112872885Y-92734057D01*
X112872885Y-92876914D01*
X112844314Y-92972152D01*
X112815742Y-93019771D01*
X112758600Y-93067390D01*
X112530028Y-93067390D01*
X113444314Y-93543580D02*
X113101457Y-93543580D01*
X113272885Y-93543580D02*
X113272885Y-92543580D01*
X113215742Y-92686438D01*
X113158600Y-92781676D01*
X113101457Y-92829295D01*
X113815742Y-92543580D02*
X113872885Y-92543580D01*
X113930028Y-92591200D01*
X113958600Y-92638819D01*
X113987171Y-92734057D01*
X114015742Y-92924533D01*
X114015742Y-93162628D01*
X113987171Y-93353104D01*
X113958600Y-93448342D01*
X113930028Y-93495961D01*
X113872885Y-93543580D01*
X113815742Y-93543580D01*
X113758600Y-93495961D01*
X113730028Y-93448342D01*
X113701457Y-93353104D01*
X113672885Y-93162628D01*
X113672885Y-92924533D01*
X113701457Y-92734057D01*
X113730028Y-92638819D01*
X113758600Y-92591200D01*
X113815742Y-92543580D01*
%TO.C,R11*%
X112872885Y-85669580D02*
X112672885Y-85193390D01*
X112530028Y-85669580D02*
X112530028Y-84669580D01*
X112758600Y-84669580D01*
X112815742Y-84717200D01*
X112844314Y-84764819D01*
X112872885Y-84860057D01*
X112872885Y-85002914D01*
X112844314Y-85098152D01*
X112815742Y-85145771D01*
X112758600Y-85193390D01*
X112530028Y-85193390D01*
X113444314Y-85669580D02*
X113101457Y-85669580D01*
X113272885Y-85669580D02*
X113272885Y-84669580D01*
X113215742Y-84812438D01*
X113158600Y-84907676D01*
X113101457Y-84955295D01*
X114015742Y-85669580D02*
X113672885Y-85669580D01*
X113844314Y-85669580D02*
X113844314Y-84669580D01*
X113787171Y-84812438D01*
X113730028Y-84907676D01*
X113672885Y-84955295D01*
%TO.C,R4*%
X92780266Y-98623580D02*
X92463600Y-98147390D01*
X92237409Y-98623580D02*
X92237409Y-97623580D01*
X92599314Y-97623580D01*
X92689790Y-97671200D01*
X92735028Y-97718819D01*
X92780266Y-97814057D01*
X92780266Y-97956914D01*
X92735028Y-98052152D01*
X92689790Y-98099771D01*
X92599314Y-98147390D01*
X92237409Y-98147390D01*
X93594552Y-97956914D02*
X93594552Y-98623580D01*
X93368361Y-97575961D02*
X93142171Y-98290247D01*
X93730266Y-98290247D01*
%TO.C,C3*%
X35367933Y-85066342D02*
X35320314Y-85113961D01*
X35177457Y-85161580D01*
X35082219Y-85161580D01*
X34939361Y-85113961D01*
X34844123Y-85018723D01*
X34796504Y-84923485D01*
X34748885Y-84733009D01*
X34748885Y-84590152D01*
X34796504Y-84399676D01*
X34844123Y-84304438D01*
X34939361Y-84209200D01*
X35082219Y-84161580D01*
X35177457Y-84161580D01*
X35320314Y-84209200D01*
X35367933Y-84256819D01*
X35701266Y-84161580D02*
X36320314Y-84161580D01*
X35986980Y-84542533D01*
X36129838Y-84542533D01*
X36225076Y-84590152D01*
X36272695Y-84637771D01*
X36320314Y-84733009D01*
X36320314Y-84971104D01*
X36272695Y-85066342D01*
X36225076Y-85113961D01*
X36129838Y-85161580D01*
X35844123Y-85161580D01*
X35748885Y-85113961D01*
X35701266Y-85066342D01*
%TO.C,R6*%
X42987933Y-85009380D02*
X42654600Y-84533190D01*
X42416504Y-85009380D02*
X42416504Y-84009380D01*
X42797457Y-84009380D01*
X42892695Y-84057000D01*
X42940314Y-84104619D01*
X42987933Y-84199857D01*
X42987933Y-84342714D01*
X42940314Y-84437952D01*
X42892695Y-84485571D01*
X42797457Y-84533190D01*
X42416504Y-84533190D01*
X43845076Y-84009380D02*
X43654600Y-84009380D01*
X43559361Y-84057000D01*
X43511742Y-84104619D01*
X43416504Y-84247476D01*
X43368885Y-84437952D01*
X43368885Y-84818904D01*
X43416504Y-84914142D01*
X43464123Y-84961761D01*
X43559361Y-85009380D01*
X43749838Y-85009380D01*
X43845076Y-84961761D01*
X43892695Y-84914142D01*
X43940314Y-84818904D01*
X43940314Y-84580809D01*
X43892695Y-84485571D01*
X43845076Y-84437952D01*
X43749838Y-84390333D01*
X43559361Y-84390333D01*
X43464123Y-84437952D01*
X43416504Y-84485571D01*
X43368885Y-84580809D01*
%TO.C,R9*%
X93025933Y-88209580D02*
X92692600Y-87733390D01*
X92454504Y-88209580D02*
X92454504Y-87209580D01*
X92835457Y-87209580D01*
X92930695Y-87257200D01*
X92978314Y-87304819D01*
X93025933Y-87400057D01*
X93025933Y-87542914D01*
X92978314Y-87638152D01*
X92930695Y-87685771D01*
X92835457Y-87733390D01*
X92454504Y-87733390D01*
X93502123Y-88209580D02*
X93692600Y-88209580D01*
X93787838Y-88161961D01*
X93835457Y-88114342D01*
X93930695Y-87971485D01*
X93978314Y-87781009D01*
X93978314Y-87400057D01*
X93930695Y-87304819D01*
X93883076Y-87257200D01*
X93787838Y-87209580D01*
X93597361Y-87209580D01*
X93502123Y-87257200D01*
X93454504Y-87304819D01*
X93406885Y-87400057D01*
X93406885Y-87638152D01*
X93454504Y-87733390D01*
X93502123Y-87781009D01*
X93597361Y-87828628D01*
X93787838Y-87828628D01*
X93883076Y-87781009D01*
X93930695Y-87733390D01*
X93978314Y-87638152D01*
%TO.C,R8*%
X27747933Y-85085580D02*
X27414600Y-84609390D01*
X27176504Y-85085580D02*
X27176504Y-84085580D01*
X27557457Y-84085580D01*
X27652695Y-84133200D01*
X27700314Y-84180819D01*
X27747933Y-84276057D01*
X27747933Y-84418914D01*
X27700314Y-84514152D01*
X27652695Y-84561771D01*
X27557457Y-84609390D01*
X27176504Y-84609390D01*
X28319361Y-84514152D02*
X28224123Y-84466533D01*
X28176504Y-84418914D01*
X28128885Y-84323676D01*
X28128885Y-84276057D01*
X28176504Y-84180819D01*
X28224123Y-84133200D01*
X28319361Y-84085580D01*
X28509838Y-84085580D01*
X28605076Y-84133200D01*
X28652695Y-84180819D01*
X28700314Y-84276057D01*
X28700314Y-84323676D01*
X28652695Y-84418914D01*
X28605076Y-84466533D01*
X28509838Y-84514152D01*
X28319361Y-84514152D01*
X28224123Y-84561771D01*
X28176504Y-84609390D01*
X28128885Y-84704628D01*
X28128885Y-84895104D01*
X28176504Y-84990342D01*
X28224123Y-85037961D01*
X28319361Y-85085580D01*
X28509838Y-85085580D01*
X28605076Y-85037961D01*
X28652695Y-84990342D01*
X28700314Y-84895104D01*
X28700314Y-84704628D01*
X28652695Y-84609390D01*
X28605076Y-84561771D01*
X28509838Y-84514152D01*
%TO.C,R5*%
X91866980Y-83986666D02*
X91390790Y-84320000D01*
X91866980Y-84558095D02*
X90866980Y-84558095D01*
X90866980Y-84177142D01*
X90914600Y-84081904D01*
X90962219Y-84034285D01*
X91057457Y-83986666D01*
X91200314Y-83986666D01*
X91295552Y-84034285D01*
X91343171Y-84081904D01*
X91390790Y-84177142D01*
X91390790Y-84558095D01*
X90866980Y-83081904D02*
X90866980Y-83558095D01*
X91343171Y-83605714D01*
X91295552Y-83558095D01*
X91247933Y-83462857D01*
X91247933Y-83224761D01*
X91295552Y-83129523D01*
X91343171Y-83081904D01*
X91438409Y-83034285D01*
X91676504Y-83034285D01*
X91771742Y-83081904D01*
X91819361Y-83129523D01*
X91866980Y-83224761D01*
X91866980Y-83462857D01*
X91819361Y-83558095D01*
X91771742Y-83605714D01*
%TO.C,C2xclass3*%
X33550600Y-59412342D02*
X33502980Y-59459961D01*
X33360123Y-59507580D01*
X33264885Y-59507580D01*
X33122028Y-59459961D01*
X33026790Y-59364723D01*
X32979171Y-59269485D01*
X32931552Y-59079009D01*
X32931552Y-58936152D01*
X32979171Y-58745676D01*
X33026790Y-58650438D01*
X33122028Y-58555200D01*
X33264885Y-58507580D01*
X33360123Y-58507580D01*
X33502980Y-58555200D01*
X33550600Y-58602819D01*
X33931552Y-58602819D02*
X33979171Y-58555200D01*
X34074409Y-58507580D01*
X34312504Y-58507580D01*
X34407742Y-58555200D01*
X34455361Y-58602819D01*
X34502980Y-58698057D01*
X34502980Y-58793295D01*
X34455361Y-58936152D01*
X33883933Y-59507580D01*
X34502980Y-59507580D01*
X34836314Y-59507580D02*
X35360123Y-58840914D01*
X34836314Y-58840914D02*
X35360123Y-59507580D01*
X36169647Y-59459961D02*
X36074409Y-59507580D01*
X35883933Y-59507580D01*
X35788695Y-59459961D01*
X35741076Y-59412342D01*
X35693457Y-59317104D01*
X35693457Y-59031390D01*
X35741076Y-58936152D01*
X35788695Y-58888533D01*
X35883933Y-58840914D01*
X36074409Y-58840914D01*
X36169647Y-58888533D01*
X36741076Y-59507580D02*
X36645838Y-59459961D01*
X36598219Y-59364723D01*
X36598219Y-58507580D01*
X37550600Y-59507580D02*
X37550600Y-58983771D01*
X37502980Y-58888533D01*
X37407742Y-58840914D01*
X37217266Y-58840914D01*
X37122028Y-58888533D01*
X37550600Y-59459961D02*
X37455361Y-59507580D01*
X37217266Y-59507580D01*
X37122028Y-59459961D01*
X37074409Y-59364723D01*
X37074409Y-59269485D01*
X37122028Y-59174247D01*
X37217266Y-59126628D01*
X37455361Y-59126628D01*
X37550600Y-59079009D01*
X37979171Y-59459961D02*
X38074409Y-59507580D01*
X38264885Y-59507580D01*
X38360123Y-59459961D01*
X38407742Y-59364723D01*
X38407742Y-59317104D01*
X38360123Y-59221866D01*
X38264885Y-59174247D01*
X38122028Y-59174247D01*
X38026790Y-59126628D01*
X37979171Y-59031390D01*
X37979171Y-58983771D01*
X38026790Y-58888533D01*
X38122028Y-58840914D01*
X38264885Y-58840914D01*
X38360123Y-58888533D01*
X38788695Y-59459961D02*
X38883933Y-59507580D01*
X39074409Y-59507580D01*
X39169647Y-59459961D01*
X39217266Y-59364723D01*
X39217266Y-59317104D01*
X39169647Y-59221866D01*
X39074409Y-59174247D01*
X38931552Y-59174247D01*
X38836314Y-59126628D01*
X38788695Y-59031390D01*
X38788695Y-58983771D01*
X38836314Y-58888533D01*
X38931552Y-58840914D01*
X39074409Y-58840914D01*
X39169647Y-58888533D01*
X39550600Y-58507580D02*
X40169647Y-58507580D01*
X39836314Y-58888533D01*
X39979171Y-58888533D01*
X40074409Y-58936152D01*
X40122028Y-58983771D01*
X40169647Y-59079009D01*
X40169647Y-59317104D01*
X40122028Y-59412342D01*
X40074409Y-59459961D01*
X39979171Y-59507580D01*
X39693457Y-59507580D01*
X39598219Y-59459961D01*
X39550600Y-59412342D01*
%TO.C,C1*%
X81611742Y-100699866D02*
X81659361Y-100747485D01*
X81706980Y-100890342D01*
X81706980Y-100985580D01*
X81659361Y-101128438D01*
X81564123Y-101223676D01*
X81468885Y-101271295D01*
X81278409Y-101318914D01*
X81135552Y-101318914D01*
X80945076Y-101271295D01*
X80849838Y-101223676D01*
X80754600Y-101128438D01*
X80706980Y-100985580D01*
X80706980Y-100890342D01*
X80754600Y-100747485D01*
X80802219Y-100699866D01*
X81706980Y-99747485D02*
X81706980Y-100318914D01*
X81706980Y-100033200D02*
X80706980Y-100033200D01*
X80849838Y-100128438D01*
X80945076Y-100223676D01*
X80992695Y-100318914D01*
%TO.C,J3*%
X41775266Y-90255580D02*
X41775266Y-90969866D01*
X41727647Y-91112723D01*
X41632409Y-91207961D01*
X41489552Y-91255580D01*
X41394314Y-91255580D01*
X42156219Y-90255580D02*
X42775266Y-90255580D01*
X42441933Y-90636533D01*
X42584790Y-90636533D01*
X42680028Y-90684152D01*
X42727647Y-90731771D01*
X42775266Y-90827009D01*
X42775266Y-91065104D01*
X42727647Y-91160342D01*
X42680028Y-91207961D01*
X42584790Y-91255580D01*
X42299076Y-91255580D01*
X42203838Y-91207961D01*
X42156219Y-91160342D01*
%TO.C,R7*%
X50693580Y-73699866D02*
X50217390Y-74033200D01*
X50693580Y-74271295D02*
X49693580Y-74271295D01*
X49693580Y-73890342D01*
X49741200Y-73795104D01*
X49788819Y-73747485D01*
X49884057Y-73699866D01*
X50026914Y-73699866D01*
X50122152Y-73747485D01*
X50169771Y-73795104D01*
X50217390Y-73890342D01*
X50217390Y-74271295D01*
X49693580Y-73366533D02*
X49693580Y-72699866D01*
X50693580Y-73128438D01*
%TO.C,C2xclass2*%
X33550600Y-52300342D02*
X33502980Y-52347961D01*
X33360123Y-52395580D01*
X33264885Y-52395580D01*
X33122028Y-52347961D01*
X33026790Y-52252723D01*
X32979171Y-52157485D01*
X32931552Y-51967009D01*
X32931552Y-51824152D01*
X32979171Y-51633676D01*
X33026790Y-51538438D01*
X33122028Y-51443200D01*
X33264885Y-51395580D01*
X33360123Y-51395580D01*
X33502980Y-51443200D01*
X33550600Y-51490819D01*
X33931552Y-51490819D02*
X33979171Y-51443200D01*
X34074409Y-51395580D01*
X34312504Y-51395580D01*
X34407742Y-51443200D01*
X34455361Y-51490819D01*
X34502980Y-51586057D01*
X34502980Y-51681295D01*
X34455361Y-51824152D01*
X33883933Y-52395580D01*
X34502980Y-52395580D01*
X34836314Y-52395580D02*
X35360123Y-51728914D01*
X34836314Y-51728914D02*
X35360123Y-52395580D01*
X36169647Y-52347961D02*
X36074409Y-52395580D01*
X35883933Y-52395580D01*
X35788695Y-52347961D01*
X35741076Y-52300342D01*
X35693457Y-52205104D01*
X35693457Y-51919390D01*
X35741076Y-51824152D01*
X35788695Y-51776533D01*
X35883933Y-51728914D01*
X36074409Y-51728914D01*
X36169647Y-51776533D01*
X36741076Y-52395580D02*
X36645838Y-52347961D01*
X36598219Y-52252723D01*
X36598219Y-51395580D01*
X37550600Y-52395580D02*
X37550600Y-51871771D01*
X37502980Y-51776533D01*
X37407742Y-51728914D01*
X37217266Y-51728914D01*
X37122028Y-51776533D01*
X37550600Y-52347961D02*
X37455361Y-52395580D01*
X37217266Y-52395580D01*
X37122028Y-52347961D01*
X37074409Y-52252723D01*
X37074409Y-52157485D01*
X37122028Y-52062247D01*
X37217266Y-52014628D01*
X37455361Y-52014628D01*
X37550600Y-51967009D01*
X37979171Y-52347961D02*
X38074409Y-52395580D01*
X38264885Y-52395580D01*
X38360123Y-52347961D01*
X38407742Y-52252723D01*
X38407742Y-52205104D01*
X38360123Y-52109866D01*
X38264885Y-52062247D01*
X38122028Y-52062247D01*
X38026790Y-52014628D01*
X37979171Y-51919390D01*
X37979171Y-51871771D01*
X38026790Y-51776533D01*
X38122028Y-51728914D01*
X38264885Y-51728914D01*
X38360123Y-51776533D01*
X38788695Y-52347961D02*
X38883933Y-52395580D01*
X39074409Y-52395580D01*
X39169647Y-52347961D01*
X39217266Y-52252723D01*
X39217266Y-52205104D01*
X39169647Y-52109866D01*
X39074409Y-52062247D01*
X38931552Y-52062247D01*
X38836314Y-52014628D01*
X38788695Y-51919390D01*
X38788695Y-51871771D01*
X38836314Y-51776533D01*
X38931552Y-51728914D01*
X39074409Y-51728914D01*
X39169647Y-51776533D01*
X39598219Y-51490819D02*
X39645838Y-51443200D01*
X39741076Y-51395580D01*
X39979171Y-51395580D01*
X40074409Y-51443200D01*
X40122028Y-51490819D01*
X40169647Y-51586057D01*
X40169647Y-51681295D01*
X40122028Y-51824152D01*
X39550600Y-52395580D01*
X40169647Y-52395580D01*
%TO.C,J6*%
X50050980Y-28878533D02*
X50765266Y-28878533D01*
X50908123Y-28926152D01*
X51003361Y-29021390D01*
X51050980Y-29164247D01*
X51050980Y-29259485D01*
X50050980Y-27973771D02*
X50050980Y-28164247D01*
X50098600Y-28259485D01*
X50146219Y-28307104D01*
X50289076Y-28402342D01*
X50479552Y-28449961D01*
X50860504Y-28449961D01*
X50955742Y-28402342D01*
X51003361Y-28354723D01*
X51050980Y-28259485D01*
X51050980Y-28069009D01*
X51003361Y-27973771D01*
X50955742Y-27926152D01*
X50860504Y-27878533D01*
X50622409Y-27878533D01*
X50527171Y-27926152D01*
X50479552Y-27973771D01*
X50431933Y-28069009D01*
X50431933Y-28259485D01*
X50479552Y-28354723D01*
X50527171Y-28402342D01*
X50622409Y-28449961D01*
%TO.C,F1*%
X60609171Y-74374533D02*
X60609171Y-74707866D01*
X61132980Y-74707866D02*
X60132980Y-74707866D01*
X60132980Y-74231676D01*
X61132980Y-73326914D02*
X61132980Y-73898342D01*
X61132980Y-73612628D02*
X60132980Y-73612628D01*
X60275838Y-73707866D01*
X60371076Y-73803104D01*
X60418695Y-73898342D01*
%TO.C,C4*%
X78055742Y-100691533D02*
X78103361Y-100736771D01*
X78150980Y-100872485D01*
X78150980Y-100962961D01*
X78103361Y-101098676D01*
X78008123Y-101189152D01*
X77912885Y-101234390D01*
X77722409Y-101279628D01*
X77579552Y-101279628D01*
X77389076Y-101234390D01*
X77293838Y-101189152D01*
X77198600Y-101098676D01*
X77150980Y-100962961D01*
X77150980Y-100872485D01*
X77198600Y-100736771D01*
X77246219Y-100691533D01*
X77484314Y-99877247D02*
X78150980Y-99877247D01*
X77103361Y-100103438D02*
X77817647Y-100329628D01*
X77817647Y-99741533D01*
%TO.C,R1*%
X113117333Y-91003580D02*
X112784000Y-90527390D01*
X112545904Y-91003580D02*
X112545904Y-90003580D01*
X112926857Y-90003580D01*
X113022095Y-90051200D01*
X113069714Y-90098819D01*
X113117333Y-90194057D01*
X113117333Y-90336914D01*
X113069714Y-90432152D01*
X113022095Y-90479771D01*
X112926857Y-90527390D01*
X112545904Y-90527390D01*
X114069714Y-91003580D02*
X113498285Y-91003580D01*
X113784000Y-91003580D02*
X113784000Y-90003580D01*
X113688761Y-90146438D01*
X113593523Y-90241676D01*
X113498285Y-90289295D01*
%TO.C,RV1*%
X33073961Y-44140780D02*
X32740628Y-43664590D01*
X32502533Y-44140780D02*
X32502533Y-43140780D01*
X32883485Y-43140780D01*
X32978723Y-43188400D01*
X33026342Y-43236019D01*
X33073961Y-43331257D01*
X33073961Y-43474114D01*
X33026342Y-43569352D01*
X32978723Y-43616971D01*
X32883485Y-43664590D01*
X32502533Y-43664590D01*
X33359676Y-43140780D02*
X33693009Y-44140780D01*
X34026342Y-43140780D01*
X34883485Y-44140780D02*
X34312057Y-44140780D01*
X34597771Y-44140780D02*
X34597771Y-43140780D01*
X34502533Y-43283638D01*
X34407295Y-43378876D01*
X34312057Y-43426495D01*
%TO.C,PS1*%
X100106314Y-34107580D02*
X100106314Y-33107580D01*
X100487266Y-33107580D01*
X100582504Y-33155200D01*
X100630123Y-33202819D01*
X100677742Y-33298057D01*
X100677742Y-33440914D01*
X100630123Y-33536152D01*
X100582504Y-33583771D01*
X100487266Y-33631390D01*
X100106314Y-33631390D01*
X101058695Y-34059961D02*
X101201552Y-34107580D01*
X101439647Y-34107580D01*
X101534885Y-34059961D01*
X101582504Y-34012342D01*
X101630123Y-33917104D01*
X101630123Y-33821866D01*
X101582504Y-33726628D01*
X101534885Y-33679009D01*
X101439647Y-33631390D01*
X101249171Y-33583771D01*
X101153933Y-33536152D01*
X101106314Y-33488533D01*
X101058695Y-33393295D01*
X101058695Y-33298057D01*
X101106314Y-33202819D01*
X101153933Y-33155200D01*
X101249171Y-33107580D01*
X101487266Y-33107580D01*
X101630123Y-33155200D01*
X102582504Y-34107580D02*
X102011076Y-34107580D01*
X102296790Y-34107580D02*
X102296790Y-33107580D01*
X102201552Y-33250438D01*
X102106314Y-33345676D01*
X102011076Y-33393295D01*
%TO.C,R3*%
X92771933Y-95829580D02*
X92438600Y-95353390D01*
X92200504Y-95829580D02*
X92200504Y-94829580D01*
X92581457Y-94829580D01*
X92676695Y-94877200D01*
X92724314Y-94924819D01*
X92771933Y-95020057D01*
X92771933Y-95162914D01*
X92724314Y-95258152D01*
X92676695Y-95305771D01*
X92581457Y-95353390D01*
X92200504Y-95353390D01*
X93105266Y-94829580D02*
X93724314Y-94829580D01*
X93390980Y-95210533D01*
X93533838Y-95210533D01*
X93629076Y-95258152D01*
X93676695Y-95305771D01*
X93724314Y-95401009D01*
X93724314Y-95639104D01*
X93676695Y-95734342D01*
X93629076Y-95781961D01*
X93533838Y-95829580D01*
X93248123Y-95829580D01*
X93152885Y-95781961D01*
X93105266Y-95734342D01*
%TO.C,C2xclass1*%
X55957742Y-32337200D02*
X56005361Y-32384819D01*
X56052980Y-32527676D01*
X56052980Y-32622914D01*
X56005361Y-32765771D01*
X55910123Y-32861009D01*
X55814885Y-32908628D01*
X55624409Y-32956247D01*
X55481552Y-32956247D01*
X55291076Y-32908628D01*
X55195838Y-32861009D01*
X55100600Y-32765771D01*
X55052980Y-32622914D01*
X55052980Y-32527676D01*
X55100600Y-32384819D01*
X55148219Y-32337200D01*
X55148219Y-31956247D02*
X55100600Y-31908628D01*
X55052980Y-31813390D01*
X55052980Y-31575295D01*
X55100600Y-31480057D01*
X55148219Y-31432438D01*
X55243457Y-31384819D01*
X55338695Y-31384819D01*
X55481552Y-31432438D01*
X56052980Y-32003866D01*
X56052980Y-31384819D01*
X56052980Y-31051485D02*
X55386314Y-30527676D01*
X55386314Y-31051485D02*
X56052980Y-30527676D01*
X56005361Y-29718152D02*
X56052980Y-29813390D01*
X56052980Y-30003866D01*
X56005361Y-30099104D01*
X55957742Y-30146723D01*
X55862504Y-30194342D01*
X55576790Y-30194342D01*
X55481552Y-30146723D01*
X55433933Y-30099104D01*
X55386314Y-30003866D01*
X55386314Y-29813390D01*
X55433933Y-29718152D01*
X56052980Y-29146723D02*
X56005361Y-29241961D01*
X55910123Y-29289580D01*
X55052980Y-29289580D01*
X56052980Y-28337200D02*
X55529171Y-28337200D01*
X55433933Y-28384819D01*
X55386314Y-28480057D01*
X55386314Y-28670533D01*
X55433933Y-28765771D01*
X56005361Y-28337200D02*
X56052980Y-28432438D01*
X56052980Y-28670533D01*
X56005361Y-28765771D01*
X55910123Y-28813390D01*
X55814885Y-28813390D01*
X55719647Y-28765771D01*
X55672028Y-28670533D01*
X55672028Y-28432438D01*
X55624409Y-28337200D01*
X56005361Y-27908628D02*
X56052980Y-27813390D01*
X56052980Y-27622914D01*
X56005361Y-27527676D01*
X55910123Y-27480057D01*
X55862504Y-27480057D01*
X55767266Y-27527676D01*
X55719647Y-27622914D01*
X55719647Y-27765771D01*
X55672028Y-27861009D01*
X55576790Y-27908628D01*
X55529171Y-27908628D01*
X55433933Y-27861009D01*
X55386314Y-27765771D01*
X55386314Y-27622914D01*
X55433933Y-27527676D01*
X56005361Y-27099104D02*
X56052980Y-27003866D01*
X56052980Y-26813390D01*
X56005361Y-26718152D01*
X55910123Y-26670533D01*
X55862504Y-26670533D01*
X55767266Y-26718152D01*
X55719647Y-26813390D01*
X55719647Y-26956247D01*
X55672028Y-27051485D01*
X55576790Y-27099104D01*
X55529171Y-27099104D01*
X55433933Y-27051485D01*
X55386314Y-26956247D01*
X55386314Y-26813390D01*
X55433933Y-26718152D01*
X56052980Y-25718152D02*
X56052980Y-26289580D01*
X56052980Y-26003866D02*
X55052980Y-26003866D01*
X55195838Y-26099104D01*
X55291076Y-26194342D01*
X55338695Y-26289580D01*
D12*
%TO.C,F2*%
X49660000Y-51733200D02*
X49660000Y-54533200D01*
X72260000Y-51733200D02*
X72260000Y-54533200D01*
X72260000Y-44933200D02*
X72260000Y-47733200D01*
X49660000Y-44933200D02*
X49660000Y-47733200D01*
X72260000Y-54533200D02*
X49660000Y-54533200D01*
X72260000Y-44933200D02*
X49660000Y-44933200D01*
%TO.C,J4*%
X67412800Y-70813200D02*
X67412800Y-71833200D01*
X67412800Y-61103200D02*
X67412800Y-61673200D01*
X72612800Y-88593200D02*
X72612800Y-89613200D01*
X67412800Y-65733200D02*
X67412800Y-66753200D01*
X67412800Y-61103200D02*
X72612800Y-61103200D01*
X67412800Y-80973200D02*
X67412800Y-81993200D01*
X67412800Y-93673200D02*
X67412800Y-94693200D01*
X72612800Y-63193200D02*
X72612800Y-64213200D01*
X72612800Y-91133200D02*
X72612800Y-92153200D01*
X67412800Y-86053200D02*
X67412800Y-87073200D01*
X67412800Y-78433200D02*
X67412800Y-79453200D01*
X72612800Y-61103200D02*
X72612800Y-61673200D01*
X67412800Y-99323200D02*
X72612800Y-99323200D01*
X67412800Y-88593200D02*
X67412800Y-89613200D01*
X72612800Y-75893200D02*
X72612800Y-76913200D01*
X72612800Y-68273200D02*
X72612800Y-69293200D01*
X72612800Y-83513200D02*
X72612800Y-84533200D01*
X72612800Y-80973200D02*
X72612800Y-81993200D01*
X72612800Y-73353200D02*
X72612800Y-74373200D01*
X67412800Y-98753200D02*
X67412800Y-99323200D01*
X67412800Y-73353200D02*
X67412800Y-74373200D01*
X72612800Y-93673200D02*
X72612800Y-94693200D01*
X67412800Y-91133200D02*
X67412800Y-92153200D01*
X72612800Y-86053200D02*
X72612800Y-87073200D01*
X72612800Y-78433200D02*
X72612800Y-79453200D01*
X67412800Y-68273200D02*
X67412800Y-69293200D01*
X67412800Y-96213200D02*
X67412800Y-97233200D01*
X72612800Y-96213200D02*
X72612800Y-97233200D01*
X72612800Y-70813200D02*
X72612800Y-71833200D01*
X65972800Y-61673200D02*
X67412800Y-61673200D01*
X72612800Y-98753200D02*
X72612800Y-99323200D01*
X67412800Y-63193200D02*
X67412800Y-64213200D01*
X72612800Y-65733200D02*
X72612800Y-66753200D01*
X67412800Y-83513200D02*
X67412800Y-84533200D01*
X67412800Y-75893200D02*
X67412800Y-76913200D01*
%TO.C,Q2*%
X33462600Y-70503200D02*
X43702600Y-70503200D01*
X40433600Y-68993200D02*
X40433600Y-70503200D01*
X36732600Y-68993200D02*
X36732600Y-70503200D01*
X33462600Y-73634200D02*
X43702600Y-73634200D01*
X33462600Y-68993200D02*
X33462600Y-73634200D01*
X33462600Y-68993200D02*
X43702600Y-68993200D01*
X43702600Y-68993200D02*
X43702600Y-73634200D01*
%TO.C,D2*%
X118046000Y-80990000D02*
X117890000Y-80990000D01*
X120362000Y-80990000D02*
X120206000Y-80990000D01*
X120205837Y-83591130D02*
G75*
G03*
X120206000Y-81509039I-1079837J1041130D01*
G01*
X117890484Y-80990000D02*
G75*
G03*
X118047392Y-84222335I1235516J-1560000D01*
G01*
X118046000Y-81509039D02*
G75*
G03*
X118046163Y-83591130I1080000J-1040961D01*
G01*
X120204608Y-84222335D02*
G75*
G03*
X120361516Y-80990000I-1078608J1672335D01*
G01*
%TO.C,D3*%
X120206000Y-94270000D02*
X120362000Y-94270000D01*
X117890000Y-94270000D02*
X118046000Y-94270000D01*
X120206000Y-93750961D02*
G75*
G03*
X120205837Y-91668870I-1080000J1040961D01*
G01*
X118046163Y-91668870D02*
G75*
G03*
X118046000Y-93750961I1079837J-1041130D01*
G01*
X120361516Y-94270000D02*
G75*
G03*
X120204608Y-91037665I-1235516J1560000D01*
G01*
X118047392Y-91037665D02*
G75*
G03*
X117890484Y-94270000I1078608J-1672335D01*
G01*
%TO.C,Q1*%
X85562000Y-95758000D02*
X85562000Y-95108000D01*
X85562000Y-95758000D02*
X85562000Y-97433000D01*
X88682000Y-95758000D02*
X88682000Y-95108000D01*
X88682000Y-95758000D02*
X88682000Y-96408000D01*
%TO.C,R2*%
X112531536Y-87228000D02*
X113985664Y-87228000D01*
X112531536Y-89048000D02*
X113985664Y-89048000D01*
%TO.C,D4*%
X120362000Y-75905000D02*
X120206000Y-75905000D01*
X118046000Y-75905000D02*
X117890000Y-75905000D01*
X120205837Y-78506130D02*
G75*
G03*
X120206000Y-76424039I-1079837J1041130D01*
G01*
X117890484Y-75905000D02*
G75*
G03*
X118047392Y-79137335I1235516J-1560000D01*
G01*
X118046000Y-76424039D02*
G75*
G03*
X118046163Y-78506130I1080000J-1040961D01*
G01*
X120204608Y-79137335D02*
G75*
G03*
X120361516Y-75905000I-1078608J1672335D01*
G01*
%TO.C,J1*%
X120624600Y-55880000D02*
X120624600Y-71120000D01*
X113004600Y-71120000D02*
X120624600Y-71120000D01*
X114274600Y-55880000D02*
X114274600Y-71120000D01*
X113004600Y-55880000D02*
X120624600Y-55880000D01*
X113004600Y-55880000D02*
X113004600Y-71120000D01*
D13*
%TO.C,FL1*%
X87010000Y-40913200D02*
X61010000Y-40913200D01*
X61010000Y-17913200D02*
X87010000Y-17913200D01*
D14*
X60410000Y-21913200D02*
X60410000Y-21913200D01*
D13*
X61010000Y-40913200D02*
X61010000Y-17913200D01*
D14*
X60310000Y-21913200D02*
X60310000Y-21913200D01*
D13*
X87010000Y-17913200D02*
X87010000Y-40913200D01*
D14*
X60310000Y-21913200D02*
X60310000Y-21913200D01*
X60310000Y-21913200D02*
G75*
G03*
X60410000Y-21913200I50000J0D01*
G01*
X60410000Y-21913200D02*
G75*
G03*
X60310000Y-21913200I-50000J0D01*
G01*
X60310000Y-21913200D02*
G75*
G03*
X60410000Y-21913200I50000J0D01*
G01*
D12*
%TO.C,U2*%
X48962000Y-87117000D02*
X56702000Y-87117000D01*
X56762000Y-90817000D02*
X56762000Y-78347000D01*
X56702000Y-87117000D02*
X56702000Y-82047000D01*
X48902000Y-78347000D02*
X48902000Y-90817000D01*
X56702000Y-82047000D02*
X48962000Y-82047000D01*
X48962000Y-82047000D02*
X48962000Y-83582000D01*
X56762000Y-78347000D02*
X48902000Y-78347000D01*
X48962000Y-85582000D02*
X48962000Y-87117000D01*
X48902000Y-90817000D02*
X56762000Y-90817000D01*
X48962000Y-85582000D02*
G75*
G03*
X48962000Y-83582000I0J1000000D01*
G01*
%TO.C,D1*%
X120362000Y-86065000D02*
X120206000Y-86065000D01*
X118046000Y-86065000D02*
X117890000Y-86065000D01*
X120205837Y-88666130D02*
G75*
G03*
X120206000Y-86584039I-1079837J1041130D01*
G01*
X117890484Y-86065000D02*
G75*
G03*
X118047392Y-89297335I1235516J-1560000D01*
G01*
X120204608Y-89297335D02*
G75*
G03*
X120361516Y-86065000I-1078608J1672335D01*
G01*
X118046000Y-86584039D02*
G75*
G03*
X118046163Y-88666130I1080000J-1040961D01*
G01*
%TO.C,J5*%
X100483600Y-83513200D02*
X100483600Y-84533200D01*
X100483600Y-96213200D02*
X100483600Y-97233200D01*
X100483600Y-70813200D02*
X100483600Y-71833200D01*
X105683600Y-75893200D02*
X105683600Y-76913200D01*
X105683600Y-70813200D02*
X105683600Y-71833200D01*
X105683600Y-91133200D02*
X105683600Y-92153200D01*
X100483600Y-61103200D02*
X105683600Y-61103200D01*
X105683600Y-80973200D02*
X105683600Y-81993200D01*
X105683600Y-61103200D02*
X105683600Y-61673200D01*
X100483600Y-63193200D02*
X100483600Y-64213200D01*
X100483600Y-99323200D02*
X105683600Y-99323200D01*
X105683600Y-98753200D02*
X105683600Y-99323200D01*
X99043600Y-61673200D02*
X100483600Y-61673200D01*
X100483600Y-73353200D02*
X100483600Y-74373200D01*
X105683600Y-96213200D02*
X105683600Y-97233200D01*
X105683600Y-63193200D02*
X105683600Y-64213200D01*
X105683600Y-83513200D02*
X105683600Y-84533200D01*
X105683600Y-78433200D02*
X105683600Y-79453200D01*
X100483600Y-80973200D02*
X100483600Y-81993200D01*
X100483600Y-88593200D02*
X100483600Y-89613200D01*
X100483600Y-91133200D02*
X100483600Y-92153200D01*
X105683600Y-86053200D02*
X105683600Y-87073200D01*
X100483600Y-78433200D02*
X100483600Y-79453200D01*
X105683600Y-93673200D02*
X105683600Y-94693200D01*
X100483600Y-65733200D02*
X100483600Y-66753200D01*
X100483600Y-98753200D02*
X100483600Y-99323200D01*
X100483600Y-61103200D02*
X100483600Y-61673200D01*
X105683600Y-73353200D02*
X105683600Y-74373200D01*
X105683600Y-68273200D02*
X105683600Y-69293200D01*
X100483600Y-68273200D02*
X100483600Y-69293200D01*
X105683600Y-88593200D02*
X105683600Y-89613200D01*
X105683600Y-65733200D02*
X105683600Y-66753200D01*
X100483600Y-93673200D02*
X100483600Y-94693200D01*
X100483600Y-75893200D02*
X100483600Y-76913200D01*
X100483600Y-86053200D02*
X100483600Y-87073200D01*
%TO.C,R10*%
X112531536Y-93874000D02*
X113985664Y-93874000D01*
X112531536Y-92054000D02*
X113985664Y-92054000D01*
%TO.C,R11*%
X112531536Y-86254000D02*
X113985664Y-86254000D01*
X112531536Y-84434000D02*
X113985664Y-84434000D01*
%TO.C,R4*%
X93665664Y-98903200D02*
X92211536Y-98903200D01*
X93665664Y-97083200D02*
X92211536Y-97083200D01*
%TO.C,C3*%
X34373348Y-86495200D02*
X36695852Y-86495200D01*
X34373348Y-83075200D02*
X36695852Y-83075200D01*
%TO.C,R6*%
X45331664Y-86419200D02*
X40977536Y-86419200D01*
X45331664Y-82999200D02*
X40977536Y-82999200D01*
%TO.C,R9*%
X92465536Y-86923200D02*
X93919664Y-86923200D01*
X92465536Y-88743200D02*
X93919664Y-88743200D01*
%TO.C,R8*%
X25737536Y-86419200D02*
X30091664Y-86419200D01*
X25737536Y-82999200D02*
X30091664Y-82999200D01*
%TO.C,R5*%
X92096000Y-83092936D02*
X92096000Y-84547064D01*
X90276000Y-83092936D02*
X90276000Y-84547064D01*
%TO.C,C2xclass3*%
X31430600Y-61413700D02*
X32930600Y-61413700D01*
X33680600Y-60663700D02*
X34430600Y-61413700D01*
X34430600Y-61413700D02*
X41670600Y-61413700D01*
X30430600Y-56093700D02*
X30430600Y-57593700D01*
X32930600Y-56673700D02*
X33680600Y-57423700D01*
X31430600Y-56673700D02*
X31430600Y-61413700D01*
X34430600Y-56673700D02*
X41670600Y-56673700D01*
X31430600Y-56673700D02*
X32930600Y-56673700D01*
X33680600Y-57423700D02*
X34430600Y-56673700D01*
X30290600Y-59043700D02*
X31430600Y-59043700D01*
X41670600Y-56673700D02*
X41670600Y-61413700D01*
X32930600Y-61413700D02*
X33680600Y-60663700D01*
X29680600Y-56843700D02*
X31180600Y-56843700D01*
X42810600Y-59043700D02*
X41670600Y-59043700D01*
%TO.C,C1*%
X80344600Y-99821948D02*
X80344600Y-101244452D01*
X82164600Y-99821948D02*
X82164600Y-101244452D01*
%TO.C,J3*%
X34518600Y-99263200D02*
X49758600Y-99263200D01*
X34518600Y-99263200D02*
X34518600Y-91643200D01*
X49758600Y-99263200D02*
X49758600Y-91643200D01*
X34518600Y-91643200D02*
X49758600Y-91643200D01*
X34518600Y-97993200D02*
X49758600Y-97993200D01*
%TO.C,R7*%
X48556600Y-71356136D02*
X48556600Y-75710264D01*
X51976600Y-71356136D02*
X51976600Y-75710264D01*
%TO.C,C2xclass2*%
X31176600Y-54324700D02*
X31176600Y-49584700D01*
X39166600Y-50334700D02*
X38416600Y-49584700D01*
X41416600Y-54324700D02*
X39916600Y-54324700D01*
X42416600Y-54904700D02*
X42416600Y-53404700D01*
X30036600Y-51954700D02*
X31176600Y-51954700D01*
X39166600Y-53574700D02*
X38416600Y-54324700D01*
X43166600Y-54154700D02*
X41666600Y-54154700D01*
X38416600Y-49584700D02*
X31176600Y-49584700D01*
X39916600Y-49584700D02*
X39166600Y-50334700D01*
X42556600Y-51954700D02*
X41416600Y-51954700D01*
X41416600Y-54324700D02*
X41416600Y-49584700D01*
X38416600Y-54324700D02*
X31176600Y-54324700D01*
X39916600Y-54324700D02*
X39166600Y-53574700D01*
X41416600Y-49584700D02*
X39916600Y-49584700D01*
%TO.C,J6*%
X42138600Y-20955200D02*
X42138600Y-36195200D01*
X49758600Y-20955200D02*
X49758600Y-36195200D01*
X43408600Y-20955200D02*
X43408600Y-36195200D01*
X42138600Y-36195200D02*
X49758600Y-36195200D01*
X42138600Y-20955200D02*
X49758600Y-20955200D01*
%TO.C,F1*%
X58086000Y-82800000D02*
X63326000Y-82800000D01*
X58086000Y-67060000D02*
X58086000Y-82800000D01*
X60706000Y-88730000D02*
X60706000Y-82800000D01*
X63326000Y-67060000D02*
X58086000Y-67060000D01*
X63326000Y-82800000D02*
X63326000Y-67060000D01*
X60706000Y-61130000D02*
X60706000Y-67060000D01*
%TO.C,C4*%
X76788600Y-99821948D02*
X76788600Y-101244452D01*
X78608600Y-99821948D02*
X78608600Y-101244452D01*
%TO.C,R1*%
X112556936Y-89514000D02*
X114011064Y-89514000D01*
X112556936Y-91334000D02*
X114011064Y-91334000D01*
D10*
%TO.C,RV1*%
X39756600Y-45511200D02*
X39756600Y-41611200D01*
X27756600Y-45511200D02*
X27756600Y-41611200D01*
X39756600Y-41611200D02*
X27756600Y-41611200D01*
X39756600Y-45511200D02*
X27756600Y-45511200D01*
D12*
%TO.C,PS1*%
X111700000Y-18597500D02*
X91500000Y-18597500D01*
X111700000Y-52797500D02*
X111700000Y-18597500D01*
X105100000Y-18207500D02*
X103090000Y-18207500D01*
X91500000Y-18597500D02*
X91500000Y-52797500D01*
X91500000Y-52797500D02*
X111700000Y-52797500D01*
%TO.C,R3*%
X93665664Y-96363200D02*
X92211536Y-96363200D01*
X93665664Y-94543200D02*
X92211536Y-94543200D01*
%TO.C,C2xclass1*%
X58007500Y-34533200D02*
X53267500Y-34533200D01*
X54017500Y-26543200D02*
X53267500Y-27293200D01*
X53267500Y-24293200D02*
X53267500Y-25793200D01*
X53267500Y-27293200D02*
X53267500Y-34533200D01*
X57837500Y-22543200D02*
X57837500Y-24043200D01*
X58007500Y-24293200D02*
X53267500Y-24293200D01*
X55637500Y-35673200D02*
X55637500Y-34533200D01*
X58007500Y-25793200D02*
X57257500Y-26543200D01*
X58587500Y-23293200D02*
X57087500Y-23293200D01*
X57257500Y-26543200D02*
X58007500Y-27293200D01*
X58007500Y-24293200D02*
X58007500Y-25793200D01*
X53267500Y-25793200D02*
X54017500Y-26543200D01*
X55637500Y-23153200D02*
X55637500Y-24293200D01*
X58007500Y-27293200D02*
X58007500Y-34533200D01*
%TD*%
%LPC*%
D15*
%TO.C,F2*%
X72260000Y-49733200D03*
X49660000Y-49733200D03*
%TD*%
D16*
%TO.C,J4*%
X67487800Y-62433200D03*
X67487800Y-64973200D03*
X67487800Y-67513200D03*
X67487800Y-70053200D03*
X67487800Y-72593200D03*
X67487800Y-75133200D03*
X67487800Y-77673200D03*
X67487800Y-80213200D03*
X67487800Y-82753200D03*
X67487800Y-85293200D03*
X67487800Y-87833200D03*
X67487800Y-90373200D03*
X67487800Y-92913200D03*
X67487800Y-95453200D03*
X67487800Y-97993200D03*
X72537800Y-62433200D03*
X72537800Y-64973200D03*
X72537800Y-67513200D03*
X72537800Y-70053200D03*
X72537800Y-72593200D03*
X72537800Y-75133200D03*
X72537800Y-77673200D03*
X72537800Y-80213200D03*
X72537800Y-82753200D03*
X72537800Y-85293200D03*
X72537800Y-87833200D03*
X72537800Y-90373200D03*
X72537800Y-92913200D03*
X72537800Y-95453200D03*
X72537800Y-97993200D03*
%TD*%
D17*
%TO.C,Q2*%
X36042600Y-72263200D03*
D18*
X38582600Y-72263200D03*
X41122600Y-72263200D03*
%TD*%
D19*
%TO.C,H1*%
X26898600Y-17399200D03*
%TD*%
D20*
%TO.C,D2*%
X119126000Y-81280000D03*
D21*
X119126000Y-83820000D03*
%TD*%
D19*
%TO.C,H4*%
X26898600Y-100965200D03*
%TD*%
D20*
%TO.C,D3*%
X119126000Y-93980000D03*
D21*
X119126000Y-91440000D03*
%TD*%
D22*
%TO.C,Q1*%
X86172000Y-96695500D03*
X88072000Y-96695500D03*
X87122000Y-94820500D03*
%TD*%
D23*
%TO.C,R2*%
X111708600Y-88138000D03*
X114808600Y-88138000D03*
%TD*%
D20*
%TO.C,D4*%
X119126000Y-76195000D03*
D21*
X119126000Y-78735000D03*
%TD*%
D24*
%TO.C,J1*%
X116814600Y-58420000D03*
D15*
X116814600Y-63500000D03*
X116814600Y-68580000D03*
%TD*%
D25*
%TO.C,FL1*%
X63510000Y-21913200D03*
X63510000Y-36913200D03*
X84510000Y-36913200D03*
X84510000Y-21913200D03*
%TD*%
D19*
%TO.C,H2*%
X119380000Y-17780000D03*
%TD*%
D26*
%TO.C,U2*%
X50292000Y-89027000D03*
X52832000Y-89027000D03*
X55372000Y-89027000D03*
X55372000Y-80137000D03*
X52832000Y-80137000D03*
X50292000Y-80137000D03*
%TD*%
D20*
%TO.C,D1*%
X119126000Y-86355000D03*
D21*
X119126000Y-88895000D03*
%TD*%
D19*
%TO.C,H3*%
X119380000Y-101473200D03*
%TD*%
D16*
%TO.C,J5*%
X100558600Y-97993200D03*
X100558600Y-95453200D03*
X105608600Y-62433200D03*
X100558600Y-92913200D03*
X105608600Y-64973200D03*
X100558600Y-90373200D03*
X100558600Y-87833200D03*
X100558600Y-85293200D03*
X105608600Y-67513200D03*
X100558600Y-82753200D03*
X100558600Y-80213200D03*
X105608600Y-70053200D03*
X100558600Y-77673200D03*
X105608600Y-72593200D03*
X100558600Y-75133200D03*
X100558600Y-72593200D03*
X105608600Y-75133200D03*
X100558600Y-70053200D03*
X100558600Y-67513200D03*
X100558600Y-64973200D03*
X105608600Y-77673200D03*
X100558600Y-62433200D03*
X105608600Y-80213200D03*
X105608600Y-82753200D03*
X105608600Y-85293200D03*
X105608600Y-87833200D03*
X105608600Y-90373200D03*
X105608600Y-92913200D03*
X105608600Y-95453200D03*
X105608600Y-97993200D03*
%TD*%
D23*
%TO.C,R10*%
X111708600Y-92964000D03*
X114808600Y-92964000D03*
%TD*%
%TO.C,R11*%
X111708600Y-85344000D03*
X114808600Y-85344000D03*
%TD*%
D27*
%TO.C,R4*%
X94488600Y-97993200D03*
X91388600Y-97993200D03*
%TD*%
D28*
%TO.C,C3*%
X33397100Y-84785200D03*
X37672100Y-84785200D03*
%TD*%
D29*
%TO.C,R6*%
X46117100Y-84709200D03*
X40192100Y-84709200D03*
%TD*%
D23*
%TO.C,R9*%
X91642600Y-87833200D03*
X94742600Y-87833200D03*
%TD*%
D30*
%TO.C,R8*%
X24952100Y-84709200D03*
X30877100Y-84709200D03*
%TD*%
D31*
%TO.C,R5*%
X91186000Y-82270000D03*
X91186000Y-85370000D03*
%TD*%
D32*
%TO.C,C2xclass3*%
X29050600Y-59043700D03*
D33*
X44050600Y-59043700D03*
%TD*%
D34*
%TO.C,C1*%
X81254600Y-98970700D03*
X81254600Y-102095700D03*
%TD*%
D24*
%TO.C,J3*%
X37058600Y-95453200D03*
D15*
X42138600Y-95453200D03*
X47218600Y-95453200D03*
%TD*%
D35*
%TO.C,R7*%
X50266600Y-70570700D03*
X50266600Y-76495700D03*
%TD*%
D32*
%TO.C,C2xclass2*%
X43796600Y-51954700D03*
D33*
X28796600Y-51954700D03*
%TD*%
D24*
%TO.C,J6*%
X45948600Y-23495200D03*
D15*
X45948600Y-28575200D03*
X45948600Y-33655200D03*
%TD*%
D36*
%TO.C,F1*%
X60706000Y-90170000D03*
D37*
X60706000Y-59690000D03*
%TD*%
D34*
%TO.C,C4*%
X77698600Y-98970700D03*
X77698600Y-102095700D03*
%TD*%
D23*
%TO.C,R1*%
X111734000Y-90424000D03*
X114834000Y-90424000D03*
%TD*%
D21*
%TO.C,RV1*%
X37506600Y-44261200D03*
X30006600Y-42861200D03*
%TD*%
D38*
%TO.C,PS1*%
X104100000Y-20997500D03*
D39*
X99100000Y-20997500D03*
X109300000Y-50397500D03*
X93900000Y-50397500D03*
%TD*%
D27*
%TO.C,R3*%
X94488600Y-95453200D03*
X91388600Y-95453200D03*
%TD*%
D32*
%TO.C,C2xclass1*%
X55637500Y-21913200D03*
D33*
X55637500Y-36913200D03*
%TD*%
M02*
