%TF.GenerationSoftware,KiCad,Pcbnew,(6.0.4)*%
%TF.CreationDate,2022-05-12T18:27:44+02:00*%
%TF.ProjectId,projekt_1,70726f6a-656b-4745-9f31-2e6b69636164,rev?*%
%TF.SameCoordinates,Original*%
%TF.FileFunction,Copper,L1,Top*%
%TF.FilePolarity,Positive*%
%FSLAX46Y46*%
G04 Gerber Fmt 4.6, Leading zero omitted, Abs format (unit mm)*
G04 Created by KiCad (PCBNEW (6.0.4)) date 2022-05-12 18:27:44*
%MOMM*%
%LPD*%
G01*
G04 APERTURE LIST*
G04 Aperture macros list*
%AMRoundRect*
0 Rectangle with rounded corners*
0 $1 Rounding radius*
0 $2 $3 $4 $5 $6 $7 $8 $9 X,Y pos of 4 corners*
0 Add a 4 corners polygon primitive as box body*
4,1,4,$2,$3,$4,$5,$6,$7,$8,$9,$2,$3,0*
0 Add four circle primitives for the rounded corners*
1,1,$1+$1,$2,$3*
1,1,$1+$1,$4,$5*
1,1,$1+$1,$6,$7*
1,1,$1+$1,$8,$9*
0 Add four rect primitives between the rounded corners*
20,1,$1+$1,$2,$3,$4,$5,0*
20,1,$1+$1,$4,$5,$6,$7,0*
20,1,$1+$1,$6,$7,$8,$9,0*
20,1,$1+$1,$8,$9,$2,$3,0*%
G04 Aperture macros list end*
%TA.AperFunction,ComponentPad*%
%ADD10C,3.000000*%
%TD*%
%TA.AperFunction,SMDPad,CuDef*%
%ADD11R,3.150000X1.000000*%
%TD*%
%TA.AperFunction,ComponentPad*%
%ADD12O,1.905000X2.000000*%
%TD*%
%TA.AperFunction,ComponentPad*%
%ADD13R,1.905000X2.000000*%
%TD*%
%TA.AperFunction,ComponentPad*%
%ADD14R,1.800000X1.800000*%
%TD*%
%TA.AperFunction,ComponentPad*%
%ADD15C,1.800000*%
%TD*%
%TA.AperFunction,SMDPad,CuDef*%
%ADD16RoundRect,0.150000X0.150000X-0.587500X0.150000X0.587500X-0.150000X0.587500X-0.150000X-0.587500X0*%
%TD*%
%TA.AperFunction,SMDPad,CuDef*%
%ADD17RoundRect,0.250000X-0.400000X-0.625000X0.400000X-0.625000X0.400000X0.625000X-0.400000X0.625000X0*%
%TD*%
%TA.AperFunction,ComponentPad*%
%ADD18R,3.000000X3.000000*%
%TD*%
%TA.AperFunction,ComponentPad*%
%ADD19C,1.500000*%
%TD*%
%TA.AperFunction,SMDPad,CuDef*%
%ADD20R,1.600000X3.100000*%
%TD*%
%TA.AperFunction,SMDPad,CuDef*%
%ADD21RoundRect,0.250000X0.400000X0.625000X-0.400000X0.625000X-0.400000X-0.625000X0.400000X-0.625000X0*%
%TD*%
%TA.AperFunction,SMDPad,CuDef*%
%ADD22RoundRect,0.250000X-0.537500X-1.450000X0.537500X-1.450000X0.537500X1.450000X-0.537500X1.450000X0*%
%TD*%
%TA.AperFunction,SMDPad,CuDef*%
%ADD23RoundRect,0.250000X0.362500X1.425000X-0.362500X1.425000X-0.362500X-1.425000X0.362500X-1.425000X0*%
%TD*%
%TA.AperFunction,SMDPad,CuDef*%
%ADD24RoundRect,0.250000X-0.362500X-1.425000X0.362500X-1.425000X0.362500X1.425000X-0.362500X1.425000X0*%
%TD*%
%TA.AperFunction,SMDPad,CuDef*%
%ADD25RoundRect,0.250000X-0.625000X0.400000X-0.625000X-0.400000X0.625000X-0.400000X0.625000X0.400000X0*%
%TD*%
%TA.AperFunction,ComponentPad*%
%ADD26R,2.000000X2.000000*%
%TD*%
%TA.AperFunction,ComponentPad*%
%ADD27O,2.000000X2.000000*%
%TD*%
%TA.AperFunction,SMDPad,CuDef*%
%ADD28RoundRect,0.250000X-0.650000X0.412500X-0.650000X-0.412500X0.650000X-0.412500X0.650000X0.412500X0*%
%TD*%
%TA.AperFunction,SMDPad,CuDef*%
%ADD29RoundRect,0.250000X-1.425000X0.362500X-1.425000X-0.362500X1.425000X-0.362500X1.425000X0.362500X0*%
%TD*%
%TA.AperFunction,ComponentPad*%
%ADD30C,2.400000*%
%TD*%
%TA.AperFunction,ComponentPad*%
%ADD31O,2.400000X2.400000*%
%TD*%
%TA.AperFunction,ComponentPad*%
%ADD32R,2.000000X2.300000*%
%TD*%
%TA.AperFunction,ComponentPad*%
%ADD33C,2.300000*%
%TD*%
%TA.AperFunction,ViaPad*%
%ADD34C,0.800000*%
%TD*%
%TA.AperFunction,ViaPad*%
%ADD35C,1.000000*%
%TD*%
%TA.AperFunction,Conductor*%
%ADD36C,1.000000*%
%TD*%
%TA.AperFunction,Conductor*%
%ADD37C,2.000000*%
%TD*%
%TA.AperFunction,Conductor*%
%ADD38C,0.500000*%
%TD*%
%TA.AperFunction,Conductor*%
%ADD39C,2.500000*%
%TD*%
G04 APERTURE END LIST*
D10*
%TO.P,F2,1*%
%TO.N,Net-(F1-Pad2)*%
X72260000Y-49733200D03*
%TO.P,F2,2*%
%TO.N,Net-(F2-Pad2)*%
X49660000Y-49733200D03*
%TD*%
D11*
%TO.P,J4,1*%
%TO.N,+3V3*%
X67487800Y-62433200D03*
%TO.P,J4,2*%
%TO.N,/VP*%
X67487800Y-64973200D03*
%TO.P,J4,3*%
%TO.N,/VN*%
X67487800Y-67513200D03*
%TO.P,J4,4*%
%TO.N,/D34*%
X67487800Y-70053200D03*
%TO.P,J4,5*%
%TO.N,/D35*%
X67487800Y-72593200D03*
%TO.P,J4,6*%
%TO.N,/D32*%
X67487800Y-75133200D03*
%TO.P,J4,7*%
%TO.N,/D33*%
X67487800Y-77673200D03*
%TO.P,J4,8*%
%TO.N,/D25*%
X67487800Y-80213200D03*
%TO.P,J4,9*%
%TO.N,/D26*%
X67487800Y-82753200D03*
%TO.P,J4,10*%
%TO.N,/D27*%
X67487800Y-85293200D03*
%TO.P,J4,11*%
%TO.N,/D14*%
X67487800Y-87833200D03*
%TO.P,J4,12*%
%TO.N,/D12*%
X67487800Y-90373200D03*
%TO.P,J4,13*%
%TO.N,/D13*%
X67487800Y-92913200D03*
%TO.P,J4,14*%
%TO.N,GND*%
X67487800Y-95453200D03*
%TO.P,J4,15*%
%TO.N,+5V*%
X67487800Y-97993200D03*
%TO.P,J4,16,Pin_16*%
%TO.N,+3V3*%
X72537800Y-62433200D03*
%TO.P,J4,17,Pin_17*%
%TO.N,/VP*%
X72537800Y-64973200D03*
%TO.P,J4,18,Pin_18*%
%TO.N,/VN*%
X72537800Y-67513200D03*
%TO.P,J4,19,Pin_19*%
%TO.N,/D34*%
X72537800Y-70053200D03*
%TO.P,J4,20,Pin_20*%
%TO.N,/D35*%
X72537800Y-72593200D03*
%TO.P,J4,21,Pin_21*%
%TO.N,/D32*%
X72537800Y-75133200D03*
%TO.P,J4,22,Pin_22*%
%TO.N,/D33*%
X72537800Y-77673200D03*
%TO.P,J4,23,Pin_23*%
%TO.N,/D25*%
X72537800Y-80213200D03*
%TO.P,J4,24,Pin_24*%
%TO.N,/D26*%
X72537800Y-82753200D03*
%TO.P,J4,25,Pin_25*%
%TO.N,/D27*%
X72537800Y-85293200D03*
%TO.P,J4,26,Pin_26*%
%TO.N,/D14*%
X72537800Y-87833200D03*
%TO.P,J4,27,Pin_27*%
%TO.N,/D12*%
X72537800Y-90373200D03*
%TO.P,J4,28,Pin_28*%
%TO.N,/D13*%
X72537800Y-92913200D03*
%TO.P,J4,29,Pin_29*%
%TO.N,GND*%
X72537800Y-95453200D03*
%TO.P,J4,30,Pin_30*%
%TO.N,+5V*%
X72537800Y-97993200D03*
%TD*%
D12*
%TO.P,Q2,3,G*%
%TO.N,Net-(Q2-Pad3)*%
X41122600Y-72263200D03*
%TO.P,Q2,2,A2*%
%TO.N,/L*%
X38582600Y-72263200D03*
D13*
%TO.P,Q2,1,A1*%
%TO.N,Net-(C3-Pad2)*%
X36042600Y-72263200D03*
%TD*%
D14*
%TO.P,D2,1,K*%
%TO.N,GND*%
X119126000Y-81280000D03*
D15*
%TO.P,D2,2,A*%
%TO.N,Net-(D2-Pad2)*%
X119126000Y-83820000D03*
%TD*%
D14*
%TO.P,D3,1,K*%
%TO.N,/Drain*%
X119126000Y-93980000D03*
D15*
%TO.P,D3,2,A*%
%TO.N,Net-(D3-Pad2)*%
X119126000Y-91440000D03*
%TD*%
D16*
%TO.P,Q1,1,G*%
%TO.N,Net-(Q1-Pad1)*%
X86172000Y-96695500D03*
%TO.P,Q1,2,S*%
%TO.N,GND*%
X88072000Y-96695500D03*
%TO.P,Q1,3,D*%
%TO.N,/Drain*%
X87122000Y-94820500D03*
%TD*%
D17*
%TO.P,R2,1*%
%TO.N,/WiFi_LED*%
X111708600Y-88138000D03*
%TO.P,R2,2*%
%TO.N,Net-(D2-Pad2)*%
X114808600Y-88138000D03*
%TD*%
D14*
%TO.P,D4,1,K*%
%TO.N,GND*%
X119126000Y-76195000D03*
D15*
%TO.P,D4,2,A*%
%TO.N,Net-(D4-Pad2)*%
X119126000Y-78735000D03*
%TD*%
D18*
%TO.P,J1,1,Pin_1*%
%TO.N,+5V*%
X116814600Y-58420000D03*
D10*
%TO.P,J1,2,Pin_2*%
%TO.N,/OneWire*%
X116814600Y-63500000D03*
%TO.P,J1,3,Pin_3*%
%TO.N,GND*%
X116814600Y-68580000D03*
%TD*%
D19*
%TO.P,FL1,1,N1_1*%
%TO.N,/N*%
X63510000Y-21913200D03*
%TO.P,FL1,2,N1_2*%
%TO.N,/L*%
X63510000Y-36913200D03*
%TO.P,FL1,3,N2_1*%
%TO.N,Net-(FL1-Pad3)*%
X84510000Y-36913200D03*
%TO.P,FL1,4,N2_2*%
%TO.N,Net-(FL1-Pad4)*%
X84510000Y-21913200D03*
%TD*%
D20*
%TO.P,U2,1*%
%TO.N,Net-(R5-Pad1)*%
X50292000Y-89027000D03*
%TO.P,U2,2*%
%TO.N,/Drain*%
X52832000Y-89027000D03*
%TO.P,U2,3,NC*%
%TO.N,unconnected-(U2-Pad3)*%
X55372000Y-89027000D03*
%TO.P,U2,4*%
%TO.N,Net-(Q2-Pad3)*%
X55372000Y-80137000D03*
%TO.P,U2,5,NC*%
%TO.N,unconnected-(U2-Pad5)*%
X52832000Y-80137000D03*
%TO.P,U2,6*%
%TO.N,Net-(R7-Pad2)*%
X50292000Y-80137000D03*
%TD*%
D14*
%TO.P,D1,1,K*%
%TO.N,GND*%
X119126000Y-86355000D03*
D15*
%TO.P,D1,2,A*%
%TO.N,Net-(D1-Pad2)*%
X119126000Y-88895000D03*
%TD*%
D11*
%TO.P,J5,1,Pin_1*%
%TO.N,/3V3*%
X100558600Y-97993200D03*
%TO.P,J5,2,Pin_2*%
%TO.N,GND*%
X100558600Y-95453200D03*
%TO.N,/D23*%
X105608600Y-62433200D03*
%TO.P,J5,3,Pin_3*%
%TO.N,/WiFi_LED*%
X100558600Y-92913200D03*
%TO.P,J5,4,Pin_4*%
%TO.N,/D22*%
X105608600Y-64973200D03*
%TO.N,/Triac*%
X100558600Y-90373200D03*
%TO.P,J5,5,Pin_5*%
%TO.N,/OneWire*%
X100558600Y-87833200D03*
%TO.P,J5,6,Pin_6*%
%TO.N,/RX2*%
X100558600Y-85293200D03*
%TO.N,/TX0*%
X105608600Y-67513200D03*
%TO.P,J5,7,Pin_7*%
%TO.N,/TX2*%
X100558600Y-82753200D03*
%TO.P,J5,8,Pin_8*%
%TO.N,/Empty*%
X100558600Y-80213200D03*
%TO.N,/RX0*%
X105608600Y-70053200D03*
%TO.P,J5,9,Pin_9*%
%TO.N,/D18?*%
X100558600Y-77673200D03*
%TO.P,J5,10,Pin_10*%
%TO.N,/D21*%
X105608600Y-72593200D03*
%TO.N,/D19*%
X100558600Y-75133200D03*
%TO.P,J5,11,Pin_11*%
%TO.N,/D21*%
X100558600Y-72593200D03*
%TO.P,J5,12,Pin_12*%
%TO.N,/D19*%
X105608600Y-75133200D03*
%TO.N,/RX0*%
X100558600Y-70053200D03*
%TO.P,J5,13,Pin_13*%
%TO.N,/TX0*%
X100558600Y-67513200D03*
%TO.P,J5,14,Pin_14*%
%TO.N,/D22*%
X100558600Y-64973200D03*
%TO.N,/D18?*%
X105608600Y-77673200D03*
%TO.P,J5,15,Pin_15*%
%TO.N,/D23*%
X100558600Y-62433200D03*
%TO.P,J5,16*%
%TO.N,/Empty*%
X105608600Y-80213200D03*
%TO.P,J5,18*%
%TO.N,/TX2*%
X105608600Y-82753200D03*
%TO.P,J5,20*%
%TO.N,/RX2*%
X105608600Y-85293200D03*
%TO.P,J5,22*%
%TO.N,/OneWire*%
X105608600Y-87833200D03*
%TO.P,J5,24*%
%TO.N,/Triac*%
X105608600Y-90373200D03*
%TO.P,J5,26*%
%TO.N,/WiFi_LED*%
X105608600Y-92913200D03*
%TO.P,J5,28*%
%TO.N,N/C*%
X105608600Y-95453200D03*
%TO.P,J5,30*%
X105608600Y-97993200D03*
%TD*%
D17*
%TO.P,R10,1*%
%TO.N,+5V*%
X111708600Y-92964000D03*
%TO.P,R10,2*%
%TO.N,Net-(D3-Pad2)*%
X114808600Y-92964000D03*
%TD*%
%TO.P,R11,1*%
%TO.N,/Empty*%
X111708600Y-85344000D03*
%TO.P,R11,2*%
%TO.N,Net-(D4-Pad2)*%
X114808600Y-85344000D03*
%TD*%
D21*
%TO.P,R4,1*%
%TO.N,GND*%
X94488600Y-97993200D03*
%TO.P,R4,2*%
%TO.N,Net-(Q1-Pad1)*%
X91388600Y-97993200D03*
%TD*%
D22*
%TO.P,C3,1*%
%TO.N,Net-(C3-Pad1)*%
X33397100Y-84785200D03*
%TO.P,C3,2*%
%TO.N,Net-(C3-Pad2)*%
X37672100Y-84785200D03*
%TD*%
D23*
%TO.P,R6,1*%
%TO.N,Net-(Q2-Pad3)*%
X46117100Y-84709200D03*
%TO.P,R6,2*%
%TO.N,Net-(C3-Pad2)*%
X40192100Y-84709200D03*
%TD*%
D17*
%TO.P,R9,1*%
%TO.N,+5V*%
X91642600Y-87833200D03*
%TO.P,R9,2*%
%TO.N,/OneWire*%
X94742600Y-87833200D03*
%TD*%
D24*
%TO.P,R8,2*%
%TO.N,Net-(C3-Pad1)*%
X30877100Y-84709200D03*
%TO.P,R8,1*%
%TO.N,/L*%
X24952100Y-84709200D03*
%TD*%
D25*
%TO.P,R5,1*%
%TO.N,Net-(R5-Pad1)*%
X91186000Y-82270000D03*
%TO.P,R5,2*%
%TO.N,+5V*%
X91186000Y-85370000D03*
%TD*%
D26*
%TO.P,C2xclass3,1*%
%TO.N,/L*%
X29050600Y-59043700D03*
D27*
%TO.P,C2xclass3,2*%
%TO.N,Earth_Protective*%
X44050600Y-59043700D03*
%TD*%
D28*
%TO.P,C1,1*%
%TO.N,+5V*%
X81254600Y-98970700D03*
%TO.P,C1,2*%
%TO.N,GND*%
X81254600Y-102095700D03*
%TD*%
D18*
%TO.P,J3,1,Pin_1*%
%TO.N,Net-(C3-Pad2)*%
X37058600Y-95453200D03*
D10*
%TO.P,J3,2,Pin_2*%
%TO.N,/N*%
X42138600Y-95453200D03*
%TO.P,J3,3,Pin_3*%
%TO.N,Earth_Protective*%
X47218600Y-95453200D03*
%TD*%
D29*
%TO.P,R7,2*%
%TO.N,Net-(R7-Pad2)*%
X50266600Y-76495700D03*
%TO.P,R7,1*%
%TO.N,/L*%
X50266600Y-70570700D03*
%TD*%
D27*
%TO.P,C2xclass2,2*%
%TO.N,/N*%
X28796600Y-51954700D03*
D26*
%TO.P,C2xclass2,1*%
%TO.N,Earth_Protective*%
X43796600Y-51954700D03*
%TD*%
D10*
%TO.P,J6,3,Pin_3*%
%TO.N,Earth_Protective*%
X45948600Y-33655200D03*
%TO.P,J6,2,Pin_2*%
%TO.N,Net-(F2-Pad2)*%
X45948600Y-28575200D03*
D18*
%TO.P,J6,1,Pin_1*%
%TO.N,/N*%
X45948600Y-23495200D03*
%TD*%
D30*
%TO.P,F1,1*%
%TO.N,/L*%
X60706000Y-90170000D03*
D31*
%TO.P,F1,2*%
%TO.N,Net-(F1-Pad2)*%
X60706000Y-59690000D03*
%TD*%
D28*
%TO.P,C4,1*%
%TO.N,+5V*%
X77698600Y-98970700D03*
%TO.P,C4,2*%
%TO.N,GND*%
X77698600Y-102095700D03*
%TD*%
D17*
%TO.P,R1,1*%
%TO.N,+5V*%
X111734000Y-90424000D03*
%TO.P,R1,2*%
%TO.N,Net-(D1-Pad2)*%
X114834000Y-90424000D03*
%TD*%
D15*
%TO.P,RV1,2*%
%TO.N,/L*%
X30006600Y-42861200D03*
%TO.P,RV1,1*%
%TO.N,/N*%
X37506600Y-44261200D03*
%TD*%
D32*
%TO.P,PS1,1,AC/L*%
%TO.N,Net-(FL1-Pad3)*%
X104100000Y-20997500D03*
D33*
%TO.P,PS1,2,AC/N*%
%TO.N,Net-(FL1-Pad4)*%
X99100000Y-20997500D03*
%TO.P,PS1,3,-Vout*%
%TO.N,GND*%
X109300000Y-50397500D03*
%TO.P,PS1,4,+Vout*%
%TO.N,+5V*%
X93900000Y-50397500D03*
%TD*%
D21*
%TO.P,R3,1*%
%TO.N,/Triac*%
X94488600Y-95453200D03*
%TO.P,R3,2*%
%TO.N,Net-(Q1-Pad1)*%
X91388600Y-95453200D03*
%TD*%
D26*
%TO.P,C2xclass1,1*%
%TO.N,/N*%
X55637500Y-21913200D03*
D27*
%TO.P,C2xclass1,2*%
%TO.N,/L*%
X55637500Y-36913200D03*
%TD*%
D34*
%TO.N,GND*%
X64490600Y-95885200D03*
X92684600Y-100965200D03*
X103098600Y-100711200D03*
X96748600Y-82423200D03*
X100304600Y-54483200D03*
X117068600Y-49911200D03*
X101574600Y-45847200D03*
X115290600Y-40259200D03*
X93954600Y-39751200D03*
X85826600Y-59563200D03*
X97002600Y-100457200D03*
X110210600Y-102997200D03*
X117322600Y-96901200D03*
X112242600Y-78359200D03*
X114274600Y-73279200D03*
X96494600Y-67437200D03*
X110718600Y-62357200D03*
X79476600Y-73279200D03*
X85826600Y-69977200D03*
X79222600Y-63373200D03*
X83540600Y-91059200D03*
X82270600Y-85725200D03*
X77444600Y-91313200D03*
X62712600Y-100203200D03*
X72364600Y-100457200D03*
X68554600Y-102997200D03*
X66776600Y-100965200D03*
X113258600Y-100457200D03*
X74930000Y-102489200D03*
X108940600Y-96393200D03*
%TO.N,/Drain*%
X87122000Y-92710000D03*
D35*
X61696600Y-85090000D03*
D34*
%TO.N,/OneWire*%
X109220000Y-85852000D03*
%TO.N,Net-(R5-Pad1)*%
X83820000Y-80772000D03*
D35*
X58928000Y-86868000D03*
%TD*%
D36*
%TO.N,+5V*%
X93972200Y-58420000D02*
X93900000Y-58347800D01*
X116814600Y-58420000D02*
X93972200Y-58420000D01*
D37*
%TO.N,Net-(Q2-Pad3)*%
X43916600Y-75636200D02*
X43916600Y-77597200D01*
X41122600Y-72842200D02*
X43916600Y-75636200D01*
X41122600Y-72263200D02*
X41122600Y-72842200D01*
%TO.N,Net-(C3-Pad2)*%
X37672100Y-81004700D02*
X37672100Y-84785200D01*
X36042600Y-79375200D02*
X37672100Y-81004700D01*
%TO.N,/L*%
X28930600Y-66929200D02*
X28930600Y-66167200D01*
X29050600Y-66809200D02*
X28930600Y-66929200D01*
X29050600Y-59043700D02*
X29050600Y-66809200D01*
X28930600Y-66929200D02*
X37312600Y-66929200D01*
X28676600Y-66675200D02*
X28930600Y-66929200D01*
X31978600Y-93345200D02*
X24952100Y-86318700D01*
X34264600Y-101473200D02*
X31978600Y-99187200D01*
X52044600Y-101473200D02*
X34264600Y-101473200D01*
X60706000Y-92811800D02*
X52044600Y-101473200D01*
X60706000Y-90170000D02*
X60706000Y-92811800D01*
X31978600Y-99187200D02*
X31978600Y-93345200D01*
X24952100Y-86318700D02*
X24952100Y-84709200D01*
X27344600Y-42861200D02*
X30006600Y-42861200D01*
X25374600Y-44831200D02*
X27344600Y-42861200D01*
X25374600Y-55367700D02*
X25374600Y-44831200D01*
X29050600Y-59043700D02*
X25374600Y-55367700D01*
X29050600Y-66301200D02*
X29050600Y-59043700D01*
X24952100Y-84709200D02*
X24952100Y-70399700D01*
X24952100Y-70399700D02*
X29050600Y-66301200D01*
X38582600Y-67000200D02*
X38582600Y-72263200D01*
X48996600Y-66929200D02*
X37058600Y-66929200D01*
X50266600Y-68199200D02*
X48996600Y-66929200D01*
X50266600Y-70570700D02*
X50266600Y-68199200D01*
%TO.N,Net-(C3-Pad1)*%
X33321100Y-84709200D02*
X33397100Y-84785200D01*
X30877100Y-84709200D02*
X33321100Y-84709200D01*
%TO.N,Net-(Q2-Pad3)*%
X55372000Y-82804000D02*
X55372000Y-80137000D01*
X53466800Y-84709200D02*
X55372000Y-82804000D01*
X43916600Y-82508700D02*
X46117100Y-84709200D01*
X43916600Y-77089200D02*
X43916600Y-82508700D01*
X46117100Y-84709200D02*
X53466800Y-84709200D01*
%TO.N,Net-(C3-Pad2)*%
X37672100Y-84785200D02*
X40116100Y-84785200D01*
X40116100Y-84785200D02*
X40192100Y-84709200D01*
X36042600Y-72263200D02*
X36042600Y-79192200D01*
X37672100Y-94839700D02*
X37058600Y-95453200D01*
X37672100Y-84785200D02*
X37672100Y-94839700D01*
%TO.N,/L*%
X52850600Y-36913200D02*
X55637500Y-36913200D01*
X50266600Y-39497200D02*
X52850600Y-36913200D01*
X33370600Y-39497200D02*
X50266600Y-39497200D01*
X30006600Y-42861200D02*
X33370600Y-39497200D01*
%TO.N,Net-(R7-Pad2)*%
X50292000Y-76521100D02*
X50266600Y-76495700D01*
X50292000Y-80137000D02*
X50292000Y-76521100D01*
%TO.N,/N*%
X37058600Y-46863200D02*
X37506600Y-46415200D01*
X37506600Y-46415200D02*
X37506600Y-44261200D01*
X33888100Y-46863200D02*
X37058600Y-46863200D01*
X28796600Y-51954700D02*
X33888100Y-46863200D01*
X49504600Y-23495200D02*
X51086600Y-21913200D01*
X45948600Y-23495200D02*
X49504600Y-23495200D01*
X51086600Y-21913200D02*
X55637500Y-21913200D01*
%TO.N,/L*%
X55637500Y-36913200D02*
X63510000Y-36913200D01*
D38*
%TO.N,GND*%
X67487800Y-95453200D02*
X72537800Y-95453200D01*
%TO.N,Net-(D1-Pad2)*%
X118613000Y-89408000D02*
X119126000Y-88895000D01*
X116332000Y-90424000D02*
X117348000Y-89408000D01*
X117348000Y-89408000D02*
X118613000Y-89408000D01*
X114834000Y-90424000D02*
X116332000Y-90424000D01*
%TO.N,Net-(D2-Pad2)*%
X116840000Y-86614000D02*
X116840000Y-84328000D01*
X115316000Y-88138000D02*
X116840000Y-86614000D01*
X114808600Y-88138000D02*
X115316000Y-88138000D01*
X117348000Y-83820000D02*
X119126000Y-83820000D01*
X116840000Y-84328000D02*
X117348000Y-83820000D01*
D36*
%TO.N,/Drain*%
X57124600Y-86487200D02*
X53822600Y-86487200D01*
X52832000Y-87477800D02*
X52832000Y-89027000D01*
X87122000Y-94820500D02*
X87122000Y-92710000D01*
X53822600Y-86487200D02*
X52832000Y-87477800D01*
X61696600Y-85090000D02*
X58521800Y-85090000D01*
X58521800Y-85090000D02*
X57124600Y-86487200D01*
D38*
%TO.N,Net-(D3-Pad2)*%
X117348000Y-91440000D02*
X119126000Y-91440000D01*
X117094000Y-92456000D02*
X117094000Y-91694000D01*
X117094000Y-91694000D02*
X117348000Y-91440000D01*
X116586000Y-92964000D02*
X117094000Y-92456000D01*
X114808600Y-92964000D02*
X116586000Y-92964000D01*
%TO.N,Net-(D4-Pad2)*%
X117856000Y-78486000D02*
X118877000Y-78486000D01*
X114808600Y-85344000D02*
X114808600Y-81533400D01*
X118877000Y-78486000D02*
X119126000Y-78735000D01*
X114808600Y-81533400D02*
X117856000Y-78486000D01*
D37*
%TO.N,Net-(F1-Pad2)*%
X60706000Y-56134000D02*
X60706000Y-59690000D01*
X72260000Y-49733200D02*
X67106800Y-49733200D01*
X67106800Y-49733200D02*
X60706000Y-56134000D01*
%TO.N,/N*%
X55637500Y-21913200D02*
X63510000Y-21913200D01*
D36*
%TO.N,+5V*%
X76721100Y-97993200D02*
X77698600Y-98970700D01*
X93293800Y-85370000D02*
X93900000Y-84763800D01*
X83578100Y-98970700D02*
X87604600Y-102997200D01*
X111734000Y-92938600D02*
X111708600Y-92964000D01*
X89966800Y-87833200D02*
X81254600Y-96545400D01*
X81254600Y-96545400D02*
X81254600Y-98970700D01*
X111708600Y-97943200D02*
X111708600Y-92964000D01*
D38*
X91186000Y-87376600D02*
X91642600Y-87833200D01*
D36*
X111734000Y-90424000D02*
X111734000Y-92938600D01*
X93900000Y-58347800D02*
X93900000Y-50397500D01*
X67487800Y-97993200D02*
X72537800Y-97993200D01*
X72537800Y-97993200D02*
X76721100Y-97993200D01*
X77698600Y-98970700D02*
X81254600Y-98970700D01*
X93900000Y-84763800D02*
X93900000Y-58347800D01*
X83578100Y-98970700D02*
X81254600Y-98970700D01*
X91642600Y-87833200D02*
X89966800Y-87833200D01*
X91186000Y-85370000D02*
X93293800Y-85370000D01*
X91186000Y-85370000D02*
X91186000Y-87376600D01*
X87604600Y-102997200D02*
X106654600Y-102997200D01*
X106654600Y-102997200D02*
X111708600Y-97943200D01*
D38*
%TO.N,/OneWire*%
X105608600Y-87833200D02*
X100558600Y-87833200D01*
X109220000Y-85852000D02*
X109220000Y-87122000D01*
X109220000Y-87122000D02*
X108508800Y-87833200D01*
X94742600Y-87833200D02*
X100558600Y-87833200D01*
X108508800Y-87833200D02*
X105608600Y-87833200D01*
%TO.N,/WiFi_LED*%
X109474000Y-90122800D02*
X109474000Y-89154000D01*
X106683600Y-92913200D02*
X109474000Y-90122800D01*
X100558600Y-92913200D02*
X105608600Y-92913200D01*
X109474000Y-89154000D02*
X110490000Y-88138000D01*
X105608600Y-92913200D02*
X106683600Y-92913200D01*
X110490000Y-88138000D02*
X111708600Y-88138000D01*
D36*
%TO.N,/Triac*%
X96520000Y-91440000D02*
X97586800Y-90373200D01*
X94488600Y-95453200D02*
X96520000Y-93421800D01*
X97586800Y-90373200D02*
X100558600Y-90373200D01*
D38*
X100558600Y-90373200D02*
X105608600Y-90373200D01*
D36*
X96520000Y-93421800D02*
X96520000Y-91440000D01*
D38*
%TO.N,/RX2*%
X100558600Y-85293200D02*
X105608600Y-85293200D01*
%TO.N,/TX2*%
X100558600Y-82753200D02*
X100558600Y-82778600D01*
X100558600Y-82778600D02*
X100584000Y-82804000D01*
X100634800Y-82753200D02*
X105608600Y-82753200D01*
X100584000Y-82804000D02*
X100634800Y-82753200D01*
%TO.N,/Empty*%
X109220000Y-82749600D02*
X109220000Y-83820000D01*
X105608600Y-80213200D02*
X100558600Y-80213200D01*
X105608600Y-80213200D02*
X106683600Y-80213200D01*
X109220000Y-83820000D02*
X110744000Y-85344000D01*
X110744000Y-85344000D02*
X111708600Y-85344000D01*
X106683600Y-80213200D02*
X109220000Y-82749600D01*
%TO.N,/D18?*%
X100558600Y-77698600D02*
X100584000Y-77724000D01*
X100584000Y-77724000D02*
X100634800Y-77673200D01*
X100634800Y-77673200D02*
X105608600Y-77673200D01*
X100558600Y-77673200D02*
X100558600Y-77698600D01*
%TO.N,/D19*%
X100558600Y-75158600D02*
X100584000Y-75184000D01*
X100584000Y-75184000D02*
X100634800Y-75133200D01*
X100558600Y-75133200D02*
X100558600Y-75158600D01*
X100634800Y-75133200D02*
X105608600Y-75133200D01*
%TO.N,/D21*%
X100558600Y-72593200D02*
X105608600Y-72593200D01*
%TO.N,/RX0*%
X100558600Y-70078600D02*
X100584000Y-70104000D01*
X100558600Y-70053200D02*
X100558600Y-70078600D01*
X100584000Y-70104000D02*
X100634800Y-70053200D01*
X100634800Y-70053200D02*
X105608600Y-70053200D01*
%TO.N,/TX0*%
X100558600Y-67513200D02*
X105608600Y-67513200D01*
%TO.N,/D22*%
X100558600Y-64973200D02*
X105608600Y-64973200D01*
%TO.N,/D23*%
X100558600Y-62433200D02*
X105608600Y-62433200D01*
D36*
%TO.N,Net-(Q1-Pad1)*%
X86172000Y-99126000D02*
X87122000Y-100076000D01*
X86172000Y-99126000D02*
X86172000Y-96695500D01*
X91388600Y-95453200D02*
X91388600Y-97993200D01*
X90424000Y-100076000D02*
X91388600Y-99111400D01*
X87122000Y-100076000D02*
X90424000Y-100076000D01*
X91388600Y-99111400D02*
X91388600Y-97993200D01*
D38*
%TO.N,Net-(R5-Pad1)*%
X83820000Y-80772000D02*
X83885800Y-80706200D01*
D36*
X57886600Y-87909400D02*
X57886600Y-91821200D01*
X50927200Y-91821200D02*
X50546000Y-91440000D01*
D38*
X50546000Y-91440000D02*
X50292000Y-91186000D01*
D36*
X50292000Y-91186000D02*
X50292000Y-89027000D01*
X88580200Y-80706200D02*
X90144000Y-82270000D01*
X83885800Y-80706200D02*
X88580200Y-80706200D01*
X90144000Y-82270000D02*
X91186000Y-82270000D01*
X57886600Y-91821200D02*
X50927200Y-91821200D01*
X58928000Y-86868000D02*
X57886600Y-87909400D01*
D39*
%TO.N,Net-(FL1-Pad3)*%
X104100000Y-25694000D02*
X104100000Y-20997500D01*
X84510000Y-36913200D02*
X84510000Y-33600000D01*
X89154000Y-28956000D02*
X100838000Y-28956000D01*
X100838000Y-28956000D02*
X104100000Y-25694000D01*
X84510000Y-33600000D02*
X89154000Y-28956000D01*
%TO.N,Net-(FL1-Pad4)*%
X93556500Y-20997500D02*
X99100000Y-20997500D01*
X92640800Y-21913200D02*
X93556500Y-20997500D01*
X84510000Y-21913200D02*
X92640800Y-21913200D01*
D38*
%TO.N,+3V3*%
X67487800Y-62433200D02*
X72537800Y-62433200D01*
%TO.N,/VP*%
X67487800Y-64973200D02*
X72537800Y-64973200D01*
%TO.N,/VN*%
X67487800Y-67513200D02*
X72537800Y-67513200D01*
%TO.N,/D34*%
X67487800Y-70053200D02*
X72537800Y-70053200D01*
%TO.N,/D35*%
X67487800Y-72593200D02*
X72537800Y-72593200D01*
%TO.N,/D32*%
X67487800Y-75133200D02*
X72537800Y-75133200D01*
%TO.N,/D33*%
X67487800Y-77673200D02*
X72537800Y-77673200D01*
%TO.N,/D25*%
X67487800Y-80213200D02*
X72537800Y-80213200D01*
%TO.N,/D26*%
X67487800Y-82753200D02*
X72537800Y-82753200D01*
%TO.N,/D27*%
X67487800Y-85293200D02*
X72537800Y-85293200D01*
%TO.N,/D14*%
X67487800Y-87833200D02*
X72537800Y-87833200D01*
%TO.N,/D12*%
X67487800Y-90373200D02*
X72537800Y-90373200D01*
%TO.N,/D13*%
X67487800Y-92913200D02*
X72537800Y-92913200D01*
%TD*%
%TA.AperFunction,Conductor*%
%TO.N,GND*%
G36*
X121920000Y-104014000D02*
G01*
X121899998Y-104082121D01*
X121846342Y-104128614D01*
X121794000Y-104140000D01*
X107158917Y-104140000D01*
X107090796Y-104119998D01*
X107044303Y-104066342D01*
X107034199Y-103996068D01*
X107063693Y-103931488D01*
X107099767Y-103902747D01*
X107122862Y-103890468D01*
X107124026Y-103889857D01*
X107201053Y-103849929D01*
X107206526Y-103847092D01*
X107210689Y-103843769D01*
X107215396Y-103841266D01*
X107287518Y-103782445D01*
X107288374Y-103781754D01*
X107327573Y-103750462D01*
X107330077Y-103747958D01*
X107330795Y-103747316D01*
X107335128Y-103743615D01*
X107368662Y-103716265D01*
X107375246Y-103708307D01*
X107397887Y-103680938D01*
X107405877Y-103672158D01*
X109345332Y-101732703D01*
X117270743Y-101732703D01*
X117308268Y-102017734D01*
X117384129Y-102295036D01*
X117385813Y-102298984D01*
X117495140Y-102555295D01*
X117496923Y-102559476D01*
X117554760Y-102656114D01*
X117626423Y-102775854D01*
X117644561Y-102806161D01*
X117824313Y-103030528D01*
X117909061Y-103110951D01*
X118005179Y-103202163D01*
X118032851Y-103228423D01*
X118266317Y-103396186D01*
X118270112Y-103398195D01*
X118270113Y-103398196D01*
X118291869Y-103409715D01*
X118520392Y-103530712D01*
X118790373Y-103629511D01*
X119071264Y-103690755D01*
X119099841Y-103693004D01*
X119294282Y-103708307D01*
X119294291Y-103708307D01*
X119296739Y-103708500D01*
X119452271Y-103708500D01*
X119454407Y-103708354D01*
X119454418Y-103708354D01*
X119662548Y-103694165D01*
X119662554Y-103694164D01*
X119666825Y-103693873D01*
X119671020Y-103693004D01*
X119671022Y-103693004D01*
X119807584Y-103664723D01*
X119948342Y-103635574D01*
X120219343Y-103539607D01*
X120474812Y-103407750D01*
X120478313Y-103405289D01*
X120478317Y-103405287D01*
X120676217Y-103266200D01*
X120710023Y-103242441D01*
X120920622Y-103046740D01*
X121102713Y-102824268D01*
X121252927Y-102579142D01*
X121260534Y-102561814D01*
X121366757Y-102319830D01*
X121368483Y-102315898D01*
X121447244Y-102039406D01*
X121487751Y-101754784D01*
X121487823Y-101741202D01*
X121489235Y-101471583D01*
X121489235Y-101471576D01*
X121489257Y-101467297D01*
X121451732Y-101182266D01*
X121375871Y-100904964D01*
X121313928Y-100759742D01*
X121264763Y-100644476D01*
X121264761Y-100644472D01*
X121263077Y-100640524D01*
X121115439Y-100393839D01*
X120935687Y-100169472D01*
X120754930Y-99997940D01*
X120730258Y-99974527D01*
X120730255Y-99974525D01*
X120727149Y-99971577D01*
X120493683Y-99803814D01*
X120471843Y-99792250D01*
X120403688Y-99756164D01*
X120239608Y-99669288D01*
X119969627Y-99570489D01*
X119688736Y-99509245D01*
X119649969Y-99506194D01*
X119465718Y-99491693D01*
X119465709Y-99491693D01*
X119463261Y-99491500D01*
X119307729Y-99491500D01*
X119305593Y-99491646D01*
X119305582Y-99491646D01*
X119097452Y-99505835D01*
X119097446Y-99505836D01*
X119093175Y-99506127D01*
X119088980Y-99506996D01*
X119088978Y-99506996D01*
X119045432Y-99516014D01*
X118811658Y-99564426D01*
X118540657Y-99660393D01*
X118536848Y-99662359D01*
X118355104Y-99756164D01*
X118285188Y-99792250D01*
X118281687Y-99794711D01*
X118281683Y-99794713D01*
X118271594Y-99801804D01*
X118049977Y-99957559D01*
X118034892Y-99971577D01*
X117852181Y-100141363D01*
X117839378Y-100153260D01*
X117657287Y-100375732D01*
X117507073Y-100620858D01*
X117505347Y-100624791D01*
X117505346Y-100624792D01*
X117401528Y-100861296D01*
X117391517Y-100884102D01*
X117390342Y-100888229D01*
X117390341Y-100888230D01*
X117380559Y-100922569D01*
X117312756Y-101160594D01*
X117272249Y-101445216D01*
X117272227Y-101449505D01*
X117272226Y-101449512D01*
X117271249Y-101636055D01*
X117270743Y-101732703D01*
X109345332Y-101732703D01*
X112377979Y-98700055D01*
X112388122Y-98690953D01*
X112412818Y-98671097D01*
X112417625Y-98667232D01*
X112449920Y-98628744D01*
X112453078Y-98625125D01*
X112454724Y-98623310D01*
X112456909Y-98621125D01*
X112458864Y-98618745D01*
X112458873Y-98618735D01*
X112484149Y-98587964D01*
X112484991Y-98586949D01*
X112523266Y-98541334D01*
X112544754Y-98515726D01*
X112547323Y-98511052D01*
X112550702Y-98506939D01*
X112594575Y-98425115D01*
X112595184Y-98423993D01*
X112637064Y-98347814D01*
X112637065Y-98347812D01*
X112640033Y-98342413D01*
X112641645Y-98337331D01*
X112644162Y-98332637D01*
X112671362Y-98243669D01*
X112671708Y-98242558D01*
X112675880Y-98229409D01*
X112699835Y-98153894D01*
X112700429Y-98148598D01*
X112701987Y-98143502D01*
X112711390Y-98050943D01*
X112711511Y-98049807D01*
X112715281Y-98016192D01*
X112716708Y-98003470D01*
X112716708Y-98003466D01*
X112717100Y-97999973D01*
X112717100Y-97996446D01*
X112717155Y-97995461D01*
X112717602Y-97989781D01*
X112720840Y-97957906D01*
X112721352Y-97952863D01*
X112721352Y-97952861D01*
X112721974Y-97946738D01*
X112717659Y-97901091D01*
X112717100Y-97889233D01*
X112717100Y-94083100D01*
X112735840Y-94016984D01*
X112796875Y-93917968D01*
X112796876Y-93917966D01*
X112800715Y-93911738D01*
X112856397Y-93743861D01*
X112859513Y-93713454D01*
X112862979Y-93679620D01*
X112867100Y-93639400D01*
X113650100Y-93639400D01*
X113650437Y-93642646D01*
X113650437Y-93642650D01*
X113659210Y-93727199D01*
X113661074Y-93745166D01*
X113663255Y-93751702D01*
X113663255Y-93751704D01*
X113698862Y-93858429D01*
X113717050Y-93912946D01*
X113810122Y-94063348D01*
X113935297Y-94188305D01*
X113941527Y-94192145D01*
X113941528Y-94192146D01*
X114078690Y-94276694D01*
X114085862Y-94281115D01*
X114165605Y-94307564D01*
X114247211Y-94334632D01*
X114247213Y-94334632D01*
X114253739Y-94336797D01*
X114260575Y-94337497D01*
X114260578Y-94337498D01*
X114303631Y-94341909D01*
X114358200Y-94347500D01*
X115259000Y-94347500D01*
X115262246Y-94347163D01*
X115262250Y-94347163D01*
X115357908Y-94337238D01*
X115357912Y-94337237D01*
X115364766Y-94336526D01*
X115371302Y-94334345D01*
X115371304Y-94334345D01*
X115503406Y-94290272D01*
X115532546Y-94280550D01*
X115682948Y-94187478D01*
X115734252Y-94136085D01*
X115749761Y-94120549D01*
X115807905Y-94062303D01*
X115858575Y-93980101D01*
X115896875Y-93917968D01*
X115896876Y-93917966D01*
X115900715Y-93911738D01*
X115934847Y-93808833D01*
X115975278Y-93750473D01*
X116040842Y-93723236D01*
X116054440Y-93722500D01*
X116518930Y-93722500D01*
X116537880Y-93723933D01*
X116552115Y-93726099D01*
X116552119Y-93726099D01*
X116559349Y-93727199D01*
X116566641Y-93726606D01*
X116566644Y-93726606D01*
X116612018Y-93722915D01*
X116622233Y-93722500D01*
X116630293Y-93722500D01*
X116643583Y-93720951D01*
X116658507Y-93719211D01*
X116662882Y-93718778D01*
X116728339Y-93713454D01*
X116728342Y-93713453D01*
X116735637Y-93712860D01*
X116742601Y-93710604D01*
X116748560Y-93709413D01*
X116754415Y-93708029D01*
X116761681Y-93707182D01*
X116830327Y-93682265D01*
X116834455Y-93680848D01*
X116896936Y-93660607D01*
X116896938Y-93660606D01*
X116903899Y-93658351D01*
X116910154Y-93654555D01*
X116915628Y-93652049D01*
X116921058Y-93649330D01*
X116927937Y-93646833D01*
X116934317Y-93642650D01*
X116988976Y-93606814D01*
X116992680Y-93604477D01*
X117055107Y-93566595D01*
X117063484Y-93559197D01*
X117063508Y-93559224D01*
X117066500Y-93556571D01*
X117069733Y-93553868D01*
X117075852Y-93549856D01*
X117129128Y-93493617D01*
X117131506Y-93491175D01*
X117502405Y-93120276D01*
X117564717Y-93086250D01*
X117635532Y-93091315D01*
X117692368Y-93133862D01*
X117717179Y-93200382D01*
X117717500Y-93209371D01*
X117717500Y-94928134D01*
X117724255Y-94990316D01*
X117775385Y-95126705D01*
X117862739Y-95243261D01*
X117979295Y-95330615D01*
X118115684Y-95381745D01*
X118177866Y-95388500D01*
X120074134Y-95388500D01*
X120136316Y-95381745D01*
X120272705Y-95330615D01*
X120389261Y-95243261D01*
X120476615Y-95126705D01*
X120527745Y-94990316D01*
X120534500Y-94928134D01*
X120534500Y-93031866D01*
X120527745Y-92969684D01*
X120476615Y-92833295D01*
X120389261Y-92716739D01*
X120272705Y-92629385D01*
X120264296Y-92626233D01*
X120264295Y-92626232D01*
X120205804Y-92604305D01*
X120149039Y-92561664D01*
X120124339Y-92495103D01*
X120139546Y-92425754D01*
X120161093Y-92397073D01*
X120198636Y-92359660D01*
X120198640Y-92359655D01*
X120202303Y-92356005D01*
X120217801Y-92334438D01*
X120245791Y-92295485D01*
X120337458Y-92167917D01*
X120341713Y-92159309D01*
X120437784Y-91964922D01*
X120437785Y-91964920D01*
X120440078Y-91960280D01*
X120507408Y-91738671D01*
X120537640Y-91509041D01*
X120539327Y-91440000D01*
X120527218Y-91292716D01*
X120520773Y-91214318D01*
X120520772Y-91214312D01*
X120520349Y-91209167D01*
X120479469Y-91046417D01*
X120465184Y-90989544D01*
X120465183Y-90989540D01*
X120463925Y-90984533D01*
X120458617Y-90972325D01*
X120373630Y-90776868D01*
X120373628Y-90776865D01*
X120371570Y-90772131D01*
X120245764Y-90577665D01*
X120089887Y-90406358D01*
X120085836Y-90403159D01*
X120085832Y-90403155D01*
X119909750Y-90264095D01*
X119868687Y-90206178D01*
X119865455Y-90135255D01*
X119901080Y-90073844D01*
X119914671Y-90062637D01*
X120038243Y-89974494D01*
X120202303Y-89811005D01*
X120337458Y-89622917D01*
X120345434Y-89606780D01*
X120437784Y-89419922D01*
X120437785Y-89419920D01*
X120440078Y-89415280D01*
X120507408Y-89193671D01*
X120537640Y-88964041D01*
X120538283Y-88937721D01*
X120539245Y-88898365D01*
X120539245Y-88898361D01*
X120539327Y-88895000D01*
X120529743Y-88778429D01*
X120520773Y-88669318D01*
X120520772Y-88669312D01*
X120520349Y-88664167D01*
X120484288Y-88520601D01*
X120465184Y-88444544D01*
X120465183Y-88444540D01*
X120463925Y-88439533D01*
X120457527Y-88424819D01*
X120373630Y-88231868D01*
X120373628Y-88231865D01*
X120371570Y-88227131D01*
X120245764Y-88032665D01*
X120155486Y-87933450D01*
X120124434Y-87869605D01*
X120132829Y-87799106D01*
X120178005Y-87744338D01*
X120204449Y-87730669D01*
X120264054Y-87708324D01*
X120279649Y-87699786D01*
X120381724Y-87623285D01*
X120394285Y-87610724D01*
X120470786Y-87508649D01*
X120479324Y-87493054D01*
X120524478Y-87372606D01*
X120528105Y-87357351D01*
X120533631Y-87306486D01*
X120534000Y-87299672D01*
X120534000Y-86627115D01*
X120529525Y-86611876D01*
X120528135Y-86610671D01*
X120520452Y-86609000D01*
X118998000Y-86609000D01*
X118929879Y-86588998D01*
X118883386Y-86535342D01*
X118872000Y-86483000D01*
X118872000Y-86227000D01*
X118892002Y-86158879D01*
X118945658Y-86112386D01*
X118998000Y-86101000D01*
X120515884Y-86101000D01*
X120531123Y-86096525D01*
X120532328Y-86095135D01*
X120533999Y-86087452D01*
X120533999Y-85410331D01*
X120533629Y-85403510D01*
X120528105Y-85352648D01*
X120524479Y-85337396D01*
X120479324Y-85216946D01*
X120470786Y-85201351D01*
X120394285Y-85099276D01*
X120381724Y-85086715D01*
X120279649Y-85010214D01*
X120264056Y-85001677D01*
X120209059Y-84981059D01*
X120152295Y-84938417D01*
X120127596Y-84871855D01*
X120142804Y-84802506D01*
X120164350Y-84773826D01*
X120198642Y-84739653D01*
X120202303Y-84736005D01*
X120221110Y-84709833D01*
X120245791Y-84675485D01*
X120337458Y-84547917D01*
X120341713Y-84539309D01*
X120437784Y-84344922D01*
X120437785Y-84344920D01*
X120440078Y-84340280D01*
X120507408Y-84118671D01*
X120537640Y-83889041D01*
X120539327Y-83820000D01*
X120529332Y-83698429D01*
X120520773Y-83594318D01*
X120520772Y-83594312D01*
X120520349Y-83589167D01*
X120486304Y-83453629D01*
X120465184Y-83369544D01*
X120465183Y-83369540D01*
X120463925Y-83364533D01*
X120461204Y-83358275D01*
X120373630Y-83156868D01*
X120373628Y-83156865D01*
X120371570Y-83152131D01*
X120245764Y-82957665D01*
X120238355Y-82949522D01*
X120155486Y-82858451D01*
X120124434Y-82794605D01*
X120132829Y-82724106D01*
X120178005Y-82669338D01*
X120204449Y-82655669D01*
X120264054Y-82633324D01*
X120279649Y-82624786D01*
X120381724Y-82548285D01*
X120394285Y-82535724D01*
X120470786Y-82433649D01*
X120479324Y-82418054D01*
X120524478Y-82297606D01*
X120528105Y-82282351D01*
X120533631Y-82231486D01*
X120534000Y-82224672D01*
X120534000Y-81552115D01*
X120529525Y-81536876D01*
X120528135Y-81535671D01*
X120520452Y-81534000D01*
X117736116Y-81534000D01*
X117720877Y-81538475D01*
X117719672Y-81539865D01*
X117718001Y-81547548D01*
X117718001Y-82224669D01*
X117718371Y-82231490D01*
X117723895Y-82282352D01*
X117727521Y-82297604D01*
X117772676Y-82418054D01*
X117781214Y-82433649D01*
X117857715Y-82535724D01*
X117870276Y-82548285D01*
X117972351Y-82624786D01*
X117987946Y-82633324D01*
X118047540Y-82655665D01*
X118104304Y-82698307D01*
X118129004Y-82764868D01*
X118113796Y-82834217D01*
X118094404Y-82860698D01*
X118027639Y-82930564D01*
X118009152Y-82957665D01*
X117975835Y-83006505D01*
X117920923Y-83051507D01*
X117871747Y-83061500D01*
X117415063Y-83061500D01*
X117396114Y-83060067D01*
X117395907Y-83060036D01*
X117374651Y-83056802D01*
X117367359Y-83057395D01*
X117367356Y-83057395D01*
X117321991Y-83061085D01*
X117311777Y-83061500D01*
X117303707Y-83061500D01*
X117300087Y-83061922D01*
X117300069Y-83061923D01*
X117275461Y-83064792D01*
X117271100Y-83065224D01*
X117245981Y-83067267D01*
X117205661Y-83070546D01*
X117205658Y-83070547D01*
X117198363Y-83071140D01*
X117191399Y-83073396D01*
X117185440Y-83074587D01*
X117179585Y-83075971D01*
X117172319Y-83076818D01*
X117103673Y-83101735D01*
X117099545Y-83103152D01*
X117037064Y-83123393D01*
X117037062Y-83123394D01*
X117030101Y-83125649D01*
X117023846Y-83129445D01*
X117018372Y-83131951D01*
X117012942Y-83134670D01*
X117006063Y-83137167D01*
X116945016Y-83177191D01*
X116941327Y-83179518D01*
X116921135Y-83191771D01*
X116883693Y-83214491D01*
X116883688Y-83214495D01*
X116878892Y-83217405D01*
X116870516Y-83224803D01*
X116870493Y-83224777D01*
X116867503Y-83227426D01*
X116864264Y-83230134D01*
X116858148Y-83234144D01*
X116853121Y-83239451D01*
X116853117Y-83239454D01*
X116804872Y-83290383D01*
X116802494Y-83292825D01*
X116351089Y-83744230D01*
X116336677Y-83756616D01*
X116325082Y-83765149D01*
X116325077Y-83765154D01*
X116319182Y-83769492D01*
X116314443Y-83775070D01*
X116314440Y-83775073D01*
X116284965Y-83809768D01*
X116278035Y-83817284D01*
X116272340Y-83822979D01*
X116270060Y-83825861D01*
X116254719Y-83845251D01*
X116251928Y-83848655D01*
X116214799Y-83892359D01*
X116204667Y-83904285D01*
X116201339Y-83910801D01*
X116197972Y-83915850D01*
X116194805Y-83920979D01*
X116190266Y-83926716D01*
X116159345Y-83992875D01*
X116157442Y-83996769D01*
X116124231Y-84061808D01*
X116122492Y-84068916D01*
X116120393Y-84074559D01*
X116118476Y-84080322D01*
X116115378Y-84086950D01*
X116113888Y-84094112D01*
X116113888Y-84094113D01*
X116100514Y-84158412D01*
X116099544Y-84162696D01*
X116082192Y-84233610D01*
X116081500Y-84244764D01*
X116081464Y-84244762D01*
X116081224Y-84248768D01*
X116080850Y-84252950D01*
X116079933Y-84257361D01*
X116054624Y-84321709D01*
X115997043Y-84363242D01*
X115926149Y-84367050D01*
X115864449Y-84331926D01*
X115847970Y-84310732D01*
X115807078Y-84244652D01*
X115681903Y-84119695D01*
X115675675Y-84115856D01*
X115675670Y-84115852D01*
X115626983Y-84085841D01*
X115579490Y-84033069D01*
X115567100Y-83978582D01*
X115567100Y-81899771D01*
X115587102Y-81831650D01*
X115604005Y-81810676D01*
X117824558Y-79590123D01*
X117886870Y-79556097D01*
X117957685Y-79561162D01*
X118008891Y-79596721D01*
X118052278Y-79646808D01*
X118100923Y-79702966D01*
X118130405Y-79767551D01*
X118120290Y-79837824D01*
X118073789Y-79891472D01*
X118049914Y-79903445D01*
X117987948Y-79926675D01*
X117972351Y-79935214D01*
X117870276Y-80011715D01*
X117857715Y-80024276D01*
X117781214Y-80126351D01*
X117772676Y-80141946D01*
X117727522Y-80262394D01*
X117723895Y-80277649D01*
X117718369Y-80328514D01*
X117718000Y-80335328D01*
X117718000Y-81007885D01*
X117722475Y-81023124D01*
X117723865Y-81024329D01*
X117731548Y-81026000D01*
X120515884Y-81026000D01*
X120531123Y-81021525D01*
X120532328Y-81020135D01*
X120533999Y-81012452D01*
X120533999Y-80335331D01*
X120533629Y-80328510D01*
X120528105Y-80277648D01*
X120524479Y-80262396D01*
X120479324Y-80141946D01*
X120470786Y-80126351D01*
X120394285Y-80024276D01*
X120381724Y-80011715D01*
X120279649Y-79935214D01*
X120264052Y-79926675D01*
X120201769Y-79903326D01*
X120145004Y-79860685D01*
X120120304Y-79794123D01*
X120135511Y-79724774D01*
X120157058Y-79696094D01*
X120198636Y-79654660D01*
X120198640Y-79654655D01*
X120202303Y-79651005D01*
X120337458Y-79462917D01*
X120345434Y-79446780D01*
X120437784Y-79259922D01*
X120437785Y-79259920D01*
X120440078Y-79255280D01*
X120507408Y-79033671D01*
X120537640Y-78804041D01*
X120539327Y-78735000D01*
X120529743Y-78618429D01*
X120520773Y-78509318D01*
X120520772Y-78509312D01*
X120520349Y-78504167D01*
X120463925Y-78279533D01*
X120461866Y-78274797D01*
X120373630Y-78071868D01*
X120373628Y-78071865D01*
X120371570Y-78067131D01*
X120245764Y-77872665D01*
X120155486Y-77773450D01*
X120124434Y-77709605D01*
X120132829Y-77639106D01*
X120178005Y-77584338D01*
X120204449Y-77570669D01*
X120264054Y-77548324D01*
X120279649Y-77539786D01*
X120381724Y-77463285D01*
X120394285Y-77450724D01*
X120470786Y-77348649D01*
X120479324Y-77333054D01*
X120524478Y-77212606D01*
X120528105Y-77197351D01*
X120533631Y-77146486D01*
X120534000Y-77139672D01*
X120534000Y-76467115D01*
X120529525Y-76451876D01*
X120528135Y-76450671D01*
X120520452Y-76449000D01*
X117736116Y-76449000D01*
X117720877Y-76453475D01*
X117719672Y-76454865D01*
X117718001Y-76462548D01*
X117718001Y-77139669D01*
X117718371Y-77146490D01*
X117723895Y-77197352D01*
X117727521Y-77212604D01*
X117772676Y-77333054D01*
X117781214Y-77348649D01*
X117857715Y-77450724D01*
X117870276Y-77463285D01*
X117917734Y-77498853D01*
X117960249Y-77555712D01*
X117965275Y-77626531D01*
X117931215Y-77688824D01*
X117868884Y-77722814D01*
X117852384Y-77725264D01*
X117834889Y-77726687D01*
X117829990Y-77727085D01*
X117819777Y-77727500D01*
X117811707Y-77727500D01*
X117808087Y-77727922D01*
X117808069Y-77727923D01*
X117783461Y-77730792D01*
X117779100Y-77731224D01*
X117753981Y-77733267D01*
X117713661Y-77736546D01*
X117713658Y-77736547D01*
X117706363Y-77737140D01*
X117699399Y-77739396D01*
X117693440Y-77740587D01*
X117687585Y-77741971D01*
X117680319Y-77742818D01*
X117611673Y-77767735D01*
X117607545Y-77769152D01*
X117545064Y-77789393D01*
X117545062Y-77789394D01*
X117538101Y-77791649D01*
X117531846Y-77795445D01*
X117526372Y-77797951D01*
X117520942Y-77800670D01*
X117514063Y-77803167D01*
X117453016Y-77843191D01*
X117449327Y-77845518D01*
X117429135Y-77857771D01*
X117391693Y-77880491D01*
X117391688Y-77880495D01*
X117386892Y-77883405D01*
X117378516Y-77890803D01*
X117378493Y-77890777D01*
X117375503Y-77893426D01*
X117372264Y-77896134D01*
X117366148Y-77900144D01*
X117361121Y-77905451D01*
X117361117Y-77905454D01*
X117312872Y-77956383D01*
X117310494Y-77958825D01*
X114319689Y-80949630D01*
X114305277Y-80962016D01*
X114293682Y-80970549D01*
X114293677Y-80970554D01*
X114287782Y-80974892D01*
X114283043Y-80980470D01*
X114283040Y-80980473D01*
X114253565Y-81015168D01*
X114246635Y-81022684D01*
X114240940Y-81028379D01*
X114238660Y-81031261D01*
X114223319Y-81050651D01*
X114220528Y-81054055D01*
X114180019Y-81101737D01*
X114173267Y-81109685D01*
X114169939Y-81116201D01*
X114166572Y-81121250D01*
X114163405Y-81126379D01*
X114158866Y-81132116D01*
X114127945Y-81198275D01*
X114126042Y-81202169D01*
X114092831Y-81267208D01*
X114091092Y-81274316D01*
X114088993Y-81279959D01*
X114087076Y-81285722D01*
X114083978Y-81292350D01*
X114082488Y-81299512D01*
X114082488Y-81299513D01*
X114069114Y-81363812D01*
X114068144Y-81368096D01*
X114050792Y-81439010D01*
X114050100Y-81450164D01*
X114050064Y-81450162D01*
X114049825Y-81454155D01*
X114049451Y-81458347D01*
X114047960Y-81465515D01*
X114048158Y-81472832D01*
X114050054Y-81542921D01*
X114050100Y-81546328D01*
X114050100Y-83978631D01*
X114030098Y-84046752D01*
X113990407Y-84085772D01*
X113934252Y-84120522D01*
X113809295Y-84245697D01*
X113805455Y-84251927D01*
X113805454Y-84251928D01*
X113734111Y-84367668D01*
X113716485Y-84396262D01*
X113696910Y-84455278D01*
X113666184Y-84547917D01*
X113660803Y-84564139D01*
X113660103Y-84570975D01*
X113660102Y-84570978D01*
X113658165Y-84589886D01*
X113650100Y-84668600D01*
X113650100Y-86019400D01*
X113650437Y-86022646D01*
X113650437Y-86022650D01*
X113660121Y-86115980D01*
X113661074Y-86125166D01*
X113663255Y-86131702D01*
X113663255Y-86131704D01*
X113698862Y-86238429D01*
X113717050Y-86292946D01*
X113810122Y-86443348D01*
X113935297Y-86568305D01*
X113941527Y-86572145D01*
X113941528Y-86572146D01*
X113961385Y-86584386D01*
X114041392Y-86633703D01*
X114088884Y-86686474D01*
X114100308Y-86756546D01*
X114072034Y-86821669D01*
X114041578Y-86848106D01*
X113971928Y-86891207D01*
X113934252Y-86914522D01*
X113809295Y-87039697D01*
X113805455Y-87045927D01*
X113805454Y-87045928D01*
X113724752Y-87176851D01*
X113716485Y-87190262D01*
X113711518Y-87205238D01*
X113663246Y-87350775D01*
X113660803Y-87358139D01*
X113660103Y-87364975D01*
X113660102Y-87364978D01*
X113657627Y-87389140D01*
X113650100Y-87462600D01*
X113650100Y-88813400D01*
X113650437Y-88816646D01*
X113650437Y-88816650D01*
X113659655Y-88905487D01*
X113661074Y-88919166D01*
X113663255Y-88925702D01*
X113663255Y-88925704D01*
X113681319Y-88979848D01*
X113717050Y-89086946D01*
X113799862Y-89220768D01*
X113808765Y-89235155D01*
X113827603Y-89303607D01*
X113808881Y-89367574D01*
X113766528Y-89436284D01*
X113741885Y-89476262D01*
X113725029Y-89527081D01*
X113693187Y-89623084D01*
X113686203Y-89644139D01*
X113675500Y-89748600D01*
X113675500Y-91099400D01*
X113675837Y-91102646D01*
X113675837Y-91102650D01*
X113684676Y-91187836D01*
X113686474Y-91205166D01*
X113688655Y-91211702D01*
X113688655Y-91211704D01*
X113696915Y-91236461D01*
X113742450Y-91372946D01*
X113835522Y-91523348D01*
X113840704Y-91528521D01*
X113904387Y-91592093D01*
X113938466Y-91654375D01*
X113933463Y-91725196D01*
X113904542Y-91770284D01*
X113809295Y-91865697D01*
X113805455Y-91871927D01*
X113805454Y-91871928D01*
X113726070Y-92000713D01*
X113716485Y-92016262D01*
X113695510Y-92079500D01*
X113666184Y-92167917D01*
X113660803Y-92184139D01*
X113660103Y-92190975D01*
X113660102Y-92190978D01*
X113658614Y-92205500D01*
X113650100Y-92288600D01*
X113650100Y-93639400D01*
X112867100Y-93639400D01*
X112867100Y-92288600D01*
X112858478Y-92205500D01*
X112856838Y-92189692D01*
X112856837Y-92189688D01*
X112856126Y-92182834D01*
X112851150Y-92167917D01*
X112802468Y-92022002D01*
X112800150Y-92015054D01*
X112761356Y-91952364D01*
X112742500Y-91886061D01*
X112742500Y-91543100D01*
X112761240Y-91476984D01*
X112822275Y-91377968D01*
X112822276Y-91377966D01*
X112826115Y-91371738D01*
X112869199Y-91241842D01*
X112879632Y-91210389D01*
X112879632Y-91210387D01*
X112881797Y-91203861D01*
X112883610Y-91186173D01*
X112888404Y-91139380D01*
X112892500Y-91099400D01*
X112892500Y-89748600D01*
X112886364Y-89689462D01*
X112882238Y-89649692D01*
X112882237Y-89649688D01*
X112881526Y-89642834D01*
X112876032Y-89626365D01*
X112827868Y-89482002D01*
X112825550Y-89475054D01*
X112733835Y-89326845D01*
X112714997Y-89258393D01*
X112733719Y-89194426D01*
X112796875Y-89091968D01*
X112796876Y-89091966D01*
X112800715Y-89085738D01*
X112851872Y-88931503D01*
X112854232Y-88924389D01*
X112854232Y-88924387D01*
X112856397Y-88917861D01*
X112867100Y-88813400D01*
X112867100Y-87462600D01*
X112866763Y-87459350D01*
X112856838Y-87363692D01*
X112856837Y-87363688D01*
X112856126Y-87356834D01*
X112852399Y-87345661D01*
X112802468Y-87196002D01*
X112800150Y-87189054D01*
X112707078Y-87038652D01*
X112581903Y-86913695D01*
X112475808Y-86848297D01*
X112428316Y-86795526D01*
X112416892Y-86725454D01*
X112445166Y-86660331D01*
X112475622Y-86633894D01*
X112576720Y-86571332D01*
X112582948Y-86567478D01*
X112634252Y-86516085D01*
X112702734Y-86447483D01*
X112707905Y-86442303D01*
X112711746Y-86436072D01*
X112796875Y-86297968D01*
X112796876Y-86297966D01*
X112800715Y-86291738D01*
X112827770Y-86210170D01*
X112854232Y-86130389D01*
X112854232Y-86130387D01*
X112856397Y-86123861D01*
X112857205Y-86115980D01*
X112862979Y-86059620D01*
X112867100Y-86019400D01*
X112867100Y-84668600D01*
X112858933Y-84589886D01*
X112856838Y-84569692D01*
X112856837Y-84569688D01*
X112856126Y-84562834D01*
X112851150Y-84547917D01*
X112802468Y-84402002D01*
X112800150Y-84395054D01*
X112707078Y-84244652D01*
X112581903Y-84119695D01*
X112575669Y-84115852D01*
X112437568Y-84030725D01*
X112437566Y-84030724D01*
X112431338Y-84026885D01*
X112328644Y-83992823D01*
X112269989Y-83973368D01*
X112269987Y-83973368D01*
X112263461Y-83971203D01*
X112256625Y-83970503D01*
X112256622Y-83970502D01*
X112213569Y-83966091D01*
X112159000Y-83960500D01*
X111258200Y-83960500D01*
X111254954Y-83960837D01*
X111254950Y-83960837D01*
X111159292Y-83970762D01*
X111159288Y-83970763D01*
X111152434Y-83971474D01*
X111145898Y-83973655D01*
X111145896Y-83973655D01*
X111079877Y-83995681D01*
X110984654Y-84027450D01*
X110918391Y-84068455D01*
X110841799Y-84115852D01*
X110834252Y-84120522D01*
X110802927Y-84151902D01*
X110740646Y-84185981D01*
X110669826Y-84180978D01*
X110624660Y-84151979D01*
X110015405Y-83542724D01*
X109981379Y-83480412D01*
X109978500Y-83453629D01*
X109978500Y-82816669D01*
X109979933Y-82797718D01*
X109982099Y-82783483D01*
X109982099Y-82783481D01*
X109983199Y-82776251D01*
X109978915Y-82723582D01*
X109978500Y-82713367D01*
X109978500Y-82705307D01*
X109975211Y-82677093D01*
X109974778Y-82672718D01*
X109969454Y-82607261D01*
X109969453Y-82607258D01*
X109968860Y-82599963D01*
X109966604Y-82592999D01*
X109965413Y-82587040D01*
X109964029Y-82581185D01*
X109963182Y-82573919D01*
X109938265Y-82505273D01*
X109936848Y-82501145D01*
X109916607Y-82438664D01*
X109916606Y-82438662D01*
X109914351Y-82431701D01*
X109910555Y-82425446D01*
X109908049Y-82419972D01*
X109905330Y-82414542D01*
X109902833Y-82407663D01*
X109862809Y-82346616D01*
X109860472Y-82342912D01*
X109825509Y-82285293D01*
X109825505Y-82285288D01*
X109822595Y-82280492D01*
X109815197Y-82272116D01*
X109815223Y-82272093D01*
X109812574Y-82269103D01*
X109809866Y-82265864D01*
X109805856Y-82259748D01*
X109800549Y-82254721D01*
X109800546Y-82254717D01*
X109749617Y-82206472D01*
X109747175Y-82204094D01*
X107729005Y-80185924D01*
X107694979Y-80123612D01*
X107692100Y-80096829D01*
X107692100Y-79665066D01*
X107685345Y-79602884D01*
X107634215Y-79466495D01*
X107546861Y-79349939D01*
X107430305Y-79262585D01*
X107293916Y-79211455D01*
X107231734Y-79204700D01*
X103985466Y-79204700D01*
X103923284Y-79211455D01*
X103786895Y-79262585D01*
X103670339Y-79349939D01*
X103664958Y-79357119D01*
X103629624Y-79404265D01*
X103572765Y-79446780D01*
X103528798Y-79454700D01*
X102638402Y-79454700D01*
X102570281Y-79434698D01*
X102537576Y-79404265D01*
X102502242Y-79357119D01*
X102496861Y-79349939D01*
X102380305Y-79262585D01*
X102243916Y-79211455D01*
X102181734Y-79204700D01*
X98935466Y-79204700D01*
X98873284Y-79211455D01*
X98736895Y-79262585D01*
X98620339Y-79349939D01*
X98532985Y-79466495D01*
X98481855Y-79602884D01*
X98475100Y-79665066D01*
X98475100Y-80761334D01*
X98481855Y-80823516D01*
X98532985Y-80959905D01*
X98620339Y-81076461D01*
X98736895Y-81163815D01*
X98873284Y-81214945D01*
X98935466Y-81221700D01*
X102181734Y-81221700D01*
X102243916Y-81214945D01*
X102380305Y-81163815D01*
X102496861Y-81076461D01*
X102537576Y-81022135D01*
X102594435Y-80979620D01*
X102638402Y-80971700D01*
X103528798Y-80971700D01*
X103596919Y-80991702D01*
X103629624Y-81022135D01*
X103670339Y-81076461D01*
X103786895Y-81163815D01*
X103923284Y-81214945D01*
X103985466Y-81221700D01*
X106567229Y-81221700D01*
X106635350Y-81241702D01*
X106656324Y-81258605D01*
X106927324Y-81529605D01*
X106961350Y-81591917D01*
X106956285Y-81662732D01*
X106913738Y-81719568D01*
X106847218Y-81744379D01*
X106838229Y-81744700D01*
X103985466Y-81744700D01*
X103923284Y-81751455D01*
X103786895Y-81802585D01*
X103670339Y-81889939D01*
X103664958Y-81897119D01*
X103629624Y-81944265D01*
X103572765Y-81986780D01*
X103528798Y-81994700D01*
X102638402Y-81994700D01*
X102570281Y-81974698D01*
X102537576Y-81944265D01*
X102502242Y-81897119D01*
X102496861Y-81889939D01*
X102380305Y-81802585D01*
X102243916Y-81751455D01*
X102181734Y-81744700D01*
X98935466Y-81744700D01*
X98873284Y-81751455D01*
X98736895Y-81802585D01*
X98620339Y-81889939D01*
X98532985Y-82006495D01*
X98481855Y-82142884D01*
X98475100Y-82205066D01*
X98475100Y-83301334D01*
X98481855Y-83363516D01*
X98532985Y-83499905D01*
X98620339Y-83616461D01*
X98736895Y-83703815D01*
X98873284Y-83754945D01*
X98935466Y-83761700D01*
X102181734Y-83761700D01*
X102243916Y-83754945D01*
X102380305Y-83703815D01*
X102496861Y-83616461D01*
X102537576Y-83562135D01*
X102594435Y-83519620D01*
X102638402Y-83511700D01*
X103528798Y-83511700D01*
X103596919Y-83531702D01*
X103629624Y-83562135D01*
X103670339Y-83616461D01*
X103786895Y-83703815D01*
X103923284Y-83754945D01*
X103985466Y-83761700D01*
X107231734Y-83761700D01*
X107293916Y-83754945D01*
X107430305Y-83703815D01*
X107546861Y-83616461D01*
X107634215Y-83499905D01*
X107685345Y-83363516D01*
X107692100Y-83301334D01*
X107692100Y-82598571D01*
X107712102Y-82530450D01*
X107765758Y-82483957D01*
X107836032Y-82473853D01*
X107900612Y-82503347D01*
X107907195Y-82509476D01*
X108424595Y-83026876D01*
X108458621Y-83089188D01*
X108461500Y-83115971D01*
X108461500Y-83752930D01*
X108460067Y-83771880D01*
X108459884Y-83773086D01*
X108456801Y-83793349D01*
X108457394Y-83800641D01*
X108457394Y-83800644D01*
X108461085Y-83846018D01*
X108461500Y-83856233D01*
X108461500Y-83864293D01*
X108461925Y-83867937D01*
X108464789Y-83892507D01*
X108465222Y-83896882D01*
X108470397Y-83960500D01*
X108471140Y-83969637D01*
X108473396Y-83976601D01*
X108474587Y-83982560D01*
X108475971Y-83988415D01*
X108476818Y-83995681D01*
X108501735Y-84064327D01*
X108503152Y-84068455D01*
X108522308Y-84127585D01*
X108525649Y-84137899D01*
X108529445Y-84144154D01*
X108531951Y-84149628D01*
X108534670Y-84155058D01*
X108537167Y-84161937D01*
X108541180Y-84168057D01*
X108541180Y-84168058D01*
X108577186Y-84222976D01*
X108579523Y-84226680D01*
X108617405Y-84289107D01*
X108621121Y-84293315D01*
X108621122Y-84293316D01*
X108624803Y-84297484D01*
X108624776Y-84297508D01*
X108627429Y-84300500D01*
X108630132Y-84303733D01*
X108634144Y-84309852D01*
X108672371Y-84346065D01*
X108690383Y-84363128D01*
X108692825Y-84365506D01*
X109081079Y-84753760D01*
X109115105Y-84816072D01*
X109110040Y-84886887D01*
X109067493Y-84943723D01*
X109018182Y-84966101D01*
X108937712Y-84983206D01*
X108931682Y-84985891D01*
X108931681Y-84985891D01*
X108769278Y-85058197D01*
X108769276Y-85058198D01*
X108763248Y-85060882D01*
X108757907Y-85064762D01*
X108757906Y-85064763D01*
X108716861Y-85094584D01*
X108608747Y-85173134D01*
X108604326Y-85178044D01*
X108604325Y-85178045D01*
X108543361Y-85245753D01*
X108480960Y-85315056D01*
X108385473Y-85480444D01*
X108326458Y-85662072D01*
X108325768Y-85668633D01*
X108325768Y-85668635D01*
X108309817Y-85820400D01*
X108306496Y-85852000D01*
X108307186Y-85858565D01*
X108325709Y-86034798D01*
X108326458Y-86041928D01*
X108385473Y-86223556D01*
X108388776Y-86229278D01*
X108388777Y-86229279D01*
X108397477Y-86244348D01*
X108437164Y-86313086D01*
X108444619Y-86325999D01*
X108461500Y-86388999D01*
X108461500Y-86755629D01*
X108441498Y-86823750D01*
X108424595Y-86844724D01*
X108231524Y-87037795D01*
X108169212Y-87071821D01*
X108142429Y-87074700D01*
X107688402Y-87074700D01*
X107620281Y-87054698D01*
X107587576Y-87024265D01*
X107557275Y-86983834D01*
X107546861Y-86969939D01*
X107430305Y-86882585D01*
X107293916Y-86831455D01*
X107231734Y-86824700D01*
X103985466Y-86824700D01*
X103923284Y-86831455D01*
X103786895Y-86882585D01*
X103670339Y-86969939D01*
X103659925Y-86983834D01*
X103629624Y-87024265D01*
X103572765Y-87066780D01*
X103528798Y-87074700D01*
X102638402Y-87074700D01*
X102570281Y-87054698D01*
X102537576Y-87024265D01*
X102507275Y-86983834D01*
X102496861Y-86969939D01*
X102380305Y-86882585D01*
X102243916Y-86831455D01*
X102181734Y-86824700D01*
X98935466Y-86824700D01*
X98873284Y-86831455D01*
X98736895Y-86882585D01*
X98620339Y-86969939D01*
X98609925Y-86983834D01*
X98579624Y-87024265D01*
X98522765Y-87066780D01*
X98478798Y-87074700D01*
X95988479Y-87074700D01*
X95920358Y-87054698D01*
X95873865Y-87001042D01*
X95868956Y-86988577D01*
X95836470Y-86891207D01*
X95836468Y-86891202D01*
X95834150Y-86884254D01*
X95741078Y-86733852D01*
X95615903Y-86608895D01*
X95566232Y-86578277D01*
X95471568Y-86519925D01*
X95471566Y-86519924D01*
X95465338Y-86516085D01*
X95304854Y-86462855D01*
X95303989Y-86462568D01*
X95303987Y-86462568D01*
X95297461Y-86460403D01*
X95290625Y-86459703D01*
X95290622Y-86459702D01*
X95247569Y-86455291D01*
X95193000Y-86449700D01*
X94292200Y-86449700D01*
X94288954Y-86450037D01*
X94288950Y-86450037D01*
X94193292Y-86459962D01*
X94193288Y-86459963D01*
X94186434Y-86460674D01*
X94179898Y-86462855D01*
X94179896Y-86462855D01*
X94083523Y-86495008D01*
X94018654Y-86516650D01*
X93868252Y-86609722D01*
X93863079Y-86614904D01*
X93806914Y-86671167D01*
X93743295Y-86734897D01*
X93739455Y-86741127D01*
X93739454Y-86741128D01*
X93673512Y-86848106D01*
X93650485Y-86885462D01*
X93630016Y-86947175D01*
X93597609Y-87044880D01*
X93594803Y-87053339D01*
X93594103Y-87060175D01*
X93594102Y-87060178D01*
X93591756Y-87083080D01*
X93584100Y-87157800D01*
X93584100Y-88508600D01*
X93584437Y-88511846D01*
X93584437Y-88511850D01*
X93593210Y-88596399D01*
X93595074Y-88614366D01*
X93597255Y-88620902D01*
X93597255Y-88620904D01*
X93630300Y-88719951D01*
X93651050Y-88782146D01*
X93744122Y-88932548D01*
X93869297Y-89057505D01*
X93875527Y-89061345D01*
X93875528Y-89061346D01*
X94012690Y-89145894D01*
X94019862Y-89150315D01*
X94069949Y-89166928D01*
X94181211Y-89203832D01*
X94181213Y-89203832D01*
X94187739Y-89205997D01*
X94194575Y-89206697D01*
X94194578Y-89206698D01*
X94236519Y-89210995D01*
X94292200Y-89216700D01*
X95193000Y-89216700D01*
X95196246Y-89216363D01*
X95196250Y-89216363D01*
X95291908Y-89206438D01*
X95291912Y-89206437D01*
X95298766Y-89205726D01*
X95305302Y-89203545D01*
X95305304Y-89203545D01*
X95437406Y-89159472D01*
X95466546Y-89149750D01*
X95616948Y-89056678D01*
X95741905Y-88931503D01*
X95746290Y-88924389D01*
X95830875Y-88787168D01*
X95830876Y-88787166D01*
X95834715Y-88780938D01*
X95868847Y-88678033D01*
X95909278Y-88619673D01*
X95974842Y-88592436D01*
X95988440Y-88591700D01*
X98478798Y-88591700D01*
X98546919Y-88611702D01*
X98579624Y-88642135D01*
X98620339Y-88696461D01*
X98736895Y-88783815D01*
X98873284Y-88834945D01*
X98935466Y-88841700D01*
X102181734Y-88841700D01*
X102243916Y-88834945D01*
X102380305Y-88783815D01*
X102496861Y-88696461D01*
X102537576Y-88642135D01*
X102594435Y-88599620D01*
X102638402Y-88591700D01*
X103528798Y-88591700D01*
X103596919Y-88611702D01*
X103629624Y-88642135D01*
X103670339Y-88696461D01*
X103786895Y-88783815D01*
X103923284Y-88834945D01*
X103985466Y-88841700D01*
X107231734Y-88841700D01*
X107293916Y-88834945D01*
X107430305Y-88783815D01*
X107546861Y-88696461D01*
X107587576Y-88642135D01*
X107644435Y-88599620D01*
X107688402Y-88591700D01*
X108441730Y-88591700D01*
X108460680Y-88593133D01*
X108474915Y-88595299D01*
X108474919Y-88595299D01*
X108482149Y-88596399D01*
X108489441Y-88595806D01*
X108489444Y-88595806D01*
X108534818Y-88592115D01*
X108545033Y-88591700D01*
X108553093Y-88591700D01*
X108566383Y-88590151D01*
X108581307Y-88588411D01*
X108585682Y-88587978D01*
X108651139Y-88582654D01*
X108651142Y-88582653D01*
X108658437Y-88582060D01*
X108665398Y-88579805D01*
X108671353Y-88578615D01*
X108677217Y-88577229D01*
X108684439Y-88576387D01*
X108684442Y-88576387D01*
X108684545Y-88576375D01*
X108684547Y-88576393D01*
X108752350Y-88580023D01*
X108809938Y-88621545D01*
X108835936Y-88687610D01*
X108823098Y-88752170D01*
X108824266Y-88752716D01*
X108793364Y-88818834D01*
X108791433Y-88822784D01*
X108761561Y-88881285D01*
X108761559Y-88881291D01*
X108758231Y-88887808D01*
X108756492Y-88894914D01*
X108754393Y-88900559D01*
X108752476Y-88906322D01*
X108749378Y-88912950D01*
X108747888Y-88920112D01*
X108747888Y-88920113D01*
X108734514Y-88984412D01*
X108733544Y-88988696D01*
X108716192Y-89059610D01*
X108715500Y-89070764D01*
X108715464Y-89070762D01*
X108715225Y-89074755D01*
X108714851Y-89078947D01*
X108713360Y-89086115D01*
X108713558Y-89093432D01*
X108715454Y-89163521D01*
X108715500Y-89166928D01*
X108715500Y-89756429D01*
X108695498Y-89824550D01*
X108678595Y-89845524D01*
X107907195Y-90616924D01*
X107844883Y-90650950D01*
X107774068Y-90645885D01*
X107717232Y-90603338D01*
X107692421Y-90536818D01*
X107692100Y-90527829D01*
X107692100Y-89825066D01*
X107685345Y-89762884D01*
X107634215Y-89626495D01*
X107546861Y-89509939D01*
X107430305Y-89422585D01*
X107293916Y-89371455D01*
X107231734Y-89364700D01*
X103985466Y-89364700D01*
X103923284Y-89371455D01*
X103786895Y-89422585D01*
X103670339Y-89509939D01*
X103659922Y-89523838D01*
X103629624Y-89564265D01*
X103572765Y-89606780D01*
X103528798Y-89614700D01*
X102638402Y-89614700D01*
X102570281Y-89594698D01*
X102537576Y-89564265D01*
X102507278Y-89523838D01*
X102496861Y-89509939D01*
X102380305Y-89422585D01*
X102243916Y-89371455D01*
X102181734Y-89364700D01*
X97648643Y-89364700D01*
X97635036Y-89363963D01*
X97603538Y-89360541D01*
X97603533Y-89360541D01*
X97597412Y-89359876D01*
X97571162Y-89362173D01*
X97547412Y-89364250D01*
X97542586Y-89364579D01*
X97540114Y-89364700D01*
X97537031Y-89364700D01*
X97525062Y-89365874D01*
X97494294Y-89368890D01*
X97492981Y-89369012D01*
X97448716Y-89372885D01*
X97400387Y-89377113D01*
X97395268Y-89378600D01*
X97389967Y-89379120D01*
X97300966Y-89405991D01*
X97299833Y-89406326D01*
X97216386Y-89430570D01*
X97216382Y-89430572D01*
X97210464Y-89432291D01*
X97205732Y-89434744D01*
X97200631Y-89436284D01*
X97195188Y-89439178D01*
X97118540Y-89479931D01*
X97117374Y-89480543D01*
X97091981Y-89493706D01*
X97034874Y-89523308D01*
X97030711Y-89526631D01*
X97026004Y-89529134D01*
X96953882Y-89587955D01*
X96953026Y-89588646D01*
X96913827Y-89619938D01*
X96911323Y-89622442D01*
X96910605Y-89623084D01*
X96906272Y-89626785D01*
X96872738Y-89654135D01*
X96868811Y-89658882D01*
X96868809Y-89658884D01*
X96843513Y-89689462D01*
X96835523Y-89698242D01*
X95850621Y-90683145D01*
X95840478Y-90692247D01*
X95810975Y-90715968D01*
X95807008Y-90720696D01*
X95778709Y-90754421D01*
X95775528Y-90758069D01*
X95773885Y-90759881D01*
X95771691Y-90762075D01*
X95744358Y-90795349D01*
X95743696Y-90796147D01*
X95683846Y-90867474D01*
X95681278Y-90872144D01*
X95677897Y-90876261D01*
X95653729Y-90921334D01*
X95634023Y-90958086D01*
X95633394Y-90959245D01*
X95591538Y-91035381D01*
X95591535Y-91035389D01*
X95588567Y-91040787D01*
X95586955Y-91045869D01*
X95584438Y-91050563D01*
X95557238Y-91139531D01*
X95556918Y-91140559D01*
X95528765Y-91229306D01*
X95528171Y-91234602D01*
X95526613Y-91239698D01*
X95518616Y-91318429D01*
X95517218Y-91332187D01*
X95517089Y-91333393D01*
X95511500Y-91383227D01*
X95511500Y-91386754D01*
X95511445Y-91387739D01*
X95510998Y-91393419D01*
X95506626Y-91436462D01*
X95508862Y-91460113D01*
X95510941Y-91482109D01*
X95511500Y-91493967D01*
X95511500Y-92951876D01*
X95491498Y-93019997D01*
X95474595Y-93040971D01*
X94482771Y-94032795D01*
X94420459Y-94066821D01*
X94393676Y-94069700D01*
X94038200Y-94069700D01*
X94034954Y-94070037D01*
X94034950Y-94070037D01*
X93939292Y-94079962D01*
X93939288Y-94079963D01*
X93932434Y-94080674D01*
X93925898Y-94082855D01*
X93925896Y-94082855D01*
X93793794Y-94126928D01*
X93764654Y-94136650D01*
X93614252Y-94229722D01*
X93609079Y-94234904D01*
X93561199Y-94282868D01*
X93489295Y-94354897D01*
X93485455Y-94361127D01*
X93485454Y-94361128D01*
X93428066Y-94454229D01*
X93396485Y-94505462D01*
X93340803Y-94673339D01*
X93330100Y-94777800D01*
X93330100Y-96128600D01*
X93330437Y-96131846D01*
X93330437Y-96131850D01*
X93336601Y-96191254D01*
X93341074Y-96234366D01*
X93343255Y-96240902D01*
X93343255Y-96240904D01*
X93366068Y-96309281D01*
X93397050Y-96402146D01*
X93490122Y-96552548D01*
X93495304Y-96557721D01*
X93572063Y-96634346D01*
X93606142Y-96696628D01*
X93601139Y-96767448D01*
X93572218Y-96812537D01*
X93494861Y-96890029D01*
X93485849Y-96901440D01*
X93400784Y-97039443D01*
X93394637Y-97052624D01*
X93343462Y-97206910D01*
X93340595Y-97220286D01*
X93330928Y-97314638D01*
X93330600Y-97321055D01*
X93330600Y-97721085D01*
X93335075Y-97736324D01*
X93336465Y-97737529D01*
X93344148Y-97739200D01*
X95628484Y-97739200D01*
X95643723Y-97734725D01*
X95644928Y-97733335D01*
X95646599Y-97725652D01*
X95646599Y-97321105D01*
X95646262Y-97314586D01*
X95636343Y-97218994D01*
X95633451Y-97205600D01*
X95582012Y-97051416D01*
X95575839Y-97038238D01*
X95490537Y-96900393D01*
X95481501Y-96888992D01*
X95405138Y-96812761D01*
X95371059Y-96750478D01*
X95376062Y-96679658D01*
X95404983Y-96634570D01*
X95482734Y-96556683D01*
X95487905Y-96551503D01*
X95525246Y-96490925D01*
X95576875Y-96407168D01*
X95576876Y-96407166D01*
X95580715Y-96400938D01*
X95615426Y-96296287D01*
X95634232Y-96239589D01*
X95634232Y-96239587D01*
X95636397Y-96233061D01*
X95647100Y-96128600D01*
X95647100Y-95997869D01*
X98475601Y-95997869D01*
X98475971Y-96004690D01*
X98481495Y-96055552D01*
X98485121Y-96070804D01*
X98530276Y-96191254D01*
X98538814Y-96206849D01*
X98615315Y-96308924D01*
X98627876Y-96321485D01*
X98729951Y-96397986D01*
X98745546Y-96406524D01*
X98865994Y-96451678D01*
X98881249Y-96455305D01*
X98932114Y-96460831D01*
X98938928Y-96461200D01*
X100286485Y-96461200D01*
X100301724Y-96456725D01*
X100302929Y-96455335D01*
X100304600Y-96447652D01*
X100304600Y-96443084D01*
X100812600Y-96443084D01*
X100817075Y-96458323D01*
X100818465Y-96459528D01*
X100826148Y-96461199D01*
X102178269Y-96461199D01*
X102185090Y-96460829D01*
X102235952Y-96455305D01*
X102251204Y-96451679D01*
X102371654Y-96406524D01*
X102387249Y-96397986D01*
X102489324Y-96321485D01*
X102501885Y-96308924D01*
X102578386Y-96206849D01*
X102586924Y-96191254D01*
X102632078Y-96070806D01*
X102635705Y-96055551D01*
X102641231Y-96004686D01*
X102641413Y-96001334D01*
X103525100Y-96001334D01*
X103531855Y-96063516D01*
X103582985Y-96199905D01*
X103670339Y-96316461D01*
X103786895Y-96403815D01*
X103923284Y-96454945D01*
X103985466Y-96461700D01*
X107231734Y-96461700D01*
X107293916Y-96454945D01*
X107430305Y-96403815D01*
X107546861Y-96316461D01*
X107634215Y-96199905D01*
X107685345Y-96063516D01*
X107692100Y-96001334D01*
X107692100Y-94905066D01*
X107685345Y-94842884D01*
X107634215Y-94706495D01*
X107546861Y-94589939D01*
X107430305Y-94502585D01*
X107293916Y-94451455D01*
X107231734Y-94444700D01*
X103985466Y-94444700D01*
X103923284Y-94451455D01*
X103786895Y-94502585D01*
X103670339Y-94589939D01*
X103582985Y-94706495D01*
X103531855Y-94842884D01*
X103525100Y-94905066D01*
X103525100Y-96001334D01*
X102641413Y-96001334D01*
X102641600Y-95997872D01*
X102641600Y-95725315D01*
X102637125Y-95710076D01*
X102635735Y-95708871D01*
X102628052Y-95707200D01*
X100830715Y-95707200D01*
X100815476Y-95711675D01*
X100814271Y-95713065D01*
X100812600Y-95720748D01*
X100812600Y-96443084D01*
X100304600Y-96443084D01*
X100304600Y-95725315D01*
X100300125Y-95710076D01*
X100298735Y-95708871D01*
X100291052Y-95707200D01*
X98493716Y-95707200D01*
X98478477Y-95711675D01*
X98477272Y-95713065D01*
X98475601Y-95720748D01*
X98475601Y-95997869D01*
X95647100Y-95997869D01*
X95647100Y-95773125D01*
X95667102Y-95705004D01*
X95684005Y-95684030D01*
X96186950Y-95181085D01*
X98475600Y-95181085D01*
X98480075Y-95196324D01*
X98481465Y-95197529D01*
X98489148Y-95199200D01*
X100286485Y-95199200D01*
X100301724Y-95194725D01*
X100302929Y-95193335D01*
X100304600Y-95185652D01*
X100304600Y-95181085D01*
X100812600Y-95181085D01*
X100817075Y-95196324D01*
X100818465Y-95197529D01*
X100826148Y-95199200D01*
X102623484Y-95199200D01*
X102638723Y-95194725D01*
X102639928Y-95193335D01*
X102641599Y-95185652D01*
X102641599Y-94908531D01*
X102641229Y-94901710D01*
X102635705Y-94850848D01*
X102632079Y-94835596D01*
X102586924Y-94715146D01*
X102578386Y-94699551D01*
X102501885Y-94597476D01*
X102489324Y-94584915D01*
X102387249Y-94508414D01*
X102371654Y-94499876D01*
X102251206Y-94454722D01*
X102235951Y-94451095D01*
X102185086Y-94445569D01*
X102178272Y-94445200D01*
X100830715Y-94445200D01*
X100815476Y-94449675D01*
X100814271Y-94451065D01*
X100812600Y-94458748D01*
X100812600Y-95181085D01*
X100304600Y-95181085D01*
X100304600Y-94463316D01*
X100300125Y-94448077D01*
X100298735Y-94446872D01*
X100291052Y-94445201D01*
X98938931Y-94445201D01*
X98932110Y-94445571D01*
X98881248Y-94451095D01*
X98865996Y-94454721D01*
X98745546Y-94499876D01*
X98729951Y-94508414D01*
X98627876Y-94584915D01*
X98615315Y-94597476D01*
X98538814Y-94699551D01*
X98530276Y-94715146D01*
X98485122Y-94835594D01*
X98481495Y-94850849D01*
X98475969Y-94901714D01*
X98475600Y-94908528D01*
X98475600Y-95181085D01*
X96186950Y-95181085D01*
X97189379Y-94178655D01*
X97199522Y-94169553D01*
X97224218Y-94149697D01*
X97229025Y-94145832D01*
X97261320Y-94107344D01*
X97264478Y-94103725D01*
X97266124Y-94101910D01*
X97268309Y-94099725D01*
X97270264Y-94097345D01*
X97270273Y-94097335D01*
X97295549Y-94066564D01*
X97296391Y-94065549D01*
X97352194Y-93999045D01*
X97356154Y-93994326D01*
X97358723Y-93989652D01*
X97362102Y-93985539D01*
X97405975Y-93903715D01*
X97406584Y-93902593D01*
X97448464Y-93826414D01*
X97448465Y-93826412D01*
X97451433Y-93821013D01*
X97453045Y-93815931D01*
X97455562Y-93811237D01*
X97482762Y-93722269D01*
X97483108Y-93721158D01*
X97485741Y-93712860D01*
X97511235Y-93632494D01*
X97511829Y-93627198D01*
X97513387Y-93622102D01*
X97522790Y-93529543D01*
X97522911Y-93528407D01*
X97528500Y-93478573D01*
X97528500Y-93475046D01*
X97528555Y-93474061D01*
X97529002Y-93468381D01*
X97533374Y-93425338D01*
X97529059Y-93379691D01*
X97528500Y-93367833D01*
X97528500Y-91909926D01*
X97548502Y-91841805D01*
X97565404Y-91820831D01*
X97967629Y-91418605D01*
X98029942Y-91384580D01*
X98056725Y-91381700D01*
X102181734Y-91381700D01*
X102243916Y-91374945D01*
X102380305Y-91323815D01*
X102496861Y-91236461D01*
X102537576Y-91182135D01*
X102594435Y-91139620D01*
X102638402Y-91131700D01*
X103528798Y-91131700D01*
X103596919Y-91151702D01*
X103629624Y-91182135D01*
X103670339Y-91236461D01*
X103786895Y-91323815D01*
X103923284Y-91374945D01*
X103985466Y-91381700D01*
X106838229Y-91381700D01*
X106906350Y-91401702D01*
X106952843Y-91455358D01*
X106962947Y-91525632D01*
X106933453Y-91590212D01*
X106927324Y-91596795D01*
X106656324Y-91867795D01*
X106594012Y-91901821D01*
X106567229Y-91904700D01*
X103985466Y-91904700D01*
X103923284Y-91911455D01*
X103786895Y-91962585D01*
X103670339Y-92049939D01*
X103664958Y-92057119D01*
X103629624Y-92104265D01*
X103572765Y-92146780D01*
X103528798Y-92154700D01*
X102638402Y-92154700D01*
X102570281Y-92134698D01*
X102537576Y-92104265D01*
X102502242Y-92057119D01*
X102496861Y-92049939D01*
X102380305Y-91962585D01*
X102243916Y-91911455D01*
X102181734Y-91904700D01*
X98935466Y-91904700D01*
X98873284Y-91911455D01*
X98736895Y-91962585D01*
X98620339Y-92049939D01*
X98532985Y-92166495D01*
X98481855Y-92302884D01*
X98475100Y-92365066D01*
X98475100Y-93461334D01*
X98481855Y-93523516D01*
X98532985Y-93659905D01*
X98620339Y-93776461D01*
X98736895Y-93863815D01*
X98873284Y-93914945D01*
X98935466Y-93921700D01*
X102181734Y-93921700D01*
X102243916Y-93914945D01*
X102380305Y-93863815D01*
X102496861Y-93776461D01*
X102537576Y-93722135D01*
X102594435Y-93679620D01*
X102638402Y-93671700D01*
X103528798Y-93671700D01*
X103596919Y-93691702D01*
X103629624Y-93722135D01*
X103670339Y-93776461D01*
X103786895Y-93863815D01*
X103923284Y-93914945D01*
X103985466Y-93921700D01*
X107231734Y-93921700D01*
X107293916Y-93914945D01*
X107430305Y-93863815D01*
X107546861Y-93776461D01*
X107634215Y-93659905D01*
X107685345Y-93523516D01*
X107692100Y-93461334D01*
X107692100Y-93029571D01*
X107712102Y-92961450D01*
X107729005Y-92940476D01*
X109962911Y-90706570D01*
X109977323Y-90694184D01*
X109988918Y-90685651D01*
X109988923Y-90685646D01*
X109994818Y-90681308D01*
X109999557Y-90675730D01*
X109999560Y-90675727D01*
X110029035Y-90641032D01*
X110035965Y-90633516D01*
X110041661Y-90627820D01*
X110043924Y-90624959D01*
X110043929Y-90624954D01*
X110059293Y-90605534D01*
X110062082Y-90602133D01*
X110104592Y-90552096D01*
X110104594Y-90552094D01*
X110109333Y-90546515D01*
X110112662Y-90539995D01*
X110116028Y-90534948D01*
X110119193Y-90529824D01*
X110123735Y-90524083D01*
X110154637Y-90457964D01*
X110156565Y-90454018D01*
X110186442Y-90395508D01*
X110186443Y-90395506D01*
X110189769Y-90388992D01*
X110191508Y-90381886D01*
X110193609Y-90376236D01*
X110195524Y-90370479D01*
X110198622Y-90363850D01*
X110213491Y-90292365D01*
X110214461Y-90288082D01*
X110231808Y-90217190D01*
X110232500Y-90206036D01*
X110232535Y-90206038D01*
X110232775Y-90202066D01*
X110233152Y-90197845D01*
X110234641Y-90190685D01*
X110232546Y-90113258D01*
X110232500Y-90109850D01*
X110232500Y-89520371D01*
X110252502Y-89452250D01*
X110269405Y-89431276D01*
X110503272Y-89197409D01*
X110565584Y-89163383D01*
X110636399Y-89168448D01*
X110693235Y-89210995D01*
X110699505Y-89220191D01*
X110708765Y-89235155D01*
X110727603Y-89303606D01*
X110708881Y-89367574D01*
X110666528Y-89436284D01*
X110641885Y-89476262D01*
X110625029Y-89527081D01*
X110593187Y-89623084D01*
X110586203Y-89644139D01*
X110575500Y-89748600D01*
X110575500Y-91099400D01*
X110575837Y-91102646D01*
X110575837Y-91102650D01*
X110584676Y-91187836D01*
X110586474Y-91205166D01*
X110588655Y-91211702D01*
X110588655Y-91211704D01*
X110596915Y-91236461D01*
X110642450Y-91372946D01*
X110685549Y-91442593D01*
X110706644Y-91476682D01*
X110725500Y-91542985D01*
X110725500Y-91803694D01*
X110706760Y-91869809D01*
X110687028Y-91901821D01*
X110626070Y-92000713D01*
X110616485Y-92016262D01*
X110595510Y-92079500D01*
X110566184Y-92167917D01*
X110560803Y-92184139D01*
X110560103Y-92190975D01*
X110560102Y-92190978D01*
X110558614Y-92205500D01*
X110550100Y-92288600D01*
X110550100Y-93639400D01*
X110550437Y-93642646D01*
X110550437Y-93642650D01*
X110559210Y-93727199D01*
X110561074Y-93745166D01*
X110563255Y-93751702D01*
X110563255Y-93751704D01*
X110598862Y-93858429D01*
X110617050Y-93912946D01*
X110667410Y-93994326D01*
X110681244Y-94016682D01*
X110700100Y-94082985D01*
X110700100Y-97473275D01*
X110680098Y-97541396D01*
X110663195Y-97562370D01*
X106273771Y-101951795D01*
X106211459Y-101985821D01*
X106184676Y-101988700D01*
X88074525Y-101988700D01*
X88006404Y-101968698D01*
X87985430Y-101951795D01*
X87333230Y-101299595D01*
X87299204Y-101237283D01*
X87304269Y-101166468D01*
X87346816Y-101109632D01*
X87413336Y-101084821D01*
X87422325Y-101084500D01*
X90362157Y-101084500D01*
X90375764Y-101085237D01*
X90407262Y-101088659D01*
X90407267Y-101088659D01*
X90413388Y-101089324D01*
X90439638Y-101087027D01*
X90463388Y-101084950D01*
X90468214Y-101084621D01*
X90470686Y-101084500D01*
X90473769Y-101084500D01*
X90485738Y-101083326D01*
X90516506Y-101080310D01*
X90517819Y-101080188D01*
X90562084Y-101076315D01*
X90610413Y-101072087D01*
X90615532Y-101070600D01*
X90620833Y-101070080D01*
X90709834Y-101043209D01*
X90710967Y-101042874D01*
X90794414Y-101018630D01*
X90794418Y-101018628D01*
X90800336Y-101016909D01*
X90805068Y-101014456D01*
X90810169Y-101012916D01*
X90854704Y-100989237D01*
X90892260Y-100969269D01*
X90893426Y-100968657D01*
X90970453Y-100928729D01*
X90975926Y-100925892D01*
X90980089Y-100922569D01*
X90984796Y-100920066D01*
X91056918Y-100861245D01*
X91057774Y-100860554D01*
X91096973Y-100829262D01*
X91099477Y-100826758D01*
X91100195Y-100826116D01*
X91104528Y-100822415D01*
X91138062Y-100795065D01*
X91167291Y-100759733D01*
X91175272Y-100750963D01*
X92057983Y-99868251D01*
X92068127Y-99859149D01*
X92092818Y-99839297D01*
X92097625Y-99835432D01*
X92129920Y-99796944D01*
X92133078Y-99793325D01*
X92134724Y-99791510D01*
X92136909Y-99789325D01*
X92138864Y-99786945D01*
X92138873Y-99786935D01*
X92164149Y-99756164D01*
X92164991Y-99755149D01*
X92220794Y-99688645D01*
X92224754Y-99683926D01*
X92227323Y-99679252D01*
X92230702Y-99675139D01*
X92274575Y-99593315D01*
X92275184Y-99592193D01*
X92287619Y-99569575D01*
X92320033Y-99510613D01*
X92321645Y-99505531D01*
X92324162Y-99500837D01*
X92351362Y-99411869D01*
X92351708Y-99410758D01*
X92363202Y-99374528D01*
X92379835Y-99322094D01*
X92380429Y-99316798D01*
X92381987Y-99311702D01*
X92391390Y-99219143D01*
X92391511Y-99218007D01*
X92397100Y-99168173D01*
X92397100Y-99164646D01*
X92397155Y-99163661D01*
X92397602Y-99157981D01*
X92401974Y-99114938D01*
X92401394Y-99108806D01*
X92401408Y-99104873D01*
X92420147Y-99039197D01*
X92425450Y-99030595D01*
X92458118Y-98977597D01*
X92476875Y-98947168D01*
X92476876Y-98947167D01*
X92480715Y-98940938D01*
X92536397Y-98773061D01*
X92547100Y-98668600D01*
X92547100Y-98665295D01*
X93330601Y-98665295D01*
X93330938Y-98671814D01*
X93340857Y-98767406D01*
X93343749Y-98780800D01*
X93395188Y-98934984D01*
X93401361Y-98948162D01*
X93486663Y-99086007D01*
X93495699Y-99097408D01*
X93610429Y-99211939D01*
X93621840Y-99220951D01*
X93759843Y-99306016D01*
X93773024Y-99312163D01*
X93927310Y-99363338D01*
X93940686Y-99366205D01*
X94035038Y-99375872D01*
X94041454Y-99376200D01*
X94216485Y-99376200D01*
X94231724Y-99371725D01*
X94232929Y-99370335D01*
X94234600Y-99362652D01*
X94234600Y-99358084D01*
X94742600Y-99358084D01*
X94747075Y-99373323D01*
X94748465Y-99374528D01*
X94756148Y-99376199D01*
X94935695Y-99376199D01*
X94942214Y-99375862D01*
X95037806Y-99365943D01*
X95051200Y-99363051D01*
X95205384Y-99311612D01*
X95218562Y-99305439D01*
X95356407Y-99220137D01*
X95367808Y-99211101D01*
X95482339Y-99096371D01*
X95491351Y-99084960D01*
X95576416Y-98946957D01*
X95582563Y-98933776D01*
X95633738Y-98779490D01*
X95636605Y-98766114D01*
X95646272Y-98671762D01*
X95646600Y-98665346D01*
X95646600Y-98541334D01*
X98475100Y-98541334D01*
X98481855Y-98603516D01*
X98532985Y-98739905D01*
X98620339Y-98856461D01*
X98736895Y-98943815D01*
X98873284Y-98994945D01*
X98935466Y-99001700D01*
X102181734Y-99001700D01*
X102243916Y-98994945D01*
X102380305Y-98943815D01*
X102496861Y-98856461D01*
X102584215Y-98739905D01*
X102635345Y-98603516D01*
X102642100Y-98541334D01*
X103525100Y-98541334D01*
X103531855Y-98603516D01*
X103582985Y-98739905D01*
X103670339Y-98856461D01*
X103786895Y-98943815D01*
X103923284Y-98994945D01*
X103985466Y-99001700D01*
X107231734Y-99001700D01*
X107293916Y-98994945D01*
X107430305Y-98943815D01*
X107546861Y-98856461D01*
X107634215Y-98739905D01*
X107685345Y-98603516D01*
X107692100Y-98541334D01*
X107692100Y-97445066D01*
X107685345Y-97382884D01*
X107634215Y-97246495D01*
X107546861Y-97129939D01*
X107430305Y-97042585D01*
X107293916Y-96991455D01*
X107238040Y-96985385D01*
X107235131Y-96985069D01*
X107231734Y-96984700D01*
X103985466Y-96984700D01*
X103982069Y-96985069D01*
X103979160Y-96985385D01*
X103923284Y-96991455D01*
X103786895Y-97042585D01*
X103670339Y-97129939D01*
X103582985Y-97246495D01*
X103531855Y-97382884D01*
X103525100Y-97445066D01*
X103525100Y-98541334D01*
X102642100Y-98541334D01*
X102642100Y-97445066D01*
X102635345Y-97382884D01*
X102584215Y-97246495D01*
X102496861Y-97129939D01*
X102380305Y-97042585D01*
X102243916Y-96991455D01*
X102188040Y-96985385D01*
X102185131Y-96985069D01*
X102181734Y-96984700D01*
X98935466Y-96984700D01*
X98932069Y-96985069D01*
X98929160Y-96985385D01*
X98873284Y-96991455D01*
X98736895Y-97042585D01*
X98620339Y-97129939D01*
X98532985Y-97246495D01*
X98481855Y-97382884D01*
X98475100Y-97445066D01*
X98475100Y-98541334D01*
X95646600Y-98541334D01*
X95646600Y-98265315D01*
X95642125Y-98250076D01*
X95640735Y-98248871D01*
X95633052Y-98247200D01*
X94760715Y-98247200D01*
X94745476Y-98251675D01*
X94744271Y-98253065D01*
X94742600Y-98260748D01*
X94742600Y-99358084D01*
X94234600Y-99358084D01*
X94234600Y-98265315D01*
X94230125Y-98250076D01*
X94228735Y-98248871D01*
X94221052Y-98247200D01*
X93348716Y-98247200D01*
X93333477Y-98251675D01*
X93332272Y-98253065D01*
X93330601Y-98260748D01*
X93330601Y-98665295D01*
X92547100Y-98665295D01*
X92547100Y-97317800D01*
X92546763Y-97314550D01*
X92536838Y-97218892D01*
X92536837Y-97218888D01*
X92536126Y-97212034D01*
X92517781Y-97157046D01*
X92482468Y-97051202D01*
X92480150Y-97044254D01*
X92415956Y-96940518D01*
X92397100Y-96874215D01*
X92397100Y-96572300D01*
X92415840Y-96506184D01*
X92476875Y-96407168D01*
X92476876Y-96407166D01*
X92480715Y-96400938D01*
X92515426Y-96296287D01*
X92534232Y-96239589D01*
X92534232Y-96239587D01*
X92536397Y-96233061D01*
X92547100Y-96128600D01*
X92547100Y-94777800D01*
X92546763Y-94774550D01*
X92536838Y-94678892D01*
X92536837Y-94678888D01*
X92536126Y-94672034D01*
X92511252Y-94597476D01*
X92482468Y-94511202D01*
X92480150Y-94504254D01*
X92387078Y-94353852D01*
X92261903Y-94228895D01*
X92255672Y-94225054D01*
X92117568Y-94139925D01*
X92117566Y-94139924D01*
X92111338Y-94136085D01*
X92012874Y-94103426D01*
X91949989Y-94082568D01*
X91949987Y-94082568D01*
X91943461Y-94080403D01*
X91936625Y-94079703D01*
X91936622Y-94079702D01*
X91893569Y-94075291D01*
X91839000Y-94069700D01*
X90938200Y-94069700D01*
X90934954Y-94070037D01*
X90934950Y-94070037D01*
X90839292Y-94079962D01*
X90839288Y-94079963D01*
X90832434Y-94080674D01*
X90825898Y-94082855D01*
X90825896Y-94082855D01*
X90693794Y-94126928D01*
X90664654Y-94136650D01*
X90514252Y-94229722D01*
X90509079Y-94234904D01*
X90461199Y-94282868D01*
X90389295Y-94354897D01*
X90385455Y-94361127D01*
X90385454Y-94361128D01*
X90328066Y-94454229D01*
X90296485Y-94505462D01*
X90240803Y-94673339D01*
X90230100Y-94777800D01*
X90230100Y-96128600D01*
X90230437Y-96131846D01*
X90230437Y-96131850D01*
X90236601Y-96191254D01*
X90241074Y-96234366D01*
X90243255Y-96240902D01*
X90243255Y-96240904D01*
X90266068Y-96309281D01*
X90297050Y-96402146D01*
X90344569Y-96478936D01*
X90361244Y-96505882D01*
X90380100Y-96572185D01*
X90380100Y-96874100D01*
X90361360Y-96940216D01*
X90324624Y-96999813D01*
X90296485Y-97045462D01*
X90276209Y-97106594D01*
X90261272Y-97151628D01*
X90240803Y-97213339D01*
X90240103Y-97220175D01*
X90240102Y-97220178D01*
X90237570Y-97244891D01*
X90230100Y-97317800D01*
X90230100Y-98668600D01*
X90230437Y-98671844D01*
X90230437Y-98671852D01*
X90240365Y-98767535D01*
X90227500Y-98837356D01*
X90204133Y-98869633D01*
X90043171Y-99030595D01*
X89980859Y-99064621D01*
X89954076Y-99067500D01*
X87591926Y-99067500D01*
X87523805Y-99047498D01*
X87502831Y-99030596D01*
X87217405Y-98745171D01*
X87183380Y-98682858D01*
X87180500Y-98656075D01*
X87180500Y-97775564D01*
X87200502Y-97707443D01*
X87254158Y-97660950D01*
X87324432Y-97650846D01*
X87389012Y-97680340D01*
X87397813Y-97689630D01*
X87397945Y-97689498D01*
X87509896Y-97801449D01*
X87522322Y-97811089D01*
X87651779Y-97887648D01*
X87666210Y-97893893D01*
X87800605Y-97932939D01*
X87814706Y-97932899D01*
X87818000Y-97925630D01*
X87818000Y-97919878D01*
X88326000Y-97919878D01*
X88329973Y-97933409D01*
X88337871Y-97934544D01*
X88477790Y-97893893D01*
X88492221Y-97887648D01*
X88621678Y-97811089D01*
X88634104Y-97801449D01*
X88740449Y-97695104D01*
X88750089Y-97682678D01*
X88826648Y-97553221D01*
X88832893Y-97538790D01*
X88875269Y-97392935D01*
X88877570Y-97380333D01*
X88879807Y-97351916D01*
X88880000Y-97346986D01*
X88880000Y-96967615D01*
X88875525Y-96952376D01*
X88874135Y-96951171D01*
X88866452Y-96949500D01*
X88344115Y-96949500D01*
X88328876Y-96953975D01*
X88327671Y-96955365D01*
X88326000Y-96963048D01*
X88326000Y-97919878D01*
X87818000Y-97919878D01*
X87818000Y-96423385D01*
X88326000Y-96423385D01*
X88330475Y-96438624D01*
X88331865Y-96439829D01*
X88339548Y-96441500D01*
X88861884Y-96441500D01*
X88877123Y-96437025D01*
X88878328Y-96435635D01*
X88879999Y-96427952D01*
X88879999Y-96044017D01*
X88879805Y-96039080D01*
X88877570Y-96010664D01*
X88875270Y-95998069D01*
X88832893Y-95852210D01*
X88826648Y-95837779D01*
X88750089Y-95708322D01*
X88740449Y-95695896D01*
X88634104Y-95589551D01*
X88621678Y-95579911D01*
X88492221Y-95503352D01*
X88477790Y-95497107D01*
X88343395Y-95458061D01*
X88329294Y-95458101D01*
X88326000Y-95465370D01*
X88326000Y-96423385D01*
X87818000Y-96423385D01*
X87818000Y-95812842D01*
X87835547Y-95748703D01*
X87877108Y-95678427D01*
X87881145Y-95671601D01*
X87927562Y-95511831D01*
X87928230Y-95503352D01*
X87930307Y-95476958D01*
X87930307Y-95476950D01*
X87930500Y-95474502D01*
X87930500Y-95471353D01*
X87930531Y-95471254D01*
X87930597Y-95469561D01*
X87931049Y-95469579D01*
X87952536Y-95400166D01*
X87954191Y-95397749D01*
X87958154Y-95393026D01*
X88053433Y-95219713D01*
X88059443Y-95200769D01*
X88111373Y-95037064D01*
X88111373Y-95037063D01*
X88113235Y-95031194D01*
X88130500Y-94877273D01*
X88130500Y-92660231D01*
X88127476Y-92629385D01*
X88118578Y-92538647D01*
X88116080Y-92513167D01*
X88111503Y-92498005D01*
X88080212Y-92394366D01*
X88058916Y-92323831D01*
X87966066Y-92149204D01*
X87863307Y-92023209D01*
X87844960Y-92000713D01*
X87844957Y-92000710D01*
X87841065Y-91995938D01*
X87807259Y-91967971D01*
X87693425Y-91873799D01*
X87693421Y-91873797D01*
X87688675Y-91869870D01*
X87683255Y-91866940D01*
X87683250Y-91866936D01*
X87621684Y-91833648D01*
X87571275Y-91783654D01*
X87555897Y-91714342D01*
X87580433Y-91647720D01*
X87592517Y-91633717D01*
X90347629Y-88878605D01*
X90409941Y-88844579D01*
X90436724Y-88841700D01*
X90517701Y-88841700D01*
X90585822Y-88861702D01*
X90624845Y-88901397D01*
X90644122Y-88932548D01*
X90769297Y-89057505D01*
X90775527Y-89061345D01*
X90775528Y-89061346D01*
X90912690Y-89145894D01*
X90919862Y-89150315D01*
X90969949Y-89166928D01*
X91081211Y-89203832D01*
X91081213Y-89203832D01*
X91087739Y-89205997D01*
X91094575Y-89206697D01*
X91094578Y-89206698D01*
X91136519Y-89210995D01*
X91192200Y-89216700D01*
X92093000Y-89216700D01*
X92096246Y-89216363D01*
X92096250Y-89216363D01*
X92191908Y-89206438D01*
X92191912Y-89206437D01*
X92198766Y-89205726D01*
X92205302Y-89203545D01*
X92205304Y-89203545D01*
X92337406Y-89159472D01*
X92366546Y-89149750D01*
X92516948Y-89056678D01*
X92641905Y-88931503D01*
X92646290Y-88924389D01*
X92730875Y-88787168D01*
X92730876Y-88787166D01*
X92734715Y-88780938D01*
X92770522Y-88672982D01*
X92788232Y-88619589D01*
X92788232Y-88619587D01*
X92790397Y-88613061D01*
X92793513Y-88582654D01*
X92795509Y-88563169D01*
X92801100Y-88508600D01*
X92801100Y-87157800D01*
X92798043Y-87128337D01*
X92790838Y-87058892D01*
X92790837Y-87058888D01*
X92790126Y-87052034D01*
X92785662Y-87038652D01*
X92736468Y-86891202D01*
X92734150Y-86884254D01*
X92641078Y-86733852D01*
X92515903Y-86608895D01*
X92509672Y-86605054D01*
X92507554Y-86603381D01*
X92466492Y-86545464D01*
X92463261Y-86474541D01*
X92498886Y-86413129D01*
X92562058Y-86380728D01*
X92585647Y-86378500D01*
X93231957Y-86378500D01*
X93245564Y-86379237D01*
X93277062Y-86382659D01*
X93277067Y-86382659D01*
X93283188Y-86383324D01*
X93309438Y-86381027D01*
X93333188Y-86378950D01*
X93338014Y-86378621D01*
X93340486Y-86378500D01*
X93343569Y-86378500D01*
X93355538Y-86377326D01*
X93386306Y-86374310D01*
X93387619Y-86374188D01*
X93431884Y-86370315D01*
X93480213Y-86366087D01*
X93485332Y-86364600D01*
X93490633Y-86364080D01*
X93579634Y-86337209D01*
X93580767Y-86336874D01*
X93664214Y-86312630D01*
X93664218Y-86312628D01*
X93670136Y-86310909D01*
X93674868Y-86308456D01*
X93679969Y-86306916D01*
X93696798Y-86297968D01*
X93762060Y-86263269D01*
X93763226Y-86262657D01*
X93840253Y-86222729D01*
X93845726Y-86219892D01*
X93849889Y-86216569D01*
X93854596Y-86214066D01*
X93926718Y-86155245D01*
X93927574Y-86154554D01*
X93966773Y-86123262D01*
X93969277Y-86120758D01*
X93969995Y-86120116D01*
X93974328Y-86116415D01*
X94007862Y-86089065D01*
X94037088Y-86053736D01*
X94045079Y-86044955D01*
X94248700Y-85841334D01*
X98475100Y-85841334D01*
X98475469Y-85844731D01*
X98475785Y-85847640D01*
X98481855Y-85903516D01*
X98532985Y-86039905D01*
X98620339Y-86156461D01*
X98736895Y-86243815D01*
X98873284Y-86294945D01*
X98935466Y-86301700D01*
X102181734Y-86301700D01*
X102243916Y-86294945D01*
X102380305Y-86243815D01*
X102496861Y-86156461D01*
X102537576Y-86102135D01*
X102594435Y-86059620D01*
X102638402Y-86051700D01*
X103528798Y-86051700D01*
X103596919Y-86071702D01*
X103629624Y-86102135D01*
X103670339Y-86156461D01*
X103786895Y-86243815D01*
X103923284Y-86294945D01*
X103985466Y-86301700D01*
X107231734Y-86301700D01*
X107293916Y-86294945D01*
X107430305Y-86243815D01*
X107546861Y-86156461D01*
X107634215Y-86039905D01*
X107685345Y-85903516D01*
X107691415Y-85847640D01*
X107691731Y-85844731D01*
X107692100Y-85841334D01*
X107692100Y-84745066D01*
X107685345Y-84682884D01*
X107634215Y-84546495D01*
X107546861Y-84429939D01*
X107430305Y-84342585D01*
X107293916Y-84291455D01*
X107231734Y-84284700D01*
X103985466Y-84284700D01*
X103923284Y-84291455D01*
X103786895Y-84342585D01*
X103670339Y-84429939D01*
X103629624Y-84484265D01*
X103572765Y-84526780D01*
X103528798Y-84534700D01*
X102638402Y-84534700D01*
X102570281Y-84514698D01*
X102537576Y-84484265D01*
X102496861Y-84429939D01*
X102380305Y-84342585D01*
X102243916Y-84291455D01*
X102181734Y-84284700D01*
X98935466Y-84284700D01*
X98873284Y-84291455D01*
X98736895Y-84342585D01*
X98620339Y-84429939D01*
X98532985Y-84546495D01*
X98481855Y-84682884D01*
X98475100Y-84745066D01*
X98475100Y-85841334D01*
X94248700Y-85841334D01*
X94569379Y-85520655D01*
X94579522Y-85511553D01*
X94604218Y-85491697D01*
X94609025Y-85487832D01*
X94641320Y-85449344D01*
X94644478Y-85445725D01*
X94646124Y-85443910D01*
X94648309Y-85441725D01*
X94650264Y-85439345D01*
X94650273Y-85439335D01*
X94675549Y-85408564D01*
X94676391Y-85407549D01*
X94732194Y-85341045D01*
X94736154Y-85336326D01*
X94738723Y-85331652D01*
X94742102Y-85327539D01*
X94745730Y-85320774D01*
X94785955Y-85245753D01*
X94786584Y-85244593D01*
X94793578Y-85231872D01*
X94831433Y-85163013D01*
X94833045Y-85157931D01*
X94835562Y-85153237D01*
X94862762Y-85064269D01*
X94863108Y-85063158D01*
X94879904Y-85010214D01*
X94891235Y-84974494D01*
X94891829Y-84969198D01*
X94893387Y-84964102D01*
X94902790Y-84871543D01*
X94902911Y-84870407D01*
X94908500Y-84820573D01*
X94908500Y-84817046D01*
X94908555Y-84816061D01*
X94909002Y-84810381D01*
X94913374Y-84767338D01*
X94909059Y-84721691D01*
X94908500Y-84709833D01*
X94908500Y-78221334D01*
X98475100Y-78221334D01*
X98481855Y-78283516D01*
X98532985Y-78419905D01*
X98620339Y-78536461D01*
X98736895Y-78623815D01*
X98873284Y-78674945D01*
X98935466Y-78681700D01*
X102181734Y-78681700D01*
X102243916Y-78674945D01*
X102380305Y-78623815D01*
X102496861Y-78536461D01*
X102537576Y-78482135D01*
X102594435Y-78439620D01*
X102638402Y-78431700D01*
X103528798Y-78431700D01*
X103596919Y-78451702D01*
X103629624Y-78482135D01*
X103670339Y-78536461D01*
X103786895Y-78623815D01*
X103923284Y-78674945D01*
X103985466Y-78681700D01*
X107231734Y-78681700D01*
X107293916Y-78674945D01*
X107430305Y-78623815D01*
X107546861Y-78536461D01*
X107634215Y-78419905D01*
X107685345Y-78283516D01*
X107692100Y-78221334D01*
X107692100Y-77125066D01*
X107685345Y-77062884D01*
X107634215Y-76926495D01*
X107546861Y-76809939D01*
X107430305Y-76722585D01*
X107293916Y-76671455D01*
X107231734Y-76664700D01*
X103985466Y-76664700D01*
X103923284Y-76671455D01*
X103786895Y-76722585D01*
X103670339Y-76809939D01*
X103664958Y-76817119D01*
X103629624Y-76864265D01*
X103572765Y-76906780D01*
X103528798Y-76914700D01*
X102638402Y-76914700D01*
X102570281Y-76894698D01*
X102537576Y-76864265D01*
X102502242Y-76817119D01*
X102496861Y-76809939D01*
X102380305Y-76722585D01*
X102243916Y-76671455D01*
X102181734Y-76664700D01*
X98935466Y-76664700D01*
X98873284Y-76671455D01*
X98736895Y-76722585D01*
X98620339Y-76809939D01*
X98532985Y-76926495D01*
X98481855Y-77062884D01*
X98475100Y-77125066D01*
X98475100Y-78221334D01*
X94908500Y-78221334D01*
X94908500Y-75681334D01*
X98475100Y-75681334D01*
X98481855Y-75743516D01*
X98532985Y-75879905D01*
X98620339Y-75996461D01*
X98736895Y-76083815D01*
X98873284Y-76134945D01*
X98935466Y-76141700D01*
X102181734Y-76141700D01*
X102243916Y-76134945D01*
X102380305Y-76083815D01*
X102496861Y-75996461D01*
X102537576Y-75942135D01*
X102594435Y-75899620D01*
X102638402Y-75891700D01*
X103528798Y-75891700D01*
X103596919Y-75911702D01*
X103629624Y-75942135D01*
X103670339Y-75996461D01*
X103786895Y-76083815D01*
X103923284Y-76134945D01*
X103985466Y-76141700D01*
X107231734Y-76141700D01*
X107293916Y-76134945D01*
X107430305Y-76083815D01*
X107546861Y-75996461D01*
X107602003Y-75922885D01*
X117718000Y-75922885D01*
X117722475Y-75938124D01*
X117723865Y-75939329D01*
X117731548Y-75941000D01*
X118853885Y-75941000D01*
X118869124Y-75936525D01*
X118870329Y-75935135D01*
X118872000Y-75927452D01*
X118872000Y-75922885D01*
X119380000Y-75922885D01*
X119384475Y-75938124D01*
X119385865Y-75939329D01*
X119393548Y-75941000D01*
X120515884Y-75941000D01*
X120531123Y-75936525D01*
X120532328Y-75935135D01*
X120533999Y-75927452D01*
X120533999Y-75250331D01*
X120533629Y-75243510D01*
X120528105Y-75192648D01*
X120524479Y-75177396D01*
X120479324Y-75056946D01*
X120470786Y-75041351D01*
X120394285Y-74939276D01*
X120381724Y-74926715D01*
X120279649Y-74850214D01*
X120264054Y-74841676D01*
X120143606Y-74796522D01*
X120128351Y-74792895D01*
X120077486Y-74787369D01*
X120070672Y-74787000D01*
X119398115Y-74787000D01*
X119382876Y-74791475D01*
X119381671Y-74792865D01*
X119380000Y-74800548D01*
X119380000Y-75922885D01*
X118872000Y-75922885D01*
X118872000Y-74805116D01*
X118867525Y-74789877D01*
X118866135Y-74788672D01*
X118858452Y-74787001D01*
X118181331Y-74787001D01*
X118174510Y-74787371D01*
X118123648Y-74792895D01*
X118108396Y-74796521D01*
X117987946Y-74841676D01*
X117972351Y-74850214D01*
X117870276Y-74926715D01*
X117857715Y-74939276D01*
X117781214Y-75041351D01*
X117772676Y-75056946D01*
X117727522Y-75177394D01*
X117723895Y-75192649D01*
X117718369Y-75243514D01*
X117718000Y-75250328D01*
X117718000Y-75922885D01*
X107602003Y-75922885D01*
X107634215Y-75879905D01*
X107685345Y-75743516D01*
X107692100Y-75681334D01*
X107692100Y-74585066D01*
X107685345Y-74522884D01*
X107634215Y-74386495D01*
X107546861Y-74269939D01*
X107430305Y-74182585D01*
X107293916Y-74131455D01*
X107231734Y-74124700D01*
X103985466Y-74124700D01*
X103923284Y-74131455D01*
X103786895Y-74182585D01*
X103670339Y-74269939D01*
X103664958Y-74277119D01*
X103629624Y-74324265D01*
X103572765Y-74366780D01*
X103528798Y-74374700D01*
X102638402Y-74374700D01*
X102570281Y-74354698D01*
X102537576Y-74324265D01*
X102502242Y-74277119D01*
X102496861Y-74269939D01*
X102380305Y-74182585D01*
X102243916Y-74131455D01*
X102181734Y-74124700D01*
X98935466Y-74124700D01*
X98873284Y-74131455D01*
X98736895Y-74182585D01*
X98620339Y-74269939D01*
X98532985Y-74386495D01*
X98481855Y-74522884D01*
X98475100Y-74585066D01*
X98475100Y-75681334D01*
X94908500Y-75681334D01*
X94908500Y-73141334D01*
X98475100Y-73141334D01*
X98481855Y-73203516D01*
X98532985Y-73339905D01*
X98620339Y-73456461D01*
X98736895Y-73543815D01*
X98873284Y-73594945D01*
X98935466Y-73601700D01*
X102181734Y-73601700D01*
X102243916Y-73594945D01*
X102380305Y-73543815D01*
X102496861Y-73456461D01*
X102537576Y-73402135D01*
X102594435Y-73359620D01*
X102638402Y-73351700D01*
X103528798Y-73351700D01*
X103596919Y-73371702D01*
X103629624Y-73402135D01*
X103670339Y-73456461D01*
X103786895Y-73543815D01*
X103923284Y-73594945D01*
X103985466Y-73601700D01*
X107231734Y-73601700D01*
X107293916Y-73594945D01*
X107430305Y-73543815D01*
X107546861Y-73456461D01*
X107634215Y-73339905D01*
X107685345Y-73203516D01*
X107692100Y-73141334D01*
X107692100Y-72045066D01*
X107685345Y-71982884D01*
X107634215Y-71846495D01*
X107546861Y-71729939D01*
X107430305Y-71642585D01*
X107293916Y-71591455D01*
X107231734Y-71584700D01*
X103985466Y-71584700D01*
X103923284Y-71591455D01*
X103786895Y-71642585D01*
X103670339Y-71729939D01*
X103664958Y-71737119D01*
X103629624Y-71784265D01*
X103572765Y-71826780D01*
X103528798Y-71834700D01*
X102638402Y-71834700D01*
X102570281Y-71814698D01*
X102537576Y-71784265D01*
X102502242Y-71737119D01*
X102496861Y-71729939D01*
X102380305Y-71642585D01*
X102243916Y-71591455D01*
X102181734Y-71584700D01*
X98935466Y-71584700D01*
X98873284Y-71591455D01*
X98736895Y-71642585D01*
X98620339Y-71729939D01*
X98532985Y-71846495D01*
X98481855Y-71982884D01*
X98475100Y-72045066D01*
X98475100Y-73141334D01*
X94908500Y-73141334D01*
X94908500Y-70601334D01*
X98475100Y-70601334D01*
X98481855Y-70663516D01*
X98532985Y-70799905D01*
X98620339Y-70916461D01*
X98736895Y-71003815D01*
X98873284Y-71054945D01*
X98935466Y-71061700D01*
X102181734Y-71061700D01*
X102243916Y-71054945D01*
X102380305Y-71003815D01*
X102496861Y-70916461D01*
X102537576Y-70862135D01*
X102594435Y-70819620D01*
X102638402Y-70811700D01*
X103528798Y-70811700D01*
X103596919Y-70831702D01*
X103629624Y-70862135D01*
X103670339Y-70916461D01*
X103786895Y-71003815D01*
X103923284Y-71054945D01*
X103985466Y-71061700D01*
X107231734Y-71061700D01*
X107293916Y-71054945D01*
X107430305Y-71003815D01*
X107546861Y-70916461D01*
X107634215Y-70799905D01*
X107685345Y-70663516D01*
X107692100Y-70601334D01*
X107692100Y-70169654D01*
X115590218Y-70169654D01*
X115597273Y-70179627D01*
X115628279Y-70205551D01*
X115635198Y-70210579D01*
X115859872Y-70351515D01*
X115867407Y-70355556D01*
X116109120Y-70464694D01*
X116117151Y-70467680D01*
X116371432Y-70543002D01*
X116379784Y-70544869D01*
X116641940Y-70584984D01*
X116650474Y-70585700D01*
X116915645Y-70589867D01*
X116924196Y-70589418D01*
X117187483Y-70557557D01*
X117195884Y-70555955D01*
X117452424Y-70488653D01*
X117460526Y-70485926D01*
X117705549Y-70384434D01*
X117713217Y-70380628D01*
X117942198Y-70246822D01*
X117949279Y-70242009D01*
X118029255Y-70179301D01*
X118037725Y-70167442D01*
X118031208Y-70155818D01*
X116827412Y-68952022D01*
X116813468Y-68944408D01*
X116811635Y-68944539D01*
X116805020Y-68948790D01*
X115597510Y-70156300D01*
X115590218Y-70169654D01*
X107692100Y-70169654D01*
X107692100Y-69505066D01*
X107685345Y-69442884D01*
X107634215Y-69306495D01*
X107546861Y-69189939D01*
X107430305Y-69102585D01*
X107293916Y-69051455D01*
X107231734Y-69044700D01*
X103985466Y-69044700D01*
X103923284Y-69051455D01*
X103786895Y-69102585D01*
X103670339Y-69189939D01*
X103664958Y-69197119D01*
X103629624Y-69244265D01*
X103572765Y-69286780D01*
X103528798Y-69294700D01*
X102638402Y-69294700D01*
X102570281Y-69274698D01*
X102537576Y-69244265D01*
X102502242Y-69197119D01*
X102496861Y-69189939D01*
X102380305Y-69102585D01*
X102243916Y-69051455D01*
X102181734Y-69044700D01*
X98935466Y-69044700D01*
X98873284Y-69051455D01*
X98736895Y-69102585D01*
X98620339Y-69189939D01*
X98532985Y-69306495D01*
X98481855Y-69442884D01*
X98475100Y-69505066D01*
X98475100Y-70601334D01*
X94908500Y-70601334D01*
X94908500Y-68563204D01*
X114802265Y-68563204D01*
X114817532Y-68827969D01*
X114818605Y-68836470D01*
X114869665Y-69096722D01*
X114871876Y-69104974D01*
X114957784Y-69355894D01*
X114961099Y-69363779D01*
X115080264Y-69600713D01*
X115084620Y-69608079D01*
X115213947Y-69796250D01*
X115224201Y-69804594D01*
X115237942Y-69797448D01*
X116442578Y-68592812D01*
X116448956Y-68581132D01*
X117179008Y-68581132D01*
X117179139Y-68582965D01*
X117183390Y-68589580D01*
X118390330Y-69796520D01*
X118402539Y-69803187D01*
X118414039Y-69794497D01*
X118511431Y-69661913D01*
X118516018Y-69654685D01*
X118642562Y-69421621D01*
X118646130Y-69413827D01*
X118739871Y-69165750D01*
X118742348Y-69157544D01*
X118801554Y-68899038D01*
X118802894Y-68890577D01*
X118826631Y-68624616D01*
X118826877Y-68619677D01*
X118827266Y-68582485D01*
X118827123Y-68577519D01*
X118808962Y-68311123D01*
X118807801Y-68302649D01*
X118754019Y-68042944D01*
X118751720Y-68034709D01*
X118663188Y-67784705D01*
X118659791Y-67776854D01*
X118538150Y-67541178D01*
X118533722Y-67533866D01*
X118414631Y-67364417D01*
X118404109Y-67356037D01*
X118390721Y-67363089D01*
X117186622Y-68567188D01*
X117179008Y-68581132D01*
X116448956Y-68581132D01*
X116450192Y-68578868D01*
X116450061Y-68577035D01*
X116445810Y-68570420D01*
X115238414Y-67363024D01*
X115226404Y-67356466D01*
X115214664Y-67365434D01*
X115106535Y-67515911D01*
X115102018Y-67523196D01*
X114977925Y-67757567D01*
X114974439Y-67765395D01*
X114883300Y-68014446D01*
X114880911Y-68022670D01*
X114824412Y-68281795D01*
X114823163Y-68290250D01*
X114802354Y-68554653D01*
X114802265Y-68563204D01*
X94908500Y-68563204D01*
X94908500Y-68061334D01*
X98475100Y-68061334D01*
X98481855Y-68123516D01*
X98532985Y-68259905D01*
X98620339Y-68376461D01*
X98736895Y-68463815D01*
X98873284Y-68514945D01*
X98935466Y-68521700D01*
X102181734Y-68521700D01*
X102243916Y-68514945D01*
X102380305Y-68463815D01*
X102496861Y-68376461D01*
X102537576Y-68322135D01*
X102594435Y-68279620D01*
X102638402Y-68271700D01*
X103528798Y-68271700D01*
X103596919Y-68291702D01*
X103629624Y-68322135D01*
X103670339Y-68376461D01*
X103786895Y-68463815D01*
X103923284Y-68514945D01*
X103985466Y-68521700D01*
X107231734Y-68521700D01*
X107293916Y-68514945D01*
X107430305Y-68463815D01*
X107546861Y-68376461D01*
X107634215Y-68259905D01*
X107685345Y-68123516D01*
X107692100Y-68061334D01*
X107692100Y-66992500D01*
X115591184Y-66992500D01*
X115597580Y-67003770D01*
X116801788Y-68207978D01*
X116815732Y-68215592D01*
X116817565Y-68215461D01*
X116824180Y-68211210D01*
X118031204Y-67004186D01*
X118038395Y-66991017D01*
X118031073Y-66980780D01*
X117983833Y-66942115D01*
X117976861Y-66937160D01*
X117750722Y-66798582D01*
X117743152Y-66794624D01*
X117500304Y-66688022D01*
X117492244Y-66685120D01*
X117237192Y-66612467D01*
X117228814Y-66610685D01*
X116966256Y-66573318D01*
X116957711Y-66572691D01*
X116692508Y-66571302D01*
X116683974Y-66571839D01*
X116421033Y-66606456D01*
X116412635Y-66608149D01*
X116156838Y-66678127D01*
X116148743Y-66680946D01*
X115904799Y-66784997D01*
X115897177Y-66788881D01*
X115669613Y-66925075D01*
X115662581Y-66929962D01*
X115599653Y-66980377D01*
X115591184Y-66992500D01*
X107692100Y-66992500D01*
X107692100Y-66965066D01*
X107685345Y-66902884D01*
X107634215Y-66766495D01*
X107546861Y-66649939D01*
X107430305Y-66562585D01*
X107293916Y-66511455D01*
X107231734Y-66504700D01*
X103985466Y-66504700D01*
X103923284Y-66511455D01*
X103786895Y-66562585D01*
X103670339Y-66649939D01*
X103664958Y-66657119D01*
X103629624Y-66704265D01*
X103572765Y-66746780D01*
X103528798Y-66754700D01*
X102638402Y-66754700D01*
X102570281Y-66734698D01*
X102537576Y-66704265D01*
X102502242Y-66657119D01*
X102496861Y-66649939D01*
X102380305Y-66562585D01*
X102243916Y-66511455D01*
X102181734Y-66504700D01*
X98935466Y-66504700D01*
X98873284Y-66511455D01*
X98736895Y-66562585D01*
X98620339Y-66649939D01*
X98532985Y-66766495D01*
X98481855Y-66902884D01*
X98475100Y-66965066D01*
X98475100Y-68061334D01*
X94908500Y-68061334D01*
X94908500Y-65521334D01*
X98475100Y-65521334D01*
X98481855Y-65583516D01*
X98532985Y-65719905D01*
X98620339Y-65836461D01*
X98736895Y-65923815D01*
X98873284Y-65974945D01*
X98935466Y-65981700D01*
X102181734Y-65981700D01*
X102243916Y-65974945D01*
X102380305Y-65923815D01*
X102496861Y-65836461D01*
X102537576Y-65782135D01*
X102594435Y-65739620D01*
X102638402Y-65731700D01*
X103528798Y-65731700D01*
X103596919Y-65751702D01*
X103629624Y-65782135D01*
X103670339Y-65836461D01*
X103786895Y-65923815D01*
X103923284Y-65974945D01*
X103985466Y-65981700D01*
X107231734Y-65981700D01*
X107293916Y-65974945D01*
X107430305Y-65923815D01*
X107546861Y-65836461D01*
X107634215Y-65719905D01*
X107685345Y-65583516D01*
X107692100Y-65521334D01*
X107692100Y-64425066D01*
X107685345Y-64362884D01*
X107634215Y-64226495D01*
X107546861Y-64109939D01*
X107430305Y-64022585D01*
X107293916Y-63971455D01*
X107231734Y-63964700D01*
X103985466Y-63964700D01*
X103923284Y-63971455D01*
X103786895Y-64022585D01*
X103670339Y-64109939D01*
X103664958Y-64117119D01*
X103629624Y-64164265D01*
X103572765Y-64206780D01*
X103528798Y-64214700D01*
X102638402Y-64214700D01*
X102570281Y-64194698D01*
X102537576Y-64164265D01*
X102502242Y-64117119D01*
X102496861Y-64109939D01*
X102380305Y-64022585D01*
X102243916Y-63971455D01*
X102181734Y-63964700D01*
X98935466Y-63964700D01*
X98873284Y-63971455D01*
X98736895Y-64022585D01*
X98620339Y-64109939D01*
X98532985Y-64226495D01*
X98481855Y-64362884D01*
X98475100Y-64425066D01*
X98475100Y-65521334D01*
X94908500Y-65521334D01*
X94908500Y-63478918D01*
X114801517Y-63478918D01*
X114817282Y-63752320D01*
X114818107Y-63756525D01*
X114818108Y-63756533D01*
X114828727Y-63810657D01*
X114870005Y-64021053D01*
X114871392Y-64025103D01*
X114871393Y-64025108D01*
X114943222Y-64234903D01*
X114958712Y-64280144D01*
X115081760Y-64524799D01*
X115084186Y-64528328D01*
X115084189Y-64528334D01*
X115234443Y-64746953D01*
X115236874Y-64750490D01*
X115421182Y-64953043D01*
X115631275Y-65128707D01*
X115634916Y-65130991D01*
X115859624Y-65271951D01*
X115859628Y-65271953D01*
X115863264Y-65274234D01*
X115931144Y-65304883D01*
X116108945Y-65385164D01*
X116108949Y-65385166D01*
X116112857Y-65386930D01*
X116116977Y-65388150D01*
X116116976Y-65388150D01*
X116371323Y-65463491D01*
X116371327Y-65463492D01*
X116375436Y-65464709D01*
X116379670Y-65465357D01*
X116379675Y-65465358D01*
X116641898Y-65505483D01*
X116641900Y-65505483D01*
X116646140Y-65506132D01*
X116785512Y-65508322D01*
X116915671Y-65510367D01*
X116915677Y-65510367D01*
X116919962Y-65510434D01*
X117191835Y-65477534D01*
X117456727Y-65408041D01*
X117460687Y-65406401D01*
X117460692Y-65406399D01*
X117583232Y-65355641D01*
X117709736Y-65303241D01*
X117946182Y-65165073D01*
X118161689Y-64996094D01*
X118203409Y-64953043D01*
X118349286Y-64802509D01*
X118352269Y-64799431D01*
X118354802Y-64795983D01*
X118354806Y-64795978D01*
X118511857Y-64582178D01*
X118514395Y-64578723D01*
X118541754Y-64528334D01*
X118643018Y-64341830D01*
X118643019Y-64341828D01*
X118645068Y-64338054D01*
X118741869Y-64081877D01*
X118803007Y-63814933D01*
X118827351Y-63542161D01*
X118827793Y-63500000D01*
X118823819Y-63441700D01*
X118809459Y-63231055D01*
X118809458Y-63231049D01*
X118809167Y-63226778D01*
X118753632Y-62958612D01*
X118662217Y-62700465D01*
X118536613Y-62457112D01*
X118526640Y-62442921D01*
X118381608Y-62236562D01*
X118379145Y-62233057D01*
X118192725Y-62032445D01*
X118189410Y-62029731D01*
X118189406Y-62029728D01*
X118016838Y-61888483D01*
X117980805Y-61858990D01*
X117747304Y-61715901D01*
X117743368Y-61714173D01*
X117500473Y-61607549D01*
X117500469Y-61607548D01*
X117496545Y-61605825D01*
X117233166Y-61530800D01*
X117228924Y-61530196D01*
X117228918Y-61530195D01*
X117028434Y-61501662D01*
X116962043Y-61492213D01*
X116818189Y-61491460D01*
X116692477Y-61490802D01*
X116692471Y-61490802D01*
X116688191Y-61490780D01*
X116683947Y-61491339D01*
X116683943Y-61491339D01*
X116564902Y-61507011D01*
X116416678Y-61526525D01*
X116412538Y-61527658D01*
X116412536Y-61527658D01*
X116339608Y-61547609D01*
X116152528Y-61598788D01*
X116148580Y-61600472D01*
X115904582Y-61704546D01*
X115904578Y-61704548D01*
X115900630Y-61706232D01*
X115880725Y-61718145D01*
X115669325Y-61844664D01*
X115669321Y-61844667D01*
X115665643Y-61846868D01*
X115451918Y-62018094D01*
X115263408Y-62216742D01*
X115103602Y-62439136D01*
X114975457Y-62681161D01*
X114973985Y-62685184D01*
X114973983Y-62685188D01*
X114966914Y-62704506D01*
X114881343Y-62938337D01*
X114823004Y-63205907D01*
X114801517Y-63478918D01*
X94908500Y-63478918D01*
X94908500Y-62981334D01*
X98475100Y-62981334D01*
X98481855Y-63043516D01*
X98532985Y-63179905D01*
X98620339Y-63296461D01*
X98736895Y-63383815D01*
X98873284Y-63434945D01*
X98935466Y-63441700D01*
X102181734Y-63441700D01*
X102243916Y-63434945D01*
X102380305Y-63383815D01*
X102496861Y-63296461D01*
X102537576Y-63242135D01*
X102594435Y-63199620D01*
X102638402Y-63191700D01*
X103528798Y-63191700D01*
X103596919Y-63211702D01*
X103629624Y-63242135D01*
X103670339Y-63296461D01*
X103786895Y-63383815D01*
X103923284Y-63434945D01*
X103985466Y-63441700D01*
X107231734Y-63441700D01*
X107293916Y-63434945D01*
X107430305Y-63383815D01*
X107546861Y-63296461D01*
X107634215Y-63179905D01*
X107685345Y-63043516D01*
X107692100Y-62981334D01*
X107692100Y-61885066D01*
X107685345Y-61822884D01*
X107634215Y-61686495D01*
X107546861Y-61569939D01*
X107430305Y-61482585D01*
X107293916Y-61431455D01*
X107231734Y-61424700D01*
X103985466Y-61424700D01*
X103923284Y-61431455D01*
X103786895Y-61482585D01*
X103670339Y-61569939D01*
X103664958Y-61577119D01*
X103629624Y-61624265D01*
X103572765Y-61666780D01*
X103528798Y-61674700D01*
X102638402Y-61674700D01*
X102570281Y-61654698D01*
X102537576Y-61624265D01*
X102502242Y-61577119D01*
X102496861Y-61569939D01*
X102380305Y-61482585D01*
X102243916Y-61431455D01*
X102181734Y-61424700D01*
X98935466Y-61424700D01*
X98873284Y-61431455D01*
X98736895Y-61482585D01*
X98620339Y-61569939D01*
X98532985Y-61686495D01*
X98481855Y-61822884D01*
X98475100Y-61885066D01*
X98475100Y-62981334D01*
X94908500Y-62981334D01*
X94908500Y-59554500D01*
X94928502Y-59486379D01*
X94982158Y-59439886D01*
X95034500Y-59428500D01*
X114680100Y-59428500D01*
X114748221Y-59448502D01*
X114794714Y-59502158D01*
X114806100Y-59554500D01*
X114806100Y-59968134D01*
X114812855Y-60030316D01*
X114863985Y-60166705D01*
X114951339Y-60283261D01*
X115067895Y-60370615D01*
X115204284Y-60421745D01*
X115266466Y-60428500D01*
X118362734Y-60428500D01*
X118424916Y-60421745D01*
X118561305Y-60370615D01*
X118677861Y-60283261D01*
X118765215Y-60166705D01*
X118816345Y-60030316D01*
X118823100Y-59968134D01*
X118823100Y-56871866D01*
X118816345Y-56809684D01*
X118765215Y-56673295D01*
X118677861Y-56556739D01*
X118561305Y-56469385D01*
X118424916Y-56418255D01*
X118362734Y-56411500D01*
X115266466Y-56411500D01*
X115204284Y-56418255D01*
X115067895Y-56469385D01*
X114951339Y-56556739D01*
X114863985Y-56673295D01*
X114812855Y-56809684D01*
X114806100Y-56871866D01*
X114806100Y-57285500D01*
X114786098Y-57353621D01*
X114732442Y-57400114D01*
X114680100Y-57411500D01*
X95034500Y-57411500D01*
X94966379Y-57391498D01*
X94919886Y-57337842D01*
X94908500Y-57285500D01*
X94908500Y-55880000D01*
X121920000Y-55880000D01*
X121920000Y-104014000D01*
G37*
%TD.AperFunction*%
%TA.AperFunction,Conductor*%
G36*
X92891500Y-58285957D02*
G01*
X92890763Y-58299564D01*
X92886676Y-58337188D01*
X92887213Y-58343323D01*
X92891021Y-58386853D01*
X92891500Y-58397834D01*
X92891500Y-84235500D01*
X92871498Y-84303621D01*
X92817842Y-84350114D01*
X92765500Y-84361500D01*
X92305100Y-84361500D01*
X92238984Y-84342760D01*
X92139968Y-84281725D01*
X92139966Y-84281724D01*
X92133738Y-84277885D01*
X92049142Y-84249826D01*
X91972389Y-84224368D01*
X91972387Y-84224368D01*
X91965861Y-84222203D01*
X91959025Y-84221503D01*
X91959022Y-84221502D01*
X91915969Y-84217091D01*
X91861400Y-84211500D01*
X90510600Y-84211500D01*
X90507354Y-84211837D01*
X90507350Y-84211837D01*
X90411692Y-84221762D01*
X90411688Y-84221763D01*
X90404834Y-84222474D01*
X90398298Y-84224655D01*
X90398296Y-84224655D01*
X90278274Y-84264698D01*
X90237054Y-84278450D01*
X90086652Y-84371522D01*
X89961695Y-84496697D01*
X89957855Y-84502927D01*
X89957854Y-84502928D01*
X89911271Y-84578500D01*
X89868885Y-84647262D01*
X89846159Y-84715778D01*
X89817583Y-84801935D01*
X89813203Y-84815139D01*
X89802500Y-84919600D01*
X89802500Y-85820400D01*
X89802837Y-85823646D01*
X89802837Y-85823650D01*
X89811969Y-85911660D01*
X89813474Y-85926166D01*
X89815655Y-85932702D01*
X89815655Y-85932704D01*
X89837051Y-85996834D01*
X89869450Y-86093946D01*
X89962522Y-86244348D01*
X90087697Y-86369305D01*
X90106228Y-86380728D01*
X90117618Y-86387749D01*
X90165110Y-86440522D01*
X90177500Y-86495008D01*
X90177500Y-86698700D01*
X90157498Y-86766821D01*
X90103842Y-86813314D01*
X90051500Y-86824700D01*
X90028640Y-86824700D01*
X90015032Y-86823963D01*
X89983536Y-86820541D01*
X89983532Y-86820541D01*
X89977411Y-86819876D01*
X89959420Y-86821450D01*
X89927409Y-86824250D01*
X89922584Y-86824579D01*
X89920113Y-86824700D01*
X89917031Y-86824700D01*
X89894563Y-86826903D01*
X89874289Y-86828891D01*
X89872974Y-86829013D01*
X89840713Y-86831836D01*
X89780387Y-86837113D01*
X89775268Y-86838600D01*
X89769967Y-86839120D01*
X89680994Y-86865982D01*
X89679854Y-86866320D01*
X89590463Y-86892291D01*
X89585729Y-86894745D01*
X89580631Y-86896284D01*
X89575187Y-86899178D01*
X89575186Y-86899179D01*
X89498631Y-86939884D01*
X89497463Y-86940498D01*
X89426814Y-86977119D01*
X89414874Y-86983308D01*
X89410711Y-86986631D01*
X89406004Y-86989134D01*
X89401230Y-86993028D01*
X89401228Y-86993029D01*
X89333905Y-87047937D01*
X89332960Y-87048700D01*
X89293827Y-87079939D01*
X89291336Y-87082430D01*
X89290609Y-87083080D01*
X89286263Y-87086792D01*
X89274055Y-87096749D01*
X89252738Y-87114135D01*
X89248815Y-87118877D01*
X89248813Y-87118879D01*
X89223503Y-87149473D01*
X89215513Y-87158253D01*
X80585221Y-95788545D01*
X80575078Y-95797647D01*
X80545575Y-95821368D01*
X80526250Y-95844399D01*
X80513309Y-95859821D01*
X80510128Y-95863469D01*
X80508485Y-95865281D01*
X80506291Y-95867475D01*
X80478958Y-95900749D01*
X80478296Y-95901547D01*
X80418446Y-95972874D01*
X80415878Y-95977544D01*
X80412497Y-95981661D01*
X80396946Y-96010664D01*
X80368623Y-96063486D01*
X80367994Y-96064645D01*
X80326138Y-96140781D01*
X80326135Y-96140789D01*
X80323167Y-96146187D01*
X80321555Y-96151269D01*
X80319038Y-96155963D01*
X80291838Y-96244931D01*
X80291518Y-96245959D01*
X80263365Y-96334706D01*
X80262771Y-96340002D01*
X80261213Y-96345098D01*
X80252797Y-96427952D01*
X80251818Y-96437587D01*
X80251689Y-96438793D01*
X80249120Y-96461700D01*
X80246529Y-96484806D01*
X80246100Y-96488627D01*
X80246100Y-96492154D01*
X80246045Y-96493139D01*
X80245598Y-96498819D01*
X80241226Y-96541862D01*
X80244103Y-96572300D01*
X80245541Y-96587509D01*
X80246100Y-96599367D01*
X80246100Y-97817831D01*
X80226098Y-97885952D01*
X80186404Y-97924974D01*
X80156719Y-97943344D01*
X80090416Y-97962200D01*
X78862979Y-97962200D01*
X78796863Y-97943460D01*
X78677568Y-97869925D01*
X78677566Y-97869924D01*
X78671338Y-97866085D01*
X78525856Y-97817831D01*
X78509989Y-97812568D01*
X78509987Y-97812568D01*
X78503461Y-97810403D01*
X78496625Y-97809703D01*
X78496622Y-97809702D01*
X78453569Y-97805291D01*
X78399000Y-97799700D01*
X78006024Y-97799700D01*
X77937903Y-97779698D01*
X77916929Y-97762795D01*
X77477955Y-97323821D01*
X77468853Y-97313678D01*
X77448997Y-97288982D01*
X77445132Y-97284175D01*
X77406678Y-97251908D01*
X77403031Y-97248728D01*
X77401219Y-97247085D01*
X77399025Y-97244891D01*
X77365751Y-97217558D01*
X77364953Y-97216896D01*
X77293626Y-97157046D01*
X77288956Y-97154478D01*
X77284839Y-97151097D01*
X77203014Y-97107223D01*
X77201855Y-97106594D01*
X77125719Y-97064738D01*
X77125711Y-97064735D01*
X77120313Y-97061767D01*
X77115231Y-97060155D01*
X77110537Y-97057638D01*
X77021569Y-97030438D01*
X77020541Y-97030118D01*
X76931794Y-97001965D01*
X76926498Y-97001371D01*
X76921402Y-96999813D01*
X76828843Y-96990410D01*
X76827707Y-96990289D01*
X76794092Y-96986519D01*
X76781370Y-96985092D01*
X76781366Y-96985092D01*
X76777873Y-96984700D01*
X76774346Y-96984700D01*
X76773361Y-96984645D01*
X76767681Y-96984198D01*
X76738275Y-96981211D01*
X76730763Y-96980448D01*
X76730761Y-96980448D01*
X76724638Y-96979826D01*
X76682359Y-96983823D01*
X76678991Y-96984141D01*
X76667133Y-96984700D01*
X65864666Y-96984700D01*
X65861269Y-96985069D01*
X65858360Y-96985385D01*
X65802484Y-96991455D01*
X65666095Y-97042585D01*
X65549539Y-97129939D01*
X65462185Y-97246495D01*
X65411055Y-97382884D01*
X65404300Y-97445066D01*
X65404300Y-98541334D01*
X65411055Y-98603516D01*
X65462185Y-98739905D01*
X65549539Y-98856461D01*
X65666095Y-98943815D01*
X65802484Y-98994945D01*
X65864666Y-99001700D01*
X76164100Y-99001700D01*
X76232221Y-99021702D01*
X76278714Y-99075358D01*
X76290100Y-99127700D01*
X76290100Y-99433600D01*
X76290437Y-99436846D01*
X76290437Y-99436850D01*
X76298091Y-99510613D01*
X76301074Y-99539366D01*
X76303255Y-99545902D01*
X76303255Y-99545904D01*
X76340974Y-99658962D01*
X76357050Y-99707146D01*
X76450122Y-99857548D01*
X76575297Y-99982505D01*
X76581527Y-99986345D01*
X76581528Y-99986346D01*
X76718690Y-100070894D01*
X76725862Y-100075315D01*
X76805605Y-100101764D01*
X76887211Y-100128832D01*
X76887213Y-100128832D01*
X76893739Y-100130997D01*
X76900575Y-100131697D01*
X76900578Y-100131698D01*
X76943631Y-100136109D01*
X76998200Y-100141700D01*
X78399000Y-100141700D01*
X78402246Y-100141363D01*
X78402250Y-100141363D01*
X78497908Y-100131438D01*
X78497912Y-100131437D01*
X78504766Y-100130726D01*
X78511302Y-100128545D01*
X78511304Y-100128545D01*
X78643406Y-100084472D01*
X78672546Y-100074750D01*
X78796481Y-99998056D01*
X78862785Y-99979200D01*
X80090221Y-99979200D01*
X80156337Y-99997940D01*
X80274690Y-100070894D01*
X80281862Y-100075315D01*
X80361605Y-100101764D01*
X80443211Y-100128832D01*
X80443213Y-100128832D01*
X80449739Y-100130997D01*
X80456575Y-100131697D01*
X80456578Y-100131698D01*
X80499631Y-100136109D01*
X80554200Y-100141700D01*
X81955000Y-100141700D01*
X81958246Y-100141363D01*
X81958250Y-100141363D01*
X82053908Y-100131438D01*
X82053912Y-100131437D01*
X82060766Y-100130726D01*
X82067302Y-100128545D01*
X82067304Y-100128545D01*
X82199406Y-100084472D01*
X82228546Y-100074750D01*
X82352481Y-99998056D01*
X82418785Y-99979200D01*
X83108175Y-99979200D01*
X83176296Y-99999202D01*
X83197270Y-100016105D01*
X86847745Y-103666579D01*
X86856847Y-103676722D01*
X86870872Y-103694165D01*
X86880568Y-103706225D01*
X86885296Y-103710192D01*
X86919021Y-103738491D01*
X86922669Y-103741672D01*
X86924481Y-103743315D01*
X86926675Y-103745509D01*
X86959949Y-103772842D01*
X86960747Y-103773504D01*
X87032074Y-103833354D01*
X87036744Y-103835922D01*
X87040861Y-103839303D01*
X87060679Y-103849929D01*
X87122686Y-103883177D01*
X87123844Y-103883806D01*
X87159823Y-103903585D01*
X87209883Y-103953929D01*
X87224777Y-104023346D01*
X87199777Y-104089795D01*
X87142821Y-104132180D01*
X87099124Y-104140000D01*
X59877810Y-104140000D01*
X59809689Y-104119998D01*
X59763196Y-104066342D01*
X59753092Y-103996068D01*
X59761222Y-103966218D01*
X59766259Y-103953929D01*
X60339470Y-102555295D01*
X76290601Y-102555295D01*
X76290938Y-102561814D01*
X76300857Y-102657406D01*
X76303749Y-102670800D01*
X76355188Y-102824984D01*
X76361361Y-102838162D01*
X76446663Y-102976007D01*
X76455699Y-102987408D01*
X76570429Y-103101939D01*
X76581840Y-103110951D01*
X76719843Y-103196016D01*
X76733024Y-103202163D01*
X76887310Y-103253338D01*
X76900686Y-103256205D01*
X76995038Y-103265872D01*
X77001454Y-103266200D01*
X77426485Y-103266200D01*
X77441724Y-103261725D01*
X77442929Y-103260335D01*
X77444600Y-103252652D01*
X77444600Y-103248084D01*
X77952600Y-103248084D01*
X77957075Y-103263323D01*
X77958465Y-103264528D01*
X77966148Y-103266199D01*
X78395695Y-103266199D01*
X78402214Y-103265862D01*
X78497806Y-103255943D01*
X78511200Y-103253051D01*
X78665384Y-103201612D01*
X78678562Y-103195439D01*
X78816407Y-103110137D01*
X78827808Y-103101101D01*
X78942339Y-102986371D01*
X78951351Y-102974960D01*
X79036416Y-102836957D01*
X79042563Y-102823776D01*
X79093738Y-102669490D01*
X79096605Y-102656114D01*
X79106272Y-102561762D01*
X79106600Y-102555346D01*
X79106600Y-102555295D01*
X79846601Y-102555295D01*
X79846938Y-102561814D01*
X79856857Y-102657406D01*
X79859749Y-102670800D01*
X79911188Y-102824984D01*
X79917361Y-102838162D01*
X80002663Y-102976007D01*
X80011699Y-102987408D01*
X80126429Y-103101939D01*
X80137840Y-103110951D01*
X80275843Y-103196016D01*
X80289024Y-103202163D01*
X80443310Y-103253338D01*
X80456686Y-103256205D01*
X80551038Y-103265872D01*
X80557454Y-103266200D01*
X80982485Y-103266200D01*
X80997724Y-103261725D01*
X80998929Y-103260335D01*
X81000600Y-103252652D01*
X81000600Y-103248084D01*
X81508600Y-103248084D01*
X81513075Y-103263323D01*
X81514465Y-103264528D01*
X81522148Y-103266199D01*
X81951695Y-103266199D01*
X81958214Y-103265862D01*
X82053806Y-103255943D01*
X82067200Y-103253051D01*
X82221384Y-103201612D01*
X82234562Y-103195439D01*
X82372407Y-103110137D01*
X82383808Y-103101101D01*
X82498339Y-102986371D01*
X82507351Y-102974960D01*
X82592416Y-102836957D01*
X82598563Y-102823776D01*
X82649738Y-102669490D01*
X82652605Y-102656114D01*
X82662272Y-102561762D01*
X82662600Y-102555346D01*
X82662600Y-102367815D01*
X82658125Y-102352576D01*
X82656735Y-102351371D01*
X82649052Y-102349700D01*
X81526715Y-102349700D01*
X81511476Y-102354175D01*
X81510271Y-102355565D01*
X81508600Y-102363248D01*
X81508600Y-103248084D01*
X81000600Y-103248084D01*
X81000600Y-102367815D01*
X80996125Y-102352576D01*
X80994735Y-102351371D01*
X80987052Y-102349700D01*
X79864716Y-102349700D01*
X79849477Y-102354175D01*
X79848272Y-102355565D01*
X79846601Y-102363248D01*
X79846601Y-102555295D01*
X79106600Y-102555295D01*
X79106600Y-102367815D01*
X79102125Y-102352576D01*
X79100735Y-102351371D01*
X79093052Y-102349700D01*
X77970715Y-102349700D01*
X77955476Y-102354175D01*
X77954271Y-102355565D01*
X77952600Y-102363248D01*
X77952600Y-103248084D01*
X77444600Y-103248084D01*
X77444600Y-102367815D01*
X77440125Y-102352576D01*
X77438735Y-102351371D01*
X77431052Y-102349700D01*
X76308716Y-102349700D01*
X76293477Y-102354175D01*
X76292272Y-102355565D01*
X76290601Y-102363248D01*
X76290601Y-102555295D01*
X60339470Y-102555295D01*
X60639351Y-101823585D01*
X76290600Y-101823585D01*
X76295075Y-101838824D01*
X76296465Y-101840029D01*
X76304148Y-101841700D01*
X77426485Y-101841700D01*
X77441724Y-101837225D01*
X77442929Y-101835835D01*
X77444600Y-101828152D01*
X77444600Y-101823585D01*
X77952600Y-101823585D01*
X77957075Y-101838824D01*
X77958465Y-101840029D01*
X77966148Y-101841700D01*
X79088484Y-101841700D01*
X79103723Y-101837225D01*
X79104928Y-101835835D01*
X79106599Y-101828152D01*
X79106599Y-101823585D01*
X79846600Y-101823585D01*
X79851075Y-101838824D01*
X79852465Y-101840029D01*
X79860148Y-101841700D01*
X80982485Y-101841700D01*
X80997724Y-101837225D01*
X80998929Y-101835835D01*
X81000600Y-101828152D01*
X81000600Y-101823585D01*
X81508600Y-101823585D01*
X81513075Y-101838824D01*
X81514465Y-101840029D01*
X81522148Y-101841700D01*
X82644484Y-101841700D01*
X82659723Y-101837225D01*
X82660928Y-101835835D01*
X82662599Y-101828152D01*
X82662599Y-101636105D01*
X82662262Y-101629586D01*
X82652343Y-101533994D01*
X82649451Y-101520600D01*
X82598012Y-101366416D01*
X82591839Y-101353238D01*
X82506537Y-101215393D01*
X82497501Y-101203992D01*
X82382771Y-101089461D01*
X82371360Y-101080449D01*
X82233357Y-100995384D01*
X82220176Y-100989237D01*
X82065890Y-100938062D01*
X82052514Y-100935195D01*
X81958162Y-100925528D01*
X81951745Y-100925200D01*
X81526715Y-100925200D01*
X81511476Y-100929675D01*
X81510271Y-100931065D01*
X81508600Y-100938748D01*
X81508600Y-101823585D01*
X81000600Y-101823585D01*
X81000600Y-100943316D01*
X80996125Y-100928077D01*
X80994735Y-100926872D01*
X80987052Y-100925201D01*
X80557505Y-100925201D01*
X80550986Y-100925538D01*
X80455394Y-100935457D01*
X80442000Y-100938349D01*
X80287816Y-100989788D01*
X80274638Y-100995961D01*
X80136793Y-101081263D01*
X80125392Y-101090299D01*
X80010861Y-101205029D01*
X80001849Y-101216440D01*
X79916784Y-101354443D01*
X79910637Y-101367624D01*
X79859462Y-101521910D01*
X79856595Y-101535286D01*
X79846928Y-101629638D01*
X79846600Y-101636055D01*
X79846600Y-101823585D01*
X79106599Y-101823585D01*
X79106599Y-101636105D01*
X79106262Y-101629586D01*
X79096343Y-101533994D01*
X79093451Y-101520600D01*
X79042012Y-101366416D01*
X79035839Y-101353238D01*
X78950537Y-101215393D01*
X78941501Y-101203992D01*
X78826771Y-101089461D01*
X78815360Y-101080449D01*
X78677357Y-100995384D01*
X78664176Y-100989237D01*
X78509890Y-100938062D01*
X78496514Y-100935195D01*
X78402162Y-100925528D01*
X78395745Y-100925200D01*
X77970715Y-100925200D01*
X77955476Y-100929675D01*
X77954271Y-100931065D01*
X77952600Y-100938748D01*
X77952600Y-101823585D01*
X77444600Y-101823585D01*
X77444600Y-100943316D01*
X77440125Y-100928077D01*
X77438735Y-100926872D01*
X77431052Y-100925201D01*
X77001505Y-100925201D01*
X76994986Y-100925538D01*
X76899394Y-100935457D01*
X76886000Y-100938349D01*
X76731816Y-100989788D01*
X76718638Y-100995961D01*
X76580793Y-101081263D01*
X76569392Y-101090299D01*
X76454861Y-101205029D01*
X76445849Y-101216440D01*
X76360784Y-101354443D01*
X76354637Y-101367624D01*
X76303462Y-101521910D01*
X76300595Y-101535286D01*
X76290928Y-101629638D01*
X76290600Y-101636055D01*
X76290600Y-101823585D01*
X60639351Y-101823585D01*
X62836844Y-96461700D01*
X63026939Y-95997869D01*
X65404801Y-95997869D01*
X65405171Y-96004690D01*
X65410695Y-96055552D01*
X65414321Y-96070804D01*
X65459476Y-96191254D01*
X65468014Y-96206849D01*
X65544515Y-96308924D01*
X65557076Y-96321485D01*
X65659151Y-96397986D01*
X65674746Y-96406524D01*
X65795194Y-96451678D01*
X65810449Y-96455305D01*
X65861314Y-96460831D01*
X65868128Y-96461200D01*
X67215685Y-96461200D01*
X67230924Y-96456725D01*
X67232129Y-96455335D01*
X67233800Y-96447652D01*
X67233800Y-96443084D01*
X67741800Y-96443084D01*
X67746275Y-96458323D01*
X67747665Y-96459528D01*
X67755348Y-96461199D01*
X69107469Y-96461199D01*
X69114290Y-96460829D01*
X69165152Y-96455305D01*
X69180404Y-96451679D01*
X69300854Y-96406524D01*
X69316449Y-96397986D01*
X69418524Y-96321485D01*
X69431085Y-96308924D01*
X69507586Y-96206849D01*
X69516124Y-96191254D01*
X69561278Y-96070806D01*
X69564905Y-96055551D01*
X69570431Y-96004686D01*
X69570800Y-95997872D01*
X69570800Y-95997869D01*
X70454801Y-95997869D01*
X70455171Y-96004690D01*
X70460695Y-96055552D01*
X70464321Y-96070804D01*
X70509476Y-96191254D01*
X70518014Y-96206849D01*
X70594515Y-96308924D01*
X70607076Y-96321485D01*
X70709151Y-96397986D01*
X70724746Y-96406524D01*
X70845194Y-96451678D01*
X70860449Y-96455305D01*
X70911314Y-96460831D01*
X70918128Y-96461200D01*
X72265685Y-96461200D01*
X72280924Y-96456725D01*
X72282129Y-96455335D01*
X72283800Y-96447652D01*
X72283800Y-96443084D01*
X72791800Y-96443084D01*
X72796275Y-96458323D01*
X72797665Y-96459528D01*
X72805348Y-96461199D01*
X74157469Y-96461199D01*
X74164290Y-96460829D01*
X74215152Y-96455305D01*
X74230404Y-96451679D01*
X74350854Y-96406524D01*
X74366449Y-96397986D01*
X74468524Y-96321485D01*
X74481085Y-96308924D01*
X74557586Y-96206849D01*
X74566124Y-96191254D01*
X74611278Y-96070806D01*
X74614905Y-96055551D01*
X74620431Y-96004686D01*
X74620800Y-95997872D01*
X74620800Y-95725315D01*
X74616325Y-95710076D01*
X74614935Y-95708871D01*
X74607252Y-95707200D01*
X72809915Y-95707200D01*
X72794676Y-95711675D01*
X72793471Y-95713065D01*
X72791800Y-95720748D01*
X72791800Y-96443084D01*
X72283800Y-96443084D01*
X72283800Y-95725315D01*
X72279325Y-95710076D01*
X72277935Y-95708871D01*
X72270252Y-95707200D01*
X70472916Y-95707200D01*
X70457677Y-95711675D01*
X70456472Y-95713065D01*
X70454801Y-95720748D01*
X70454801Y-95997869D01*
X69570800Y-95997869D01*
X69570800Y-95725315D01*
X69566325Y-95710076D01*
X69564935Y-95708871D01*
X69557252Y-95707200D01*
X67759915Y-95707200D01*
X67744676Y-95711675D01*
X67743471Y-95713065D01*
X67741800Y-95720748D01*
X67741800Y-96443084D01*
X67233800Y-96443084D01*
X67233800Y-95725315D01*
X67229325Y-95710076D01*
X67227935Y-95708871D01*
X67220252Y-95707200D01*
X65422916Y-95707200D01*
X65407677Y-95711675D01*
X65406472Y-95713065D01*
X65404801Y-95720748D01*
X65404801Y-95997869D01*
X63026939Y-95997869D01*
X63361686Y-95181085D01*
X65404800Y-95181085D01*
X65409275Y-95196324D01*
X65410665Y-95197529D01*
X65418348Y-95199200D01*
X67215685Y-95199200D01*
X67230924Y-95194725D01*
X67232129Y-95193335D01*
X67233800Y-95185652D01*
X67233800Y-95181085D01*
X67741800Y-95181085D01*
X67746275Y-95196324D01*
X67747665Y-95197529D01*
X67755348Y-95199200D01*
X69552684Y-95199200D01*
X69567923Y-95194725D01*
X69569128Y-95193335D01*
X69570799Y-95185652D01*
X69570799Y-95181085D01*
X70454800Y-95181085D01*
X70459275Y-95196324D01*
X70460665Y-95197529D01*
X70468348Y-95199200D01*
X72265685Y-95199200D01*
X72280924Y-95194725D01*
X72282129Y-95193335D01*
X72283800Y-95185652D01*
X72283800Y-95181085D01*
X72791800Y-95181085D01*
X72796275Y-95196324D01*
X72797665Y-95197529D01*
X72805348Y-95199200D01*
X74602684Y-95199200D01*
X74617923Y-95194725D01*
X74619128Y-95193335D01*
X74620799Y-95185652D01*
X74620799Y-94908531D01*
X74620429Y-94901710D01*
X74614905Y-94850848D01*
X74611279Y-94835596D01*
X74566124Y-94715146D01*
X74557586Y-94699551D01*
X74481085Y-94597476D01*
X74468524Y-94584915D01*
X74366449Y-94508414D01*
X74350854Y-94499876D01*
X74230406Y-94454722D01*
X74215151Y-94451095D01*
X74164286Y-94445569D01*
X74157472Y-94445200D01*
X72809915Y-94445200D01*
X72794676Y-94449675D01*
X72793471Y-94451065D01*
X72791800Y-94458748D01*
X72791800Y-95181085D01*
X72283800Y-95181085D01*
X72283800Y-94463316D01*
X72279325Y-94448077D01*
X72277935Y-94446872D01*
X72270252Y-94445201D01*
X70918131Y-94445201D01*
X70911310Y-94445571D01*
X70860448Y-94451095D01*
X70845196Y-94454721D01*
X70724746Y-94499876D01*
X70709151Y-94508414D01*
X70607076Y-94584915D01*
X70594515Y-94597476D01*
X70518014Y-94699551D01*
X70509476Y-94715146D01*
X70464322Y-94835594D01*
X70460695Y-94850849D01*
X70455169Y-94901714D01*
X70454800Y-94908528D01*
X70454800Y-95181085D01*
X69570799Y-95181085D01*
X69570799Y-94908531D01*
X69570429Y-94901710D01*
X69564905Y-94850848D01*
X69561279Y-94835596D01*
X69516124Y-94715146D01*
X69507586Y-94699551D01*
X69431085Y-94597476D01*
X69418524Y-94584915D01*
X69316449Y-94508414D01*
X69300854Y-94499876D01*
X69180406Y-94454722D01*
X69165151Y-94451095D01*
X69114286Y-94445569D01*
X69107472Y-94445200D01*
X67759915Y-94445200D01*
X67744676Y-94449675D01*
X67743471Y-94451065D01*
X67741800Y-94458748D01*
X67741800Y-95181085D01*
X67233800Y-95181085D01*
X67233800Y-94463316D01*
X67229325Y-94448077D01*
X67227935Y-94446872D01*
X67220252Y-94445201D01*
X65868131Y-94445201D01*
X65861310Y-94445571D01*
X65810448Y-94451095D01*
X65795196Y-94454721D01*
X65674746Y-94499876D01*
X65659151Y-94508414D01*
X65557076Y-94584915D01*
X65544515Y-94597476D01*
X65468014Y-94699551D01*
X65459476Y-94715146D01*
X65414322Y-94835594D01*
X65410695Y-94850849D01*
X65405169Y-94901714D01*
X65404800Y-94908528D01*
X65404800Y-95181085D01*
X63361686Y-95181085D01*
X64066502Y-93461334D01*
X65404300Y-93461334D01*
X65411055Y-93523516D01*
X65462185Y-93659905D01*
X65549539Y-93776461D01*
X65666095Y-93863815D01*
X65802484Y-93914945D01*
X65864666Y-93921700D01*
X69110934Y-93921700D01*
X69173116Y-93914945D01*
X69309505Y-93863815D01*
X69426061Y-93776461D01*
X69466776Y-93722135D01*
X69523635Y-93679620D01*
X69567602Y-93671700D01*
X70457998Y-93671700D01*
X70526119Y-93691702D01*
X70558824Y-93722135D01*
X70599539Y-93776461D01*
X70716095Y-93863815D01*
X70852484Y-93914945D01*
X70914666Y-93921700D01*
X74160934Y-93921700D01*
X74223116Y-93914945D01*
X74359505Y-93863815D01*
X74476061Y-93776461D01*
X74563415Y-93659905D01*
X74614545Y-93523516D01*
X74621300Y-93461334D01*
X74621300Y-92365066D01*
X74614545Y-92302884D01*
X74563415Y-92166495D01*
X74476061Y-92049939D01*
X74359505Y-91962585D01*
X74223116Y-91911455D01*
X74160934Y-91904700D01*
X70914666Y-91904700D01*
X70852484Y-91911455D01*
X70716095Y-91962585D01*
X70599539Y-92049939D01*
X70594158Y-92057119D01*
X70558824Y-92104265D01*
X70501965Y-92146780D01*
X70457998Y-92154700D01*
X69567602Y-92154700D01*
X69499481Y-92134698D01*
X69466776Y-92104265D01*
X69431442Y-92057119D01*
X69426061Y-92049939D01*
X69309505Y-91962585D01*
X69173116Y-91911455D01*
X69110934Y-91904700D01*
X65864666Y-91904700D01*
X65802484Y-91911455D01*
X65666095Y-91962585D01*
X65549539Y-92049939D01*
X65462185Y-92166495D01*
X65411055Y-92302884D01*
X65404300Y-92365066D01*
X65404300Y-93461334D01*
X64066502Y-93461334D01*
X65161712Y-90789023D01*
X65206053Y-90733576D01*
X65273332Y-90710903D01*
X65342188Y-90728203D01*
X65390761Y-90779984D01*
X65404300Y-90836805D01*
X65404300Y-90921334D01*
X65411055Y-90983516D01*
X65462185Y-91119905D01*
X65549539Y-91236461D01*
X65666095Y-91323815D01*
X65802484Y-91374945D01*
X65864666Y-91381700D01*
X69110934Y-91381700D01*
X69173116Y-91374945D01*
X69309505Y-91323815D01*
X69426061Y-91236461D01*
X69466776Y-91182135D01*
X69523635Y-91139620D01*
X69567602Y-91131700D01*
X70457998Y-91131700D01*
X70526119Y-91151702D01*
X70558824Y-91182135D01*
X70599539Y-91236461D01*
X70716095Y-91323815D01*
X70852484Y-91374945D01*
X70914666Y-91381700D01*
X74160934Y-91381700D01*
X74223116Y-91374945D01*
X74359505Y-91323815D01*
X74476061Y-91236461D01*
X74563415Y-91119905D01*
X74614545Y-90983516D01*
X74621300Y-90921334D01*
X74621300Y-89825066D01*
X74614545Y-89762884D01*
X74563415Y-89626495D01*
X74476061Y-89509939D01*
X74359505Y-89422585D01*
X74223116Y-89371455D01*
X74160934Y-89364700D01*
X70914666Y-89364700D01*
X70852484Y-89371455D01*
X70716095Y-89422585D01*
X70599539Y-89509939D01*
X70589122Y-89523838D01*
X70558824Y-89564265D01*
X70501965Y-89606780D01*
X70457998Y-89614700D01*
X69567602Y-89614700D01*
X69499481Y-89594698D01*
X69466776Y-89564265D01*
X69436478Y-89523838D01*
X69426061Y-89509939D01*
X69309505Y-89422585D01*
X69173116Y-89371455D01*
X69110934Y-89364700D01*
X65933261Y-89364700D01*
X65865140Y-89344698D01*
X65818647Y-89291042D01*
X65808543Y-89220768D01*
X65816673Y-89190918D01*
X65927739Y-88919918D01*
X65972080Y-88864471D01*
X66044327Y-88841700D01*
X69110934Y-88841700D01*
X69173116Y-88834945D01*
X69309505Y-88783815D01*
X69426061Y-88696461D01*
X69466776Y-88642135D01*
X69523635Y-88599620D01*
X69567602Y-88591700D01*
X70457998Y-88591700D01*
X70526119Y-88611702D01*
X70558824Y-88642135D01*
X70599539Y-88696461D01*
X70716095Y-88783815D01*
X70852484Y-88834945D01*
X70914666Y-88841700D01*
X74160934Y-88841700D01*
X74223116Y-88834945D01*
X74359505Y-88783815D01*
X74476061Y-88696461D01*
X74563415Y-88579905D01*
X74614545Y-88443516D01*
X74621300Y-88381334D01*
X74621300Y-87285066D01*
X74614545Y-87222884D01*
X74563415Y-87086495D01*
X74476061Y-86969939D01*
X74359505Y-86882585D01*
X74223116Y-86831455D01*
X74160934Y-86824700D01*
X70914666Y-86824700D01*
X70852484Y-86831455D01*
X70716095Y-86882585D01*
X70599539Y-86969939D01*
X70589125Y-86983834D01*
X70558824Y-87024265D01*
X70501965Y-87066780D01*
X70457998Y-87074700D01*
X69567602Y-87074700D01*
X69499481Y-87054698D01*
X69466776Y-87024265D01*
X69436475Y-86983834D01*
X69426061Y-86969939D01*
X69309505Y-86882585D01*
X69173116Y-86831455D01*
X69110934Y-86824700D01*
X66166000Y-86824700D01*
X66097879Y-86804698D01*
X66051386Y-86751042D01*
X66040000Y-86698700D01*
X66040000Y-86427700D01*
X66060002Y-86359579D01*
X66113658Y-86313086D01*
X66166000Y-86301700D01*
X69110934Y-86301700D01*
X69173116Y-86294945D01*
X69309505Y-86243815D01*
X69426061Y-86156461D01*
X69466776Y-86102135D01*
X69523635Y-86059620D01*
X69567602Y-86051700D01*
X70457998Y-86051700D01*
X70526119Y-86071702D01*
X70558824Y-86102135D01*
X70599539Y-86156461D01*
X70716095Y-86243815D01*
X70852484Y-86294945D01*
X70914666Y-86301700D01*
X74160934Y-86301700D01*
X74223116Y-86294945D01*
X74359505Y-86243815D01*
X74476061Y-86156461D01*
X74563415Y-86039905D01*
X74614545Y-85903516D01*
X74620615Y-85847640D01*
X74620931Y-85844731D01*
X74621300Y-85841334D01*
X74621300Y-84745066D01*
X74614545Y-84682884D01*
X74563415Y-84546495D01*
X74476061Y-84429939D01*
X74359505Y-84342585D01*
X74223116Y-84291455D01*
X74160934Y-84284700D01*
X70914666Y-84284700D01*
X70852484Y-84291455D01*
X70716095Y-84342585D01*
X70599539Y-84429939D01*
X70558824Y-84484265D01*
X70501965Y-84526780D01*
X70457998Y-84534700D01*
X69567602Y-84534700D01*
X69499481Y-84514698D01*
X69466776Y-84484265D01*
X69426061Y-84429939D01*
X69309505Y-84342585D01*
X69173116Y-84291455D01*
X69110934Y-84284700D01*
X66166000Y-84284700D01*
X66097879Y-84264698D01*
X66051386Y-84211042D01*
X66040000Y-84158700D01*
X66040000Y-83887700D01*
X66060002Y-83819579D01*
X66113658Y-83773086D01*
X66166000Y-83761700D01*
X69110934Y-83761700D01*
X69173116Y-83754945D01*
X69309505Y-83703815D01*
X69426061Y-83616461D01*
X69466776Y-83562135D01*
X69523635Y-83519620D01*
X69567602Y-83511700D01*
X70457998Y-83511700D01*
X70526119Y-83531702D01*
X70558824Y-83562135D01*
X70599539Y-83616461D01*
X70716095Y-83703815D01*
X70852484Y-83754945D01*
X70914666Y-83761700D01*
X74160934Y-83761700D01*
X74223116Y-83754945D01*
X74359505Y-83703815D01*
X74476061Y-83616461D01*
X74563415Y-83499905D01*
X74614545Y-83363516D01*
X74621300Y-83301334D01*
X74621300Y-82205066D01*
X74614545Y-82142884D01*
X74563415Y-82006495D01*
X74476061Y-81889939D01*
X74359505Y-81802585D01*
X74223116Y-81751455D01*
X74160934Y-81744700D01*
X70914666Y-81744700D01*
X70852484Y-81751455D01*
X70716095Y-81802585D01*
X70599539Y-81889939D01*
X70594158Y-81897119D01*
X70558824Y-81944265D01*
X70501965Y-81986780D01*
X70457998Y-81994700D01*
X69567602Y-81994700D01*
X69499481Y-81974698D01*
X69466776Y-81944265D01*
X69431442Y-81897119D01*
X69426061Y-81889939D01*
X69309505Y-81802585D01*
X69173116Y-81751455D01*
X69110934Y-81744700D01*
X66166000Y-81744700D01*
X66097879Y-81724698D01*
X66051386Y-81671042D01*
X66040000Y-81618700D01*
X66040000Y-81347700D01*
X66060002Y-81279579D01*
X66113658Y-81233086D01*
X66166000Y-81221700D01*
X69110934Y-81221700D01*
X69173116Y-81214945D01*
X69309505Y-81163815D01*
X69426061Y-81076461D01*
X69466776Y-81022135D01*
X69523635Y-80979620D01*
X69567602Y-80971700D01*
X70457998Y-80971700D01*
X70526119Y-80991702D01*
X70558824Y-81022135D01*
X70599539Y-81076461D01*
X70716095Y-81163815D01*
X70852484Y-81214945D01*
X70914666Y-81221700D01*
X74160934Y-81221700D01*
X74223116Y-81214945D01*
X74359505Y-81163815D01*
X74476061Y-81076461D01*
X74563415Y-80959905D01*
X74614545Y-80823516D01*
X74621300Y-80761334D01*
X74621300Y-80699125D01*
X82872445Y-80699125D01*
X82890370Y-80896088D01*
X82892108Y-80901994D01*
X82892109Y-80901998D01*
X82908113Y-80956374D01*
X82946210Y-81085819D01*
X82949063Y-81091277D01*
X82949065Y-81091281D01*
X82988633Y-81166967D01*
X83037840Y-81261090D01*
X83161768Y-81415225D01*
X83313274Y-81542354D01*
X83318672Y-81545321D01*
X83318677Y-81545325D01*
X83403429Y-81591917D01*
X83486587Y-81637633D01*
X83492454Y-81639494D01*
X83492456Y-81639495D01*
X83591905Y-81671042D01*
X83675106Y-81697435D01*
X83829027Y-81714700D01*
X88110275Y-81714700D01*
X88178396Y-81734702D01*
X88199370Y-81751605D01*
X89387145Y-82939379D01*
X89396247Y-82949522D01*
X89419968Y-82979025D01*
X89443735Y-82998968D01*
X89458421Y-83011291D01*
X89462069Y-83014472D01*
X89463881Y-83016115D01*
X89466075Y-83018309D01*
X89499349Y-83045642D01*
X89500147Y-83046304D01*
X89571474Y-83106154D01*
X89576144Y-83108722D01*
X89580261Y-83112103D01*
X89627006Y-83137167D01*
X89662086Y-83155977D01*
X89663245Y-83156606D01*
X89739381Y-83198462D01*
X89739389Y-83198465D01*
X89744787Y-83201433D01*
X89749869Y-83203045D01*
X89754563Y-83205562D01*
X89843531Y-83232762D01*
X89844559Y-83233082D01*
X89933306Y-83261235D01*
X89938602Y-83261829D01*
X89943698Y-83263387D01*
X90036259Y-83272790D01*
X90037376Y-83272909D01*
X90077991Y-83277464D01*
X90130061Y-83295419D01*
X90231090Y-83357694D01*
X90238262Y-83362115D01*
X90318005Y-83388564D01*
X90399611Y-83415632D01*
X90399613Y-83415632D01*
X90406139Y-83417797D01*
X90412975Y-83418497D01*
X90412978Y-83418498D01*
X90456031Y-83422909D01*
X90510600Y-83428500D01*
X91861400Y-83428500D01*
X91864646Y-83428163D01*
X91864650Y-83428163D01*
X91960308Y-83418238D01*
X91960312Y-83418237D01*
X91967166Y-83417526D01*
X91973702Y-83415345D01*
X91973704Y-83415345D01*
X92126005Y-83364533D01*
X92134946Y-83361550D01*
X92285348Y-83268478D01*
X92290796Y-83263021D01*
X92405134Y-83148483D01*
X92410305Y-83143303D01*
X92429537Y-83112103D01*
X92499275Y-82998968D01*
X92499276Y-82998966D01*
X92503115Y-82992738D01*
X92529564Y-82912995D01*
X92556632Y-82831389D01*
X92556632Y-82831387D01*
X92558797Y-82824861D01*
X92559637Y-82816669D01*
X92569172Y-82723598D01*
X92569500Y-82720400D01*
X92569500Y-81819600D01*
X92568574Y-81810676D01*
X92559238Y-81720692D01*
X92559237Y-81720688D01*
X92558526Y-81713834D01*
X92544250Y-81671042D01*
X92504868Y-81553002D01*
X92502550Y-81546054D01*
X92409478Y-81395652D01*
X92284303Y-81270695D01*
X92278072Y-81266854D01*
X92139968Y-81181725D01*
X92139966Y-81181724D01*
X92133738Y-81177885D01*
X91995748Y-81132116D01*
X91972389Y-81124368D01*
X91972387Y-81124368D01*
X91965861Y-81122203D01*
X91959025Y-81121503D01*
X91959022Y-81121502D01*
X91915969Y-81117091D01*
X91861400Y-81111500D01*
X90510600Y-81111500D01*
X90507356Y-81111837D01*
X90507348Y-81111837D01*
X90480702Y-81114602D01*
X90410881Y-81101737D01*
X90378604Y-81078370D01*
X89337055Y-80036821D01*
X89327953Y-80026678D01*
X89308097Y-80001982D01*
X89304232Y-79997175D01*
X89265778Y-79964908D01*
X89262131Y-79961728D01*
X89260319Y-79960085D01*
X89258125Y-79957891D01*
X89224851Y-79930558D01*
X89224053Y-79929896D01*
X89152726Y-79870046D01*
X89148056Y-79867478D01*
X89143939Y-79864097D01*
X89062114Y-79820223D01*
X89060955Y-79819594D01*
X88984819Y-79777738D01*
X88984811Y-79777735D01*
X88979413Y-79774767D01*
X88974331Y-79773155D01*
X88969637Y-79770638D01*
X88880669Y-79743438D01*
X88879641Y-79743118D01*
X88790894Y-79714965D01*
X88785598Y-79714371D01*
X88780502Y-79712813D01*
X88687943Y-79703410D01*
X88686807Y-79703289D01*
X88653192Y-79699519D01*
X88640470Y-79698092D01*
X88640466Y-79698092D01*
X88636973Y-79697700D01*
X88633446Y-79697700D01*
X88632461Y-79697645D01*
X88626781Y-79697198D01*
X88597375Y-79694211D01*
X88589863Y-79693448D01*
X88589861Y-79693448D01*
X88583738Y-79692826D01*
X88541459Y-79696823D01*
X88538091Y-79697141D01*
X88526233Y-79697700D01*
X83836031Y-79697700D01*
X83832975Y-79698000D01*
X83832968Y-79698000D01*
X83777715Y-79703418D01*
X83688967Y-79712120D01*
X83683066Y-79713902D01*
X83683064Y-79713902D01*
X83647055Y-79724774D01*
X83499631Y-79769284D01*
X83325004Y-79862134D01*
X83287490Y-79892730D01*
X83176513Y-79983240D01*
X83176510Y-79983243D01*
X83171738Y-79987135D01*
X83167811Y-79991882D01*
X83167809Y-79991884D01*
X83049599Y-80134775D01*
X83049597Y-80134779D01*
X83045670Y-80139525D01*
X82951602Y-80313499D01*
X82893118Y-80502432D01*
X82872445Y-80699125D01*
X74621300Y-80699125D01*
X74621300Y-79665066D01*
X74614545Y-79602884D01*
X74563415Y-79466495D01*
X74476061Y-79349939D01*
X74359505Y-79262585D01*
X74223116Y-79211455D01*
X74160934Y-79204700D01*
X70914666Y-79204700D01*
X70852484Y-79211455D01*
X70716095Y-79262585D01*
X70599539Y-79349939D01*
X70594158Y-79357119D01*
X70558824Y-79404265D01*
X70501965Y-79446780D01*
X70457998Y-79454700D01*
X69567602Y-79454700D01*
X69499481Y-79434698D01*
X69466776Y-79404265D01*
X69431442Y-79357119D01*
X69426061Y-79349939D01*
X69309505Y-79262585D01*
X69173116Y-79211455D01*
X69110934Y-79204700D01*
X66166000Y-79204700D01*
X66097879Y-79184698D01*
X66051386Y-79131042D01*
X66040000Y-79078700D01*
X66040000Y-78807700D01*
X66060002Y-78739579D01*
X66113658Y-78693086D01*
X66166000Y-78681700D01*
X69110934Y-78681700D01*
X69173116Y-78674945D01*
X69309505Y-78623815D01*
X69426061Y-78536461D01*
X69466776Y-78482135D01*
X69523635Y-78439620D01*
X69567602Y-78431700D01*
X70457998Y-78431700D01*
X70526119Y-78451702D01*
X70558824Y-78482135D01*
X70599539Y-78536461D01*
X70716095Y-78623815D01*
X70852484Y-78674945D01*
X70914666Y-78681700D01*
X74160934Y-78681700D01*
X74223116Y-78674945D01*
X74359505Y-78623815D01*
X74476061Y-78536461D01*
X74563415Y-78419905D01*
X74614545Y-78283516D01*
X74621300Y-78221334D01*
X74621300Y-77125066D01*
X74614545Y-77062884D01*
X74563415Y-76926495D01*
X74476061Y-76809939D01*
X74359505Y-76722585D01*
X74223116Y-76671455D01*
X74160934Y-76664700D01*
X70914666Y-76664700D01*
X70852484Y-76671455D01*
X70716095Y-76722585D01*
X70599539Y-76809939D01*
X70594158Y-76817119D01*
X70558824Y-76864265D01*
X70501965Y-76906780D01*
X70457998Y-76914700D01*
X69567602Y-76914700D01*
X69499481Y-76894698D01*
X69466776Y-76864265D01*
X69431442Y-76817119D01*
X69426061Y-76809939D01*
X69309505Y-76722585D01*
X69173116Y-76671455D01*
X69110934Y-76664700D01*
X66166000Y-76664700D01*
X66097879Y-76644698D01*
X66051386Y-76591042D01*
X66040000Y-76538700D01*
X66040000Y-76267700D01*
X66060002Y-76199579D01*
X66113658Y-76153086D01*
X66166000Y-76141700D01*
X69110934Y-76141700D01*
X69173116Y-76134945D01*
X69309505Y-76083815D01*
X69426061Y-75996461D01*
X69466776Y-75942135D01*
X69523635Y-75899620D01*
X69567602Y-75891700D01*
X70457998Y-75891700D01*
X70526119Y-75911702D01*
X70558824Y-75942135D01*
X70599539Y-75996461D01*
X70716095Y-76083815D01*
X70852484Y-76134945D01*
X70914666Y-76141700D01*
X74160934Y-76141700D01*
X74223116Y-76134945D01*
X74359505Y-76083815D01*
X74476061Y-75996461D01*
X74563415Y-75879905D01*
X74614545Y-75743516D01*
X74621300Y-75681334D01*
X74621300Y-74585066D01*
X74614545Y-74522884D01*
X74563415Y-74386495D01*
X74476061Y-74269939D01*
X74359505Y-74182585D01*
X74223116Y-74131455D01*
X74160934Y-74124700D01*
X70914666Y-74124700D01*
X70852484Y-74131455D01*
X70716095Y-74182585D01*
X70599539Y-74269939D01*
X70594158Y-74277119D01*
X70558824Y-74324265D01*
X70501965Y-74366780D01*
X70457998Y-74374700D01*
X69567602Y-74374700D01*
X69499481Y-74354698D01*
X69466776Y-74324265D01*
X69431442Y-74277119D01*
X69426061Y-74269939D01*
X69309505Y-74182585D01*
X69173116Y-74131455D01*
X69110934Y-74124700D01*
X66166000Y-74124700D01*
X66097879Y-74104698D01*
X66051386Y-74051042D01*
X66040000Y-73998700D01*
X66040000Y-73727700D01*
X66060002Y-73659579D01*
X66113658Y-73613086D01*
X66166000Y-73601700D01*
X69110934Y-73601700D01*
X69173116Y-73594945D01*
X69309505Y-73543815D01*
X69426061Y-73456461D01*
X69466776Y-73402135D01*
X69523635Y-73359620D01*
X69567602Y-73351700D01*
X70457998Y-73351700D01*
X70526119Y-73371702D01*
X70558824Y-73402135D01*
X70599539Y-73456461D01*
X70716095Y-73543815D01*
X70852484Y-73594945D01*
X70914666Y-73601700D01*
X74160934Y-73601700D01*
X74223116Y-73594945D01*
X74359505Y-73543815D01*
X74476061Y-73456461D01*
X74563415Y-73339905D01*
X74614545Y-73203516D01*
X74621300Y-73141334D01*
X74621300Y-72045066D01*
X74614545Y-71982884D01*
X74563415Y-71846495D01*
X74476061Y-71729939D01*
X74359505Y-71642585D01*
X74223116Y-71591455D01*
X74160934Y-71584700D01*
X70914666Y-71584700D01*
X70852484Y-71591455D01*
X70716095Y-71642585D01*
X70599539Y-71729939D01*
X70594158Y-71737119D01*
X70558824Y-71784265D01*
X70501965Y-71826780D01*
X70457998Y-71834700D01*
X69567602Y-71834700D01*
X69499481Y-71814698D01*
X69466776Y-71784265D01*
X69431442Y-71737119D01*
X69426061Y-71729939D01*
X69309505Y-71642585D01*
X69173116Y-71591455D01*
X69110934Y-71584700D01*
X66166000Y-71584700D01*
X66097879Y-71564698D01*
X66051386Y-71511042D01*
X66040000Y-71458700D01*
X66040000Y-71187700D01*
X66060002Y-71119579D01*
X66113658Y-71073086D01*
X66166000Y-71061700D01*
X69110934Y-71061700D01*
X69173116Y-71054945D01*
X69309505Y-71003815D01*
X69426061Y-70916461D01*
X69466776Y-70862135D01*
X69523635Y-70819620D01*
X69567602Y-70811700D01*
X70457998Y-70811700D01*
X70526119Y-70831702D01*
X70558824Y-70862135D01*
X70599539Y-70916461D01*
X70716095Y-71003815D01*
X70852484Y-71054945D01*
X70914666Y-71061700D01*
X74160934Y-71061700D01*
X74223116Y-71054945D01*
X74359505Y-71003815D01*
X74476061Y-70916461D01*
X74563415Y-70799905D01*
X74614545Y-70663516D01*
X74621300Y-70601334D01*
X74621300Y-69505066D01*
X74614545Y-69442884D01*
X74563415Y-69306495D01*
X74476061Y-69189939D01*
X74359505Y-69102585D01*
X74223116Y-69051455D01*
X74160934Y-69044700D01*
X70914666Y-69044700D01*
X70852484Y-69051455D01*
X70716095Y-69102585D01*
X70599539Y-69189939D01*
X70594158Y-69197119D01*
X70558824Y-69244265D01*
X70501965Y-69286780D01*
X70457998Y-69294700D01*
X69567602Y-69294700D01*
X69499481Y-69274698D01*
X69466776Y-69244265D01*
X69431442Y-69197119D01*
X69426061Y-69189939D01*
X69309505Y-69102585D01*
X69173116Y-69051455D01*
X69110934Y-69044700D01*
X66166000Y-69044700D01*
X66097879Y-69024698D01*
X66051386Y-68971042D01*
X66040000Y-68918700D01*
X66040000Y-68647700D01*
X66060002Y-68579579D01*
X66113658Y-68533086D01*
X66166000Y-68521700D01*
X69110934Y-68521700D01*
X69173116Y-68514945D01*
X69309505Y-68463815D01*
X69426061Y-68376461D01*
X69466776Y-68322135D01*
X69523635Y-68279620D01*
X69567602Y-68271700D01*
X70457998Y-68271700D01*
X70526119Y-68291702D01*
X70558824Y-68322135D01*
X70599539Y-68376461D01*
X70716095Y-68463815D01*
X70852484Y-68514945D01*
X70914666Y-68521700D01*
X74160934Y-68521700D01*
X74223116Y-68514945D01*
X74359505Y-68463815D01*
X74476061Y-68376461D01*
X74563415Y-68259905D01*
X74614545Y-68123516D01*
X74621300Y-68061334D01*
X74621300Y-66965066D01*
X74614545Y-66902884D01*
X74563415Y-66766495D01*
X74476061Y-66649939D01*
X74359505Y-66562585D01*
X74223116Y-66511455D01*
X74160934Y-66504700D01*
X70914666Y-66504700D01*
X70852484Y-66511455D01*
X70716095Y-66562585D01*
X70599539Y-66649939D01*
X70594158Y-66657119D01*
X70558824Y-66704265D01*
X70501965Y-66746780D01*
X70457998Y-66754700D01*
X69567602Y-66754700D01*
X69499481Y-66734698D01*
X69466776Y-66704265D01*
X69431442Y-66657119D01*
X69426061Y-66649939D01*
X69309505Y-66562585D01*
X69173116Y-66511455D01*
X69110934Y-66504700D01*
X66166000Y-66504700D01*
X66097879Y-66484698D01*
X66051386Y-66431042D01*
X66040000Y-66378700D01*
X66040000Y-66107700D01*
X66060002Y-66039579D01*
X66113658Y-65993086D01*
X66166000Y-65981700D01*
X69110934Y-65981700D01*
X69173116Y-65974945D01*
X69309505Y-65923815D01*
X69426061Y-65836461D01*
X69466776Y-65782135D01*
X69523635Y-65739620D01*
X69567602Y-65731700D01*
X70457998Y-65731700D01*
X70526119Y-65751702D01*
X70558824Y-65782135D01*
X70599539Y-65836461D01*
X70716095Y-65923815D01*
X70852484Y-65974945D01*
X70914666Y-65981700D01*
X74160934Y-65981700D01*
X74223116Y-65974945D01*
X74359505Y-65923815D01*
X74476061Y-65836461D01*
X74563415Y-65719905D01*
X74614545Y-65583516D01*
X74621300Y-65521334D01*
X74621300Y-64425066D01*
X74614545Y-64362884D01*
X74563415Y-64226495D01*
X74476061Y-64109939D01*
X74359505Y-64022585D01*
X74223116Y-63971455D01*
X74160934Y-63964700D01*
X70914666Y-63964700D01*
X70852484Y-63971455D01*
X70716095Y-64022585D01*
X70599539Y-64109939D01*
X70594158Y-64117119D01*
X70558824Y-64164265D01*
X70501965Y-64206780D01*
X70457998Y-64214700D01*
X69567602Y-64214700D01*
X69499481Y-64194698D01*
X69466776Y-64164265D01*
X69431442Y-64117119D01*
X69426061Y-64109939D01*
X69309505Y-64022585D01*
X69173116Y-63971455D01*
X69110934Y-63964700D01*
X66166000Y-63964700D01*
X66097879Y-63944698D01*
X66051386Y-63891042D01*
X66040000Y-63838700D01*
X66040000Y-63567700D01*
X66060002Y-63499579D01*
X66113658Y-63453086D01*
X66166000Y-63441700D01*
X69110934Y-63441700D01*
X69173116Y-63434945D01*
X69309505Y-63383815D01*
X69426061Y-63296461D01*
X69466776Y-63242135D01*
X69523635Y-63199620D01*
X69567602Y-63191700D01*
X70457998Y-63191700D01*
X70526119Y-63211702D01*
X70558824Y-63242135D01*
X70599539Y-63296461D01*
X70716095Y-63383815D01*
X70852484Y-63434945D01*
X70914666Y-63441700D01*
X74160934Y-63441700D01*
X74223116Y-63434945D01*
X74359505Y-63383815D01*
X74476061Y-63296461D01*
X74563415Y-63179905D01*
X74614545Y-63043516D01*
X74621300Y-62981334D01*
X74621300Y-61885066D01*
X74614545Y-61822884D01*
X74563415Y-61686495D01*
X74476061Y-61569939D01*
X74359505Y-61482585D01*
X74223116Y-61431455D01*
X74160934Y-61424700D01*
X70914666Y-61424700D01*
X70852484Y-61431455D01*
X70716095Y-61482585D01*
X70599539Y-61569939D01*
X70594158Y-61577119D01*
X70558824Y-61624265D01*
X70501965Y-61666780D01*
X70457998Y-61674700D01*
X69567602Y-61674700D01*
X69499481Y-61654698D01*
X69466776Y-61624265D01*
X69431442Y-61577119D01*
X69426061Y-61569939D01*
X69309505Y-61482585D01*
X69173116Y-61431455D01*
X69110934Y-61424700D01*
X66166000Y-61424700D01*
X66097879Y-61404698D01*
X66051386Y-61351042D01*
X66040000Y-61298700D01*
X66040000Y-56006000D01*
X66060002Y-55937879D01*
X66113658Y-55891386D01*
X66166000Y-55880000D01*
X92891500Y-55880000D01*
X92891500Y-58285957D01*
G37*
%TD.AperFunction*%
%TD*%
%TA.AperFunction,Conductor*%
%TO.N,GND*%
G36*
X121862121Y-35580002D02*
G01*
X121908614Y-35633658D01*
X121920000Y-35686000D01*
X121920000Y-55880000D01*
X94908500Y-55880000D01*
X94908500Y-51775317D01*
X94918957Y-51739704D01*
X108323151Y-51739704D01*
X108327720Y-51746235D01*
X108540736Y-51876771D01*
X108549530Y-51881252D01*
X108781492Y-51977334D01*
X108790877Y-51980383D01*
X109035017Y-52038996D01*
X109044764Y-52040539D01*
X109295070Y-52060239D01*
X109304930Y-52060239D01*
X109555236Y-52040539D01*
X109564983Y-52038996D01*
X109809123Y-51980383D01*
X109818508Y-51977334D01*
X110050470Y-51881252D01*
X110059264Y-51876771D01*
X110270875Y-51747096D01*
X110276922Y-51737830D01*
X110270915Y-51727625D01*
X109312812Y-50769522D01*
X109298868Y-50761908D01*
X109297035Y-50762039D01*
X109290420Y-50766290D01*
X108330544Y-51726166D01*
X108323151Y-51739704D01*
X94918957Y-51739704D01*
X94928502Y-51707196D01*
X94952670Y-51679506D01*
X95072601Y-51577076D01*
X95076363Y-51573863D01*
X95245903Y-51375356D01*
X95382303Y-51152771D01*
X95482204Y-50911589D01*
X95503576Y-50822569D01*
X95541991Y-50662562D01*
X95541992Y-50662556D01*
X95543146Y-50657749D01*
X95563240Y-50402430D01*
X107637261Y-50402430D01*
X107656961Y-50652736D01*
X107658504Y-50662483D01*
X107717117Y-50906623D01*
X107720166Y-50916008D01*
X107816248Y-51147970D01*
X107820729Y-51156764D01*
X107950404Y-51368375D01*
X107959670Y-51374422D01*
X107969875Y-51368415D01*
X108927978Y-50410312D01*
X108934356Y-50398632D01*
X109664408Y-50398632D01*
X109664539Y-50400465D01*
X109668790Y-50407080D01*
X110628666Y-51366956D01*
X110642204Y-51374349D01*
X110648735Y-51369780D01*
X110779271Y-51156764D01*
X110783752Y-51147970D01*
X110879834Y-50916008D01*
X110882883Y-50906623D01*
X110941496Y-50662483D01*
X110943039Y-50652736D01*
X110962739Y-50402430D01*
X110962739Y-50392570D01*
X110943039Y-50142264D01*
X110941496Y-50132517D01*
X110882883Y-49888377D01*
X110879834Y-49878992D01*
X110783752Y-49647030D01*
X110779271Y-49638236D01*
X110649596Y-49426625D01*
X110640330Y-49420578D01*
X110630125Y-49426585D01*
X109672022Y-50384688D01*
X109664408Y-50398632D01*
X108934356Y-50398632D01*
X108935592Y-50396368D01*
X108935461Y-50394535D01*
X108931210Y-50387920D01*
X107971334Y-49428044D01*
X107957796Y-49420651D01*
X107951265Y-49425220D01*
X107820729Y-49638236D01*
X107816248Y-49647030D01*
X107720166Y-49878992D01*
X107717117Y-49888377D01*
X107658504Y-50132517D01*
X107656961Y-50142264D01*
X107637261Y-50392570D01*
X107637261Y-50402430D01*
X95563240Y-50402430D01*
X95563628Y-50397500D01*
X95543146Y-50137251D01*
X95541992Y-50132444D01*
X95541991Y-50132438D01*
X95483359Y-49888223D01*
X95482204Y-49883411D01*
X95382303Y-49642229D01*
X95245903Y-49419644D01*
X95076363Y-49221137D01*
X94884381Y-49057170D01*
X108323078Y-49057170D01*
X108329085Y-49067375D01*
X109287188Y-50025478D01*
X109301132Y-50033092D01*
X109302965Y-50032961D01*
X109309580Y-50028710D01*
X110269456Y-49068834D01*
X110276849Y-49055296D01*
X110272280Y-49048765D01*
X110059264Y-48918229D01*
X110050470Y-48913748D01*
X109818508Y-48817666D01*
X109809123Y-48814617D01*
X109564983Y-48756004D01*
X109555236Y-48754461D01*
X109304930Y-48734761D01*
X109295070Y-48734761D01*
X109044764Y-48754461D01*
X109035017Y-48756004D01*
X108790877Y-48814617D01*
X108781492Y-48817666D01*
X108549530Y-48913748D01*
X108540736Y-48918229D01*
X108329125Y-49047904D01*
X108323078Y-49057170D01*
X94884381Y-49057170D01*
X94877856Y-49051597D01*
X94655271Y-48915197D01*
X94650701Y-48913304D01*
X94650697Y-48913302D01*
X94418662Y-48817190D01*
X94418660Y-48817189D01*
X94414089Y-48815296D01*
X94325069Y-48793924D01*
X94165062Y-48755509D01*
X94165056Y-48755508D01*
X94160249Y-48754354D01*
X93900000Y-48733872D01*
X93639751Y-48754354D01*
X93634944Y-48755508D01*
X93634938Y-48755509D01*
X93474931Y-48793924D01*
X93385911Y-48815296D01*
X93381340Y-48817189D01*
X93381338Y-48817190D01*
X93149303Y-48913302D01*
X93149299Y-48913304D01*
X93144729Y-48915197D01*
X92922144Y-49051597D01*
X92723637Y-49221137D01*
X92554097Y-49419644D01*
X92417697Y-49642229D01*
X92317796Y-49883411D01*
X92316641Y-49888223D01*
X92258009Y-50132438D01*
X92258008Y-50132444D01*
X92256854Y-50137251D01*
X92236372Y-50397500D01*
X92256854Y-50657749D01*
X92258008Y-50662556D01*
X92258009Y-50662562D01*
X92296424Y-50822569D01*
X92317796Y-50911589D01*
X92417697Y-51152771D01*
X92554097Y-51375356D01*
X92723637Y-51573863D01*
X92727399Y-51577076D01*
X92847330Y-51679506D01*
X92886139Y-51738956D01*
X92891500Y-51775317D01*
X92891500Y-55880000D01*
X88900000Y-55880000D01*
X88900000Y-35686000D01*
X88920002Y-35617879D01*
X88973658Y-35571386D01*
X89026000Y-35560000D01*
X121794000Y-35560000D01*
X121862121Y-35580002D01*
G37*
%TD.AperFunction*%
%TD*%
M02*
